MontserratZ-Regular.ufo
<glyph name="exclam" format="2">
  <advance width="273"/>
  <unicode hex="0021"/>
  <outline>
    <contour>
      <point x="93" y="227" type="line"/>
      <point x="72" y="700" type="line"/>
      <point x="202" y="700" type="line"/>
      <point x="180" y="227" type="line"/>
    </contour>
    <contour>
      <point x="137" y="-6" type="qcurve" smooth="yes"/>
      <point x="106" y="-6"/>
      <point x="64" y="36"/>
      <point x="64" y="65" type="qcurve" smooth="yes"/>
      <point x="64" y="95"/>
      <point x="106" y="136"/>
      <point x="137" y="136" type="qcurve" smooth="yes"/>
      <point x="169" y="136"/>
      <point x="209" y="95"/>
      <point x="209" y="65" type="qcurve" smooth="yes"/>
      <point x="209" y="36"/>
      <point x="169" y="-6"/>
    </contour>
  </outline>
</glyph>
<glyph name="dollar" format="2">
  <advance width="625"/>
  <unicode hex="0024"/>
  <outline>
    <contour>
      <point x="282" y="-120" type="line"/>
      <point x="282" y="820" type="line"/>
      <point x="355" y="820" type="line"/>
      <point x="355" y="-120" type="line"/>
    </contour>
    <contour>
      <point x="310" y="-9" type="qcurve" smooth="yes"/>
      <point x="229" y="-9"/>
      <point x="81" y="39"/>
      <point x="38" y="77" type="qcurve"/>
      <point x="79" y="167" type="line"/>
      <point x="120" y="133"/>
      <point x="244" y="88"/>
      <point x="310" y="88" type="qcurve" smooth="yes"/>
      <point x="368" y="88"/>
      <point x="440" y="114"/>
      <point x="474" y="159"/>
      <point x="474" y="187" type="qcurve" smooth="yes"/>
      <point x="474" y="221"/>
      <point x="428" y="262"/>
      <point x="354" y="287"/>
      <point x="264" y="307"/>
      <point x="174" y="334"/>
      <point x="100" y="377"/>
      <point x="54" y="448"/>
      <point x="54" y="504" type="qcurve" smooth="yes"/>
      <point x="54" y="560"/>
      <point x="113" y="653"/>
      <point x="235" y="709"/>
      <point x="329" y="709" type="qcurve" smooth="yes"/>
      <point x="391" y="709"/>
      <point x="513" y="677"/>
      <point x="558" y="647" type="qcurve"/>
      <point x="521" y="556" type="line"/>
      <point x="475" y="585"/>
      <point x="375" y="612"/>
      <point x="328" y="612" type="qcurve" smooth="yes"/>
      <point x="272" y="612"/>
      <point x="200" y="584"/>
      <point x="167" y="538"/>
      <point x="167" y="509" type="qcurve" smooth="yes"/>
      <point x="167" y="475"/>
      <point x="213" y="434"/>
      <point x="287" y="410"/>
      <point x="377" y="389"/>
      <point x="467" y="363"/>
      <point x="541" y="321"/>
      <point x="587" y="250"/>
      <point x="587" y="195" type="qcurve" smooth="yes"/>
      <point x="587" y="140"/>
      <point x="527" y="47"/>
      <point x="404" y="-9"/>
    </contour>
  </outline>
</glyph>
<glyph name="percent" format="2">
  <advance width="851"/>
  <unicode hex="0025"/>
  <outline>
    <contour>
      <point x="143" y="0" type="line"/>
      <point x="621" y="700" type="line"/>
      <point x="708" y="700" type="line"/>
      <point x="230" y="0" type="line"/>
    </contour>
    <contour>
      <point x="200" y="324" type="qcurve" smooth="yes"/>
      <point x="151" y="324"/>
      <point x="76" y="372"/>
      <point x="35" y="458"/>
      <point x="35" y="515" type="qcurve" smooth="yes"/>
      <point x="35" y="572"/>
      <point x="76" y="658"/>
      <point x="151" y="706"/>
      <point x="200" y="706" type="qcurve" smooth="yes"/>
      <point x="250" y="706"/>
      <point x="324" y="658"/>
      <point x="365" y="573"/>
      <point x="365" y="515" type="qcurve" smooth="yes"/>
      <point x="365" y="458"/>
      <point x="324" y="372"/>
      <point x="250" y="324"/>
    </contour>
    <contour>
      <point x="201" y="388" type="qcurve" smooth="yes"/>
      <point x="244" y="388"/>
      <point x="292" y="455"/>
      <point x="292" y="515" type="qcurve" smooth="yes"/>
      <point x="292" y="575"/>
      <point x="244" y="642"/>
      <point x="201" y="642" type="qcurve" smooth="yes"/>
      <point x="157" y="642"/>
      <point x="108" y="575"/>
      <point x="108" y="515" type="qcurve" smooth="yes"/>
      <point x="108" y="456"/>
      <point x="157" y="388"/>
    </contour>
    <contour>
      <point x="651" y="-6" type="qcurve" smooth="yes"/>
      <point x="602" y="-6"/>
      <point x="527" y="42"/>
      <point x="486" y="128"/>
      <point x="486" y="185" type="qcurve" smooth="yes"/>
      <point x="486" y="242"/>
      <point x="527" y="328"/>
      <point x="602" y="376"/>
      <point x="651" y="376" type="qcurve" smooth="yes"/>
      <point x="701" y="376"/>
      <point x="775" y="328"/>
      <point x="816" y="242"/>
      <point x="816" y="185" type="qcurve" smooth="yes"/>
      <point x="816" y="128"/>
      <point x="775" y="42"/>
      <point x="701" y="-6"/>
    </contour>
    <contour>
      <point x="651" y="58" type="qcurve" smooth="yes"/>
      <point x="694" y="58"/>
      <point x="743" y="126"/>
      <point x="743" y="185" type="qcurve" smooth="yes"/>
      <point x="743" y="244"/>
      <point x="694" y="312"/>
      <point x="651" y="312" type="qcurve" smooth="yes"/>
      <point x="608" y="312"/>
      <point x="559" y="245"/>
      <point x="559" y="185" type="qcurve" smooth="yes"/>
      <point x="559" y="125"/>
      <point x="608" y="58"/>
    </contour>
  </outline>
</glyph>
<glyph name="ampersand" format="2">
  <advance width="696"/>
  <unicode hex="0026"/>
  <outline>
    <contour>
      <point x="293" y="-9" type="qcurve" smooth="yes"/>
      <point x="221" y="-9"/>
      <point x="108" y="38"/>
      <point x="43" y="121"/>
      <point x="43" y="175" type="qcurve" smooth="yes"/>
      <point x="43" y="224"/>
      <point x="86" y="303"/>
      <point x="180" y="376"/>
      <point x="255" y="414" type="qcurve" smooth="yes"/>
      <point x="315" y="445"/>
      <point x="383" y="491"/>
      <point x="411" y="532"/>
      <point x="411" y="555" type="qcurve" smooth="yes"/>
      <point x="411" y="587"/>
      <point x="366" y="627"/>
      <point x="324" y="627" type="qcurve" smooth="yes"/>
      <point x="279" y="627"/>
      <point x="229" y="583"/>
      <point x="229" y="548" type="qcurve" smooth="yes"/>
      <point x="229" y="530"/>
      <point x="242" y="497"/>
      <point x="277" y="455"/>
      <point x="309" y="423" type="qcurve" smooth="yes"/>
      <point x="679" y="62" type="line"/>
      <point x="618" y="-11" type="line"/>
      <point x="222" y="376" type="line" smooth="yes"/>
      <point x="187" y="410"/>
      <point x="146" y="466"/>
      <point x="128" y="518"/>
      <point x="128" y="546" type="qcurve" smooth="yes"/>
      <point x="128" y="594"/>
      <point x="176" y="667"/>
      <point x="265" y="707"/>
      <point x="324" y="707" type="qcurve" smooth="yes"/>
      <point x="379" y="707"/>
      <point x="459" y="671"/>
      <point x="504" y="604"/>
      <point x="504" y="557" type="qcurve" smooth="yes"/>
      <point x="504" y="516"/>
      <point x="464" y="446"/>
      <point x="376" y="382"/>
      <point x="303" y="346" type="qcurve" smooth="yes"/>
      <point x="245" y="317"/>
      <point x="179" y="267"/>
      <point x="151" y="217"/>
      <point x="151" y="187" type="qcurve" smooth="yes"/>
      <point x="151" y="156"/>
      <point x="188" y="109"/>
      <point x="255" y="83"/>
      <point x="300" y="83" type="qcurve" smooth="yes"/>
      <point x="366" y="83"/>
      <point x="472" y="140"/>
      <point x="545" y="255"/>
      <point x="561" y="340" type="qcurve"/>
      <point x="650" y="311" type="line"/>
      <point x="630" y="210"/>
      <point x="530" y="67"/>
      <point x="384" y="-9"/>
    </contour>
  </outline>
</glyph>
<glyph name="parenleft" format="2">
  <advance width="342"/>
  <unicode hex="0028"/>
  <outline>
    <contour>
      <point x="210" y="-194" type="line"/>
      <point x="152" y="-103"/>
      <point x="90" y="136"/>
      <point x="90" y="274" type="qcurve" smooth="yes"/>
      <point x="90" y="412"/>
      <point x="152" y="653"/>
      <point x="210" y="742" type="qcurve"/>
      <point x="315" y="742" type="line"/>
      <point x="254" y="634"/>
      <point x="198" y="404"/>
      <point x="198" y="274" type="qcurve" smooth="yes"/>
      <point x="198" y="144"/>
      <point x="254" y="-86"/>
      <point x="315" y="-194" type="qcurve"/>
    </contour>
  </outline>
</glyph>
<glyph name="parenright" format="2">
  <advance width="343"/>
  <unicode hex="0029"/>
  <outline>
    <contour>
      <point x="132" y="-194" type="qcurve"/>
      <point x="27" y="-194" type="line"/>
      <point x="89" y="-86"/>
      <point x="145" y="144"/>
      <point x="145" y="274" type="qcurve" smooth="yes"/>
      <point x="145" y="404"/>
      <point x="89" y="634"/>
      <point x="27" y="742" type="qcurve"/>
      <point x="132" y="742" type="line"/>
      <point x="191" y="653"/>
      <point x="253" y="412"/>
      <point x="253" y="274" type="qcurve" smooth="yes"/>
      <point x="253" y="136"/>
      <point x="191" y="-103"/>
    </contour>
  </outline>
</glyph>
<glyph name="plus" format="2">
  <advance width="586"/>
  <unicode hex="002B"/>
  <outline>
    <contour>
      <point x="245" y="128" type="line"/>
      <point x="245" y="572" type="line"/>
      <point x="341" y="572" type="line"/>
      <point x="341" y="128" type="line"/>
    </contour>
    <contour>
      <point x="66" y="305" type="line"/>
      <point x="66" y="395" type="line"/>
      <point x="520" y="395" type="line"/>
      <point x="520" y="305" type="line"/>
    </contour>
  </outline>
</glyph>
<glyph name="hyphen" format="2">
  <advance width="384"/>
  <unicode hex="002D"/>
  <outline>
    <contour>
      <point x="56" y="229" type="line"/>
      <point x="56" y="324" type="line"/>
      <point x="328" y="324" type="line"/>
      <point x="328" y="229" type="line"/>
    </contour>
  </outline>
</glyph>
<glyph name="period" format="2">
  <advance width="235"/>
  <unicode hex="002E"/>
  <outline>
    <contour>
      <point x="118" y="-6" type="qcurve" smooth="yes"/>
      <point x="87" y="-6"/>
      <point x="43" y="37"/>
      <point x="43" y="70" type="qcurve" smooth="yes"/>
      <point x="43" y="104"/>
      <point x="87" y="146"/>
      <point x="118" y="146" type="qcurve" smooth="yes"/>
      <point x="148" y="146"/>
      <point x="192" y="104"/>
      <point x="192" y="70" type="qcurve" smooth="yes"/>
      <point x="192" y="37"/>
      <point x="148" y="-6"/>
    </contour>
  </outline>
</glyph>
<glyph name="zero" format="2">
  <advance width="670"/>
  <unicode hex="0030"/>
  <outline>
    <contour>
      <point x="335" y="-9" type="qcurve" smooth="yes"/>
      <point x="253" y="-9"/>
      <point x="122" y="75"/>
      <point x="46" y="235"/>
      <point x="46" y="350" type="qcurve" smooth="yes"/>
      <point x="46" y="465"/>
      <point x="122" y="625"/>
      <point x="253" y="709"/>
      <point x="335" y="709" type="qcurve" smooth="yes"/>
      <point x="417" y="709"/>
      <point x="548" y="625"/>
      <point x="624" y="465"/>
      <point x="624" y="350" type="qcurve" smooth="yes"/>
      <point x="624" y="235"/>
      <point x="548" y="75"/>
      <point x="417" y="-9"/>
    </contour>
    <contour>
      <point x="335" y="93" type="qcurve" smooth="yes"/>
      <point x="387" y="93"/>
      <point x="465" y="149"/>
      <point x="509" y="263"/>
      <point x="509" y="350" type="qcurve" smooth="yes"/>
      <point x="509" y="437"/>
      <point x="465" y="551"/>
      <point x="387" y="607"/>
      <point x="335" y="607" type="qcurve" smooth="yes"/>
      <point x="284" y="607"/>
      <point x="205" y="551"/>
      <point x="161" y="437"/>
      <point x="161" y="350" type="qcurve" smooth="yes"/>
      <point x="161" y="263"/>
      <point x="205" y="149"/>
      <point x="284" y="93"/>
    </contour>
  </outline>
</glyph>
<glyph name="one" format="2">
  <advance width="375"/>
  <unicode hex="0031"/>
  <outline>
    <contour>
      <point x="161" y="0" type="line"/>
      <point x="161" y="655" type="line"/>
      <point x="211" y="601" type="line"/>
      <point x="8" y="601" type="line"/>
      <point x="8" y="700" type="line"/>
      <point x="275" y="700" type="line"/>
      <point x="275" y="0" type="line"/>
    </contour>
  </outline>
</glyph>
<glyph name="two" format="2">
  <advance width="578"/>
  <unicode hex="0032"/>
  <outline>
    <contour>
      <point x="36" y="0" type="line"/>
      <point x="36" y="78" type="line"/>
      <point x="318" y="347" type="line" smooth="yes"/>
      <point x="354" y="381"/>
      <point x="390" y="434"/>
      <point x="402" y="479"/>
      <point x="402" y="499" type="qcurve" smooth="yes"/>
      <point x="402" y="550"/>
      <point x="331" y="607"/>
      <point x="262" y="607" type="qcurve" smooth="yes"/>
      <point x="208" y="607"/>
      <point x="121" y="571"/>
      <point x="89" y="533" type="qcurve"/>
      <point x="11" y="600" type="line"/>
      <point x="52" y="652"/>
      <point x="190" y="709"/>
      <point x="272" y="709" type="qcurve" smooth="yes"/>
      <point x="347" y="709"/>
      <point x="457" y="661"/>
      <point x="517" y="572"/>
      <point x="517" y="511" type="qcurve" smooth="yes"/>
      <point x="517" y="477"/>
      <point x="499" y="410"/>
      <point x="449" y="336"/>
      <point x="401" y="290" type="qcurve" smooth="yes"/>
      <point x="155" y="55" type="line"/>
      <point x="129" y="99" type="line"/>
      <point x="545" y="99" type="line"/>
      <point x="545" y="0" type="line"/>
    </contour>
  </outline>
</glyph>
<glyph name="three" format="2">
  <advance width="577"/>
  <unicode hex="0033"/>
  <outline>
    <contour>
      <point x="263" y="-9" type="qcurve" smooth="yes"/>
      <point x="189" y="-9"/>
      <point x="49" y="35"/>
      <point x="2" y="74" type="qcurve"/>
      <point x="54" y="165" type="line"/>
      <point x="91" y="133"/>
      <point x="201" y="93"/>
      <point x="262" y="93" type="qcurve" smooth="yes"/>
      <point x="336" y="93"/>
      <point x="419" y="155"/>
      <point x="419" y="207" type="qcurve" smooth="yes"/>
      <point x="419" y="258"/>
      <point x="341" y="319"/>
      <point x="256" y="319" type="qcurve" smooth="yes"/>
      <point x="196" y="319" type="line"/>
      <point x="196" y="400" type="line"/>
      <point x="399" y="646" type="line"/>
      <point x="416" y="601" type="line"/>
      <point x="36" y="601" type="line"/>
      <point x="36" y="700" type="line"/>
      <point x="506" y="700" type="line"/>
      <point x="506" y="622" type="line"/>
      <point x="303" y="376" type="line"/>
      <point x="242" y="412" type="line"/>
      <point x="278" y="412" type="line" smooth="yes"/>
      <point x="406" y="412"/>
      <point x="534" y="297"/>
      <point x="534" y="208" type="qcurve" smooth="yes"/>
      <point x="534" y="149"/>
      <point x="475" y="50"/>
      <point x="355" y="-9"/>
    </contour>
  </outline>
</glyph>
<glyph name="five" format="2">
  <advance width="579"/>
  <unicode hex="0035"/>
  <outline>
    <contour>
      <point x="275" y="-9" type="qcurve" smooth="yes"/>
      <point x="201" y="-9"/>
      <point x="61" y="35"/>
      <point x="14" y="74" type="qcurve"/>
      <point x="66" y="165" type="line"/>
      <point x="103" y="133"/>
      <point x="213" y="93"/>
      <point x="274" y="93" type="qcurve" smooth="yes"/>
      <point x="348" y="93"/>
      <point x="431" y="155"/>
      <point x="431" y="208" type="qcurve" smooth="yes"/>
      <point x="431" y="244"/>
      <point x="395" y="297"/>
      <point x="307" y="326"/>
      <point x="230" y="326" type="qcurve" smooth="yes"/>
      <point x="67" y="326" type="line"/>
      <point x="103" y="700" type="line"/>
      <point x="506" y="700" type="line"/>
      <point x="506" y="601" type="line"/>
      <point x="145" y="601" type="line"/>
      <point x="206" y="657" type="line"/>
      <point x="178" y="370" type="line"/>
      <point x="117" y="426" type="line"/>
      <point x="255" y="426" type="line" smooth="yes"/>
      <point x="359" y="426"/>
      <point x="487" y="371"/>
      <point x="546" y="275"/>
      <point x="546" y="213" type="qcurve" smooth="yes"/>
      <point x="546" y="152"/>
      <point x="487" y="51"/>
      <point x="367" y="-9"/>
    </contour>
  </outline>
</glyph>
<glyph name="six" format="2">
  <advance width="622"/>
  <unicode hex="0036"/>
  <outline>
    <contour>
      <point x="344" y="-9" type="qcurve" smooth="yes"/>
      <point x="250" y="-9"/>
      <point x="116" y="72"/>
      <point x="46" y="227"/>
      <point x="46" y="339" type="qcurve" smooth="yes"/>
      <point x="46" y="459"/>
      <point x="132" y="624"/>
      <point x="284" y="709"/>
      <point x="383" y="709" type="qcurve" smooth="yes"/>
      <point x="434" y="709"/>
      <point x="528" y="688"/>
      <point x="562" y="666" type="qcurve"/>
      <point x="519" y="577" type="line"/>
      <point x="491" y="596"/>
      <point x="423" y="611"/>
      <point x="385" y="611" type="qcurve" smooth="yes"/>
      <point x="282" y="611"/>
      <point x="161" y="484"/>
      <point x="161" y="359" type="qcurve" smooth="yes"/>
      <point x="161" y="339"/>
      <point x="164" y="285"/>
      <point x="171" y="258" type="qcurve"/>
      <point x="133" y="302" type="line"/>
      <point x="150" y="344"/>
      <point x="215" y="401"/>
      <point x="304" y="429"/>
      <point x="355" y="429" type="qcurve" smooth="yes"/>
      <point x="425" y="429"/>
      <point x="533" y="376"/>
      <point x="596" y="280"/>
      <point x="596" y="215" type="qcurve" smooth="yes"/>
      <point x="596" y="147"/>
      <point x="529" y="46"/>
      <point x="415" y="-9"/>
    </contour>
    <contour>
      <point x="339" y="84" type="qcurve" smooth="yes"/>
      <point x="382" y="84"/>
      <point x="448" y="115"/>
      <point x="485" y="172"/>
      <point x="485" y="210" type="qcurve" smooth="yes"/>
      <point x="485" y="268"/>
      <point x="404" y="336"/>
      <point x="335" y="336" type="qcurve" smooth="yes"/>
      <point x="290" y="336"/>
      <point x="222" y="303"/>
      <point x="183" y="246"/>
      <point x="183" y="209" type="qcurve" smooth="yes"/>
      <point x="183" y="175"/>
      <point x="219" y="118"/>
      <point x="289" y="84"/>
    </contour>
  </outline>
</glyph>
<glyph name="eight" format="2">
  <advance width="648"/>
  <unicode hex="0038"/>
  <outline>
    <contour>
      <point x="323" y="-9" type="qcurve" smooth="yes"/>
      <point x="237" y="-9"/>
      <point x="111" y="42"/>
      <point x="42" y="136"/>
      <point x="42" y="200" type="qcurve" smooth="yes"/>
      <point x="42" y="263"/>
      <point x="108" y="350"/>
      <point x="234" y="396"/>
      <point x="323" y="396" type="qcurve" smooth="yes"/>
      <point x="412" y="396"/>
      <point x="539" y="350"/>
      <point x="606" y="262"/>
      <point x="606" y="200" type="qcurve" smooth="yes"/>
      <point x="606" y="136"/>
      <point x="536" y="42"/>
      <point x="409" y="-9"/>
    </contour>
    <contour>
      <point x="323" y="84" type="qcurve" smooth="yes"/>
      <point x="401" y="84"/>
      <point x="491" y="148"/>
      <point x="491" y="203" type="qcurve" smooth="yes"/>
      <point x="491" y="258"/>
      <point x="401" y="321"/>
      <point x="323" y="321" type="qcurve" smooth="yes"/>
      <point x="245" y="321"/>
      <point x="157" y="258"/>
      <point x="157" y="203" type="qcurve" smooth="yes"/>
      <point x="157" y="148"/>
      <point x="245" y="84"/>
    </contour>
    <contour>
      <point x="323" y="334" type="qcurve" smooth="yes"/>
      <point x="242" y="334"/>
      <point x="128" y="377"/>
      <point x="67" y="459"/>
      <point x="67" y="516" type="qcurve" smooth="yes"/>
      <point x="67" y="576"/>
      <point x="131" y="662"/>
      <point x="247" y="709"/>
      <point x="323" y="709" type="qcurve" smooth="yes"/>
      <point x="400" y="709"/>
      <point x="516" y="662"/>
      <point x="581" y="576"/>
      <point x="581" y="516" type="qcurve" smooth="yes"/>
      <point x="581" y="459"/>
      <point x="520" y="377"/>
      <point x="404" y="334"/>
    </contour>
    <contour>
      <point x="323" y="407" type="qcurve" smooth="yes"/>
      <point x="391" y="407"/>
      <point x="468" y="463"/>
      <point x="468" y="511" type="qcurve" smooth="yes"/>
      <point x="468" y="561"/>
      <point x="388" y="616"/>
      <point x="323" y="616" type="qcurve" smooth="yes"/>
      <point x="258" y="616"/>
      <point x="180" y="561"/>
      <point x="180" y="511" type="qcurve" smooth="yes"/>
      <point x="180" y="463"/>
      <point x="256" y="407"/>
    </contour>
  </outline>
</glyph>
<glyph name="nine" format="2">
  <advance width="622"/>
  <unicode hex="0039"/>
  <outline>
    <contour>
      <point x="278" y="709" type="qcurve" smooth="yes"/>
      <point x="373" y="709"/>
      <point x="506" y="628"/>
      <point x="576" y="473"/>
      <point x="576" y="361" type="qcurve" smooth="yes"/>
      <point x="576" y="241"/>
      <point x="490" y="76"/>
      <point x="339" y="-9"/>
      <point x="239" y="-9" type="qcurve" smooth="yes"/>
      <point x="188" y="-9"/>
      <point x="95" y="12"/>
      <point x="60" y="34" type="qcurve"/>
      <point x="103" y="123" type="line"/>
      <point x="131" y="104"/>
      <point x="200" y="89"/>
      <point x="237" y="89" type="qcurve" smooth="yes"/>
      <point x="340" y="89"/>
      <point x="461" y="216"/>
      <point x="461" y="341" type="qcurve" smooth="yes"/>
      <point x="461" y="361"/>
      <point x="458" y="415"/>
      <point x="451" y="442" type="qcurve"/>
      <point x="489" y="398" type="line"/>
      <point x="473" y="356"/>
      <point x="407" y="299"/>
      <point x="319" y="271"/>
      <point x="267" y="271" type="qcurve" smooth="yes"/>
      <point x="198" y="271"/>
      <point x="89" y="324"/>
      <point x="26" y="420"/>
      <point x="26" y="485" type="qcurve" smooth="yes"/>
      <point x="26" y="554"/>
      <point x="93" y="654"/>
      <point x="208" y="709"/>
    </contour>
    <contour>
      <point x="283" y="616" type="qcurve" smooth="yes"/>
      <point x="240" y="616"/>
      <point x="174" y="585"/>
      <point x="137" y="529"/>
      <point x="137" y="490" type="qcurve" smooth="yes"/>
      <point x="137" y="432"/>
      <point x="218" y="364"/>
      <point x="287" y="364" type="qcurve" smooth="yes"/>
      <point x="332" y="364"/>
      <point x="401" y="397"/>
      <point x="439" y="455"/>
      <point x="439" y="491" type="qcurve" smooth="yes"/>
      <point x="439" y="526"/>
      <point x="403" y="582"/>
      <point x="334" y="616"/>
    </contour>
  </outline>
</glyph>
<glyph name="equal" format="2">
  <advance width="586"/>
  <unicode hex="003D"/>
  <outline>
    <contour>
      <point x="66" y="425" type="line"/>
      <point x="66" y="515" type="line"/>
      <point x="520" y="515" type="line"/>
      <point x="520" y="425" type="line"/>
    </contour>
    <contour>
      <point x="66" y="185" type="line"/>
      <point x="66" y="275" type="line"/>
      <point x="520" y="275" type="line"/>
      <point x="520" y="185" type="line"/>
    </contour>
  </outline>
</glyph>
<glyph name="question" format="2">
  <advance width="577"/>
  <unicode hex="003F"/>
  <outline>
    <contour>
      <point x="224" y="227" type="line"/>
      <point x="224" y="265"/>
      <point x="249" y="322"/>
      <point x="288" y="367"/>
      <point x="333" y="406"/>
      <point x="372" y="443"/>
      <point x="397" y="485"/>
      <point x="397" y="511" type="qcurve" smooth="yes"/>
      <point x="397" y="556"/>
      <point x="325" y="612"/>
      <point x="263" y="612" type="qcurve" smooth="yes"/>
      <point x="205" y="612"/>
      <point x="120" y="572"/>
      <point x="91" y="534" type="qcurve"/>
      <point x="7" y="593" type="line"/>
      <point x="49" y="648"/>
      <point x="182" y="709"/>
      <point x="271" y="709" type="qcurve" smooth="yes"/>
      <point x="344" y="709"/>
      <point x="452" y="666"/>
      <point x="512" y="586"/>
      <point x="512" y="529" type="qcurve" smooth="yes"/>
      <point x="512" y="488"/>
      <point x="487" y="428"/>
      <point x="448" y="382"/>
      <point x="403" y="343"/>
      <point x="364" y="304"/>
      <point x="339" y="258"/>
      <point x="339" y="227" type="qcurve"/>
    </contour>
    <contour>
      <point x="282" y="-6" type="qcurve" smooth="yes"/>
      <point x="251" y="-6"/>
      <point x="210" y="36"/>
      <point x="210" y="65" type="qcurve" smooth="yes"/>
      <point x="210" y="95"/>
      <point x="251" y="136"/>
      <point x="282" y="136" type="qcurve" smooth="yes"/>
      <point x="314" y="136"/>
      <point x="354" y="95"/>
      <point x="354" y="65" type="qcurve" smooth="yes"/>
      <point x="354" y="36"/>
      <point x="314" y="-6"/>
    </contour>
  </outline>
</glyph>
<glyph name="at" format="2">
  <advance width="1034"/>
  <unicode hex="0040"/>
  <outline>
    <contour>
      <point x="517" y="-203" type="qcurve" smooth="yes"/>
      <point x="412" y="-203"/>
      <point x="239" y="-135"/>
      <point x="114" y="-12"/>
      <point x="46" y="155"/>
      <point x="46" y="254" type="qcurve" smooth="yes"/>
      <point x="46" y="353"/>
      <point x="114" y="519"/>
      <point x="240" y="641"/>
      <point x="415" y="708"/>
      <point x="521" y="708" type="qcurve" smooth="yes"/>
      <point x="624" y="708"/>
      <point x="795" y="644"/>
      <point x="920" y="527"/>
      <point x="988" y="366"/>
      <point x="988" y="270" type="qcurve" smooth="yes"/>
      <point x="988" y="185"/>
      <point x="945" y="61"/>
      <point x="863" y="-6"/>
      <point x="803" y="-6" type="qcurve" smooth="yes"/>
      <point x="744" y="-6"/>
      <point x="674" y="65"/>
      <point x="674" y="132" type="qcurve" smooth="yes"/>
      <point x="674" y="194" type="line"/>
      <point x="679" y="253" type="line"/>
      <point x="670" y="376" type="line"/>
      <point x="670" y="499" type="line"/>
      <point x="769" y="499" type="line"/>
      <point x="769" y="150" type="line" smooth="yes"/>
      <point x="769" y="111"/>
      <point x="801" y="80"/>
      <point x="823" y="80" type="qcurve" smooth="yes"/>
      <point x="852" y="80"/>
      <point x="892" y="124"/>
      <point x="912" y="209"/>
      <point x="912" y="268" type="qcurve" smooth="yes"/>
      <point x="912" y="350"/>
      <point x="856" y="484"/>
      <point x="751" y="581"/>
      <point x="608" y="633"/>
      <point x="521" y="633" type="qcurve" smooth="yes"/>
      <point x="433" y="633"/>
      <point x="288" y="577"/>
      <point x="185" y="476"/>
      <point x="129" y="337"/>
      <point x="129" y="254" type="qcurve" smooth="yes"/>
      <point x="129" y="170"/>
      <point x="184" y="30"/>
      <point x="286" y="-71"/>
      <point x="429" y="-127"/>
      <point x="517" y="-127" type="qcurve" smooth="yes"/>
      <point x="563" y="-127"/>
      <point x="665" y="-106"/>
      <point x="710" y="-83" type="qcurve"/>
      <point x="735" y="-156" type="line"/>
      <point x="689" y="-179"/>
      <point x="571" y="-203"/>
    </contour>
    <contour>
      <point x="496" y="-6" type="qcurve" smooth="yes"/>
      <point x="425" y="-6"/>
      <point x="315" y="60"/>
      <point x="252" y="176"/>
      <point x="252" y="250" type="qcurve" smooth="yes"/>
      <point x="252" y="324"/>
      <point x="315" y="439"/>
      <point x="425" y="504"/>
      <point x="496" y="504" type="qcurve" smooth="yes"/>
      <point x="564" y="504"/>
      <point x="667" y="446"/>
      <point x="725" y="333"/>
      <point x="725" y="250" type="qcurve" smooth="yes"/>
      <point x="725" y="167"/>
      <point x="668" y="53"/>
      <point x="566" y="-6"/>
    </contour>
    <contour>
      <point x="512" y="82" type="qcurve" smooth="yes"/>
      <point x="558" y="82"/>
      <point x="630" y="122"/>
      <point x="672" y="198"/>
      <point x="672" y="250" type="qcurve" smooth="yes"/>
      <point x="672" y="303"/>
      <point x="630" y="377"/>
      <point x="558" y="416"/>
      <point x="512" y="416" type="qcurve" smooth="yes"/>
      <point x="465" y="416"/>
      <point x="393" y="376"/>
      <point x="353" y="301"/>
      <point x="353" y="250" type="qcurve" smooth="yes"/>
      <point x="353" y="199"/>
      <point x="393" y="124"/>
      <point x="465" y="82"/>
    </contour>
  </outline>
</glyph>
<glyph name="C" format="2">
  <advance width="725"/>
  <unicode hex="0043"/>
  <anchor x="422" y="701" name="t.uni0308"/>
  <anchor x="385" y="0" name="b.uni0324_3"/>
  <outline>
    <contour>
      <point x="418" y="-9" type="qcurve" smooth="yes"/>
      <point x="338" y="-9"/>
      <point x="202" y="44"/>
      <point x="102" y="141"/>
      <point x="46" y="272"/>
      <point x="46" y="350" type="qcurve" smooth="yes"/>
      <point x="46" y="428"/>
      <point x="102" y="559"/>
      <point x="203" y="656"/>
      <point x="339" y="709"/>
      <point x="419" y="709" type="qcurve" smooth="yes"/>
      <point x="502" y="709"/>
      <point x="642" y="652"/>
      <point x="690" y="596" type="qcurve"/>
      <point x="616" y="524" type="line"/>
      <point x="577" y="566"/>
      <point x="480" y="607"/>
      <point x="424" y="607" type="qcurve" smooth="yes"/>
      <point x="367" y="607"/>
      <point x="271" y="569"/>
      <point x="200" y="500"/>
      <point x="161" y="406"/>
      <point x="161" y="350" type="qcurve" smooth="yes"/>
      <point x="161" y="294"/>
      <point x="200" y="200"/>
      <point x="271" y="131"/>
      <point x="367" y="93"/>
      <point x="424" y="93" type="qcurve" smooth="yes"/>
      <point x="480" y="93"/>
      <point x="577" y="134"/>
      <point x="616" y="177" type="qcurve"/>
      <point x="690" y="105" type="line"/>
      <point x="642" y="49"/>
      <point x="502" y="-9"/>
    </contour>
  </outline>
</glyph>
<glyph name="D" format="2">
  <advance width="826"/>
  <unicode hex="0044"/>
  <anchor x="345" y="700" name="t.uni0308"/>
  <anchor x="209" y="355" name="t.uni0307_1"/>
  <anchor x="346" y="0" name="b.uni0324_3"/>
  <outline>
    <contour>
      <point x="100" y="0" type="line"/>
      <point x="100" y="700" type="line"/>
      <point x="400" y="700" type="line" smooth="yes"/>
      <point x="513" y="700"/>
      <point x="684" y="612"/>
      <point x="780" y="455"/>
      <point x="780" y="350" type="qcurve" smooth="yes"/>
      <point x="780" y="245"/>
      <point x="684" y="88"/>
      <point x="513" y="0"/>
      <point x="400" y="0" type="qcurve" smooth="yes"/>
    </contour>
    <contour>
      <point x="214" y="99" type="line"/>
      <point x="394" y="99" type="line" smooth="yes"/>
      <point x="477" y="99"/>
      <point x="598" y="162"/>
      <point x="665" y="275"/>
      <point x="665" y="350" type="qcurve" smooth="yes"/>
      <point x="665" y="426"/>
      <point x="598" y="538"/>
      <point x="477" y="601"/>
      <point x="394" y="601" type="qcurve" smooth="yes"/>
      <point x="214" y="601" type="line"/>
    </contour>
  </outline>
</glyph>
<glyph name="G" format="2">
  <advance width="772"/>
  <unicode hex="0047"/>
  <anchor x="434" y="702" name="t.uni0308"/>
  <anchor x="413" y="0" name="b.uni0324_3"/>
  <outline>
    <contour>
      <point x="421" y="-9" type="qcurve" smooth="yes"/>
      <point x="340" y="-9"/>
      <point x="203" y="44"/>
      <point x="102" y="141"/>
      <point x="46" y="272"/>
      <point x="46" y="350" type="qcurve" smooth="yes"/>
      <point x="46" y="428"/>
      <point x="102" y="559"/>
      <point x="204" y="656"/>
      <point x="341" y="709"/>
      <point x="423" y="709" type="qcurve" smooth="yes"/>
      <point x="509" y="709"/>
      <point x="649" y="653"/>
      <point x="698" y="598" type="qcurve"/>
      <point x="626" y="526" type="line"/>
      <point x="584" y="568"/>
      <point x="486" y="607"/>
      <point x="428" y="607" type="qcurve" smooth="yes"/>
      <point x="370" y="607"/>
      <point x="272" y="569"/>
      <point x="200" y="500"/>
      <point x="161" y="406"/>
      <point x="161" y="350" type="qcurve" smooth="yes"/>
      <point x="161" y="295"/>
      <point x="200" y="201"/>
      <point x="272" y="131"/>
      <point x="369" y="93"/>
      <point x="427" y="93" type="qcurve" smooth="yes"/>
      <point x="481" y="93"/>
      <point x="581" y="127"/>
      <point x="625" y="167" type="qcurve"/>
      <point x="690" y="80" type="line"/>
      <point x="637" y="36"/>
      <point x="495" y="-9"/>
    </contour>
    <contour>
      <point x="580" y="95" type="line"/>
      <point x="580" y="356" type="line"/>
      <point x="690" y="356" type="line"/>
      <point x="690" y="80" type="line"/>
    </contour>
  </outline>
</glyph>
<glyph name="J" format="2">
  <advance width="520"/>
  <unicode hex="004A"/>
  <anchor x="323" y="700" name="t.uni0308"/>
  <outline>
    <contour>
      <point x="198" y="-9" type="qcurve" smooth="yes"/>
      <point x="134" y="-9"/>
      <point x="24" y="43"/>
      <point x="-11" y="92" type="qcurve"/>
      <point x="55" y="171" type="line"/>
      <point x="84" y="131"/>
      <point x="155" y="90"/>
      <point x="198" y="90" type="qcurve" smooth="yes"/>
      <point x="312" y="90"/>
      <point x="312" y="225" type="qcurve" smooth="yes"/>
      <point x="312" y="601" type="line"/>
      <point x="61" y="601" type="line"/>
      <point x="61" y="700" type="line"/>
      <point x="426" y="700" type="line"/>
      <point x="426" y="231" type="line" smooth="yes"/>
      <point x="426" y="110"/>
      <point x="310" y="-9"/>
    </contour>
  </outline>
</glyph>
<glyph name="Q" format="2">
  <advance width="841"/>
  <unicode hex="0051"/>
  <anchor x="428" y="700" name="t.uni0308"/>
  <outline>
    <contour>
      <point x="421" y="-9" type="qcurve" smooth="yes"/>
      <point x="340" y="-9"/>
      <point x="203" y="45"/>
      <point x="102" y="142"/>
      <point x="46" y="273"/>
      <point x="46" y="350" type="qcurve" smooth="yes"/>
      <point x="46" y="427"/>
      <point x="102" y="558"/>
      <point x="203" y="655"/>
      <point x="340" y="709"/>
      <point x="421" y="709" type="qcurve" smooth="yes"/>
      <point x="502" y="709"/>
      <point x="638" y="656"/>
      <point x="739" y="559"/>
      <point x="795" y="428"/>
      <point x="795" y="350" type="qcurve" smooth="yes"/>
      <point x="795" y="272"/>
      <point x="739" y="141"/>
      <point x="638" y="44"/>
      <point x="502" y="-9"/>
    </contour>
    <contour>
      <point x="650" y="-150" type="qcurve" smooth="yes"/>
      <point x="614" y="-150"/>
      <point x="548" y="-133"/>
      <point x="482" y="-95"/>
      <point x="412" y="-34"/>
      <point x="371" y="11" type="qcurve"/>
      <point x="493" y="43" type="line"/>
      <point x="522" y="6"/>
      <point x="575" y="-40"/>
      <point x="626" y="-60"/>
      <point x="652" y="-60" type="qcurve" smooth="yes"/>
      <point x="724" y="-60"/>
      <point x="776" y="-2" type="qcurve"/>
      <point x="829" y="-67" type="line"/>
      <point x="760" y="-150"/>
    </contour>
    <contour>
      <point x="421" y="93" type="qcurve" smooth="yes"/>
      <point x="477" y="93"/>
      <point x="571" y="131"/>
      <point x="641" y="201"/>
      <point x="680" y="295"/>
      <point x="680" y="350" type="qcurve" smooth="yes"/>
      <point x="680" y="406"/>
      <point x="641" y="499"/>
      <point x="571" y="569"/>
      <point x="477" y="607"/>
      <point x="421" y="607" type="qcurve" smooth="yes"/>
      <point x="365" y="607"/>
      <point x="270" y="569"/>
      <point x="200" y="499"/>
      <point x="161" y="406"/>
      <point x="161" y="350" type="qcurve" smooth="yes"/>
      <point x="161" y="295"/>
      <point x="200" y="201"/>
      <point x="270" y="131"/>
      <point x="365" y="93"/>
    </contour>
  </outline>
</glyph>
<glyph name="R" format="2">
  <advance width="729"/>
  <unicode hex="0052"/>
  <anchor x="385" y="700" name="t.uni0308"/>
  <anchor x="385" y="0" name="b.uni0324_3"/>
  <outline>
    <contour>
      <point x="100" y="0" type="line"/>
      <point x="100" y="700" type="line"/>
      <point x="380" y="700" type="line" smooth="yes"/>
      <point x="472" y="700"/>
      <point x="604" y="641"/>
      <point x="675" y="530"/>
      <point x="675" y="453" type="qcurve" smooth="yes"/>
      <point x="675" y="377"/>
      <point x="604" y="267"/>
      <point x="472" y="208"/>
      <point x="380" y="208" type="qcurve" smooth="yes"/>
      <point x="163" y="208" type="line"/>
      <point x="214" y="261" type="line"/>
      <point x="214" y="0" type="line"/>
    </contour>
    <contour>
      <point x="563" y="0" type="line"/>
      <point x="385" y="254" type="line"/>
      <point x="508" y="254" type="line"/>
      <point x="687" y="0" type="line"/>
    </contour>
    <contour>
      <point x="214" y="249" type="line"/>
      <point x="163" y="305" type="line"/>
      <point x="376" y="305" type="line" smooth="yes"/>
      <point x="467" y="305"/>
      <point x="560" y="383"/>
      <point x="560" y="453" type="qcurve" smooth="yes"/>
      <point x="560" y="524"/>
      <point x="467" y="601"/>
      <point x="376" y="601" type="qcurve" smooth="yes"/>
      <point x="163" y="601" type="line"/>
      <point x="214" y="658" type="line"/>
    </contour>
  </outline>
</glyph>
<glyph name="U" format="2">
  <advance width="790"/>
  <unicode hex="0055"/>
  <anchor x="393" y="700" name="t.uni0308"/>
  <anchor x="626" y="700" name="t.uni031B_2"/>
  <anchor x="393" y="0" name="b.uni0324_3"/>
  <anchor x="636" y="0" name="m.uni0328_4"/>
  <outline>
    <contour>
      <point x="395" y="-9" type="qcurve" smooth="yes"/>
      <point x="254" y="-9"/>
      <point x="94" y="151"/>
      <point x="94" y="304" type="qcurve" smooth="yes"/>
      <point x="94" y="700" type="line"/>
      <point x="208" y="700" type="line"/>
      <point x="208" y="308" type="line" smooth="yes"/>
      <point x="208" y="196"/>
      <point x="306" y="93"/>
      <point x="396" y="93" type="qcurve" smooth="yes"/>
      <point x="486" y="93"/>
      <point x="584" y="196"/>
      <point x="584" y="308" type="qcurve" smooth="yes"/>
      <point x="584" y="700" type="line"/>
      <point x="696" y="700" type="line"/>
      <point x="696" y="304" type="line" smooth="yes"/>
      <point x="696" y="151"/>
      <point x="536" y="-9"/>
    </contour>
  </outline>
</glyph>
<glyph name="W" format="2">
  <advance width="1135"/>
  <unicode hex="0057"/>
  <anchor x="631" y="700" name="t.uni0308"/>
  <anchor x="631" y="0" name="b.uni0324_3"/>
  <outline>
    <contour>
      <point x="263" y="0" type="line"/>
      <point x="30" y="700" type="line"/>
      <point x="148" y="700" type="line"/>
      <point x="359" y="61" type="line"/>
      <point x="300" y="61" type="line"/>
      <point x="519" y="700" type="line"/>
      <point x="625" y="700" type="line"/>
      <point x="838" y="61" type="line"/>
      <point x="781" y="61" type="line"/>
      <point x="996" y="700" type="line"/>
      <point x="1105" y="700" type="line"/>
      <point x="872" y="0" type="line"/>
      <point x="751" y="0" type="line"/>
      <point x="553" y="584" type="line"/>
      <point x="585" y="584" type="line"/>
      <point x="385" y="0" type="line"/>
    </contour>
  </outline>
</glyph>
<glyph name="bracketleft" format="2">
  <advance width="341"/>
  <unicode hex="005B"/>
  <outline>
    <contour>
      <point x="100" y="-194" type="line"/>
      <point x="100" y="742" type="line"/>
      <point x="323" y="742" type="line"/>
      <point x="323" y="652" type="line"/>
      <point x="210" y="652" type="line"/>
      <point x="210" y="-104" type="line"/>
      <point x="323" y="-104" type="line"/>
      <point x="323" y="-194" type="line"/>
    </contour>
  </outline>
</glyph>
<glyph name="bracketright" format="2">
  <advance width="341"/>
  <unicode hex="005D"/>
  <outline>
    <contour>
      <point x="241" y="-194" type="line"/>
      <point x="18" y="-194" type="line"/>
      <point x="18" y="-104" type="line"/>
      <point x="131" y="-104" type="line"/>
      <point x="131" y="652" type="line"/>
      <point x="18" y="652" type="line"/>
      <point x="18" y="742" type="line"/>
      <point x="241" y="742" type="line"/>
    </contour>
  </outline>
</glyph>
<glyph name="b" format="2">
  <advance width="684"/>
  <unicode hex="0062"/>
  <outline>
    <contour>
      <point x="373" y="-6" type="qcurve" smooth="yes"/>
      <point x="306" y="-6"/>
      <point x="197" y="53"/>
      <point x="134" y="174"/>
      <point x="134" y="266" type="qcurve" smooth="yes"/>
      <point x="134" y="359"/>
      <point x="199" y="479"/>
      <point x="308" y="538"/>
      <point x="373" y="538" type="qcurve" smooth="yes"/>
      <point x="452" y="538"/>
      <point x="574" y="470"/>
      <point x="644" y="348"/>
      <point x="644" y="266" type="qcurve" smooth="yes"/>
      <point x="644" y="184"/>
      <point x="574" y="62"/>
      <point x="452" y="-6"/>
    </contour>
    <contour>
      <point x="87" y="0" type="line"/>
      <point x="87" y="742" type="line"/>
      <point x="197" y="742" type="line"/>
      <point x="197" y="400" type="line"/>
      <point x="187" y="267" type="line"/>
      <point x="192" y="134" type="line"/>
      <point x="192" y="0" type="line"/>
    </contour>
    <contour>
      <point x="364" y="90" type="qcurve" smooth="yes"/>
      <point x="412" y="90"/>
      <point x="488" y="133"/>
      <point x="533" y="213"/>
      <point x="533" y="266" type="qcurve" smooth="yes"/>
      <point x="533" y="320"/>
      <point x="488" y="399"/>
      <point x="412" y="442"/>
      <point x="364" y="442" type="qcurve" smooth="yes"/>
      <point x="316" y="442"/>
      <point x="240" y="399"/>
      <point x="195" y="320"/>
      <point x="195" y="266" type="qcurve" smooth="yes"/>
      <point x="195" y="213"/>
      <point x="240" y="133"/>
      <point x="316" y="90"/>
    </contour>
  </outline>
</glyph>
<glyph name="c" format="2">
  <advance width="576"/>
  <unicode hex="0063"/>
  <anchor x="338" y="562" name="t.uni0308"/>
  <anchor x="327" y="0" name="b.uni0324_3"/>
  <outline>
    <contour>
      <point x="324" y="-6" type="qcurve" smooth="yes"/>
      <point x="242" y="-6"/>
      <point x="113" y="64"/>
      <point x="40" y="187"/>
      <point x="40" y="266" type="qcurve" smooth="yes"/>
      <point x="40" y="346"/>
      <point x="113" y="468"/>
      <point x="242" y="538"/>
      <point x="324" y="538" type="qcurve" smooth="yes"/>
      <point x="399" y="538"/>
      <point x="515" y="478"/>
      <point x="546" y="419" type="qcurve"/>
      <point x="462" y="367" type="line"/>
      <point x="437" y="405"/>
      <point x="365" y="442"/>
      <point x="323" y="442" type="qcurve" smooth="yes"/>
      <point x="274" y="442"/>
      <point x="196" y="399"/>
      <point x="151" y="320"/>
      <point x="151" y="266" type="qcurve" smooth="yes"/>
      <point x="151" y="212"/>
      <point x="196" y="133"/>
      <point x="274" y="90"/>
      <point x="323" y="90" type="qcurve" smooth="yes"/>
      <point x="365" y="90"/>
      <point x="437" y="126"/>
      <point x="462" y="165" type="qcurve"/>
      <point x="546" y="113" type="line"/>
      <point x="515" y="55"/>
      <point x="399" y="-6"/>
    </contour>
  </outline>
</glyph>
<glyph name="e" format="2">
  <advance width="617"/>
  <unicode hex="0065"/>
  <anchor x="342" y="562" name="t.uni0308"/>
  <anchor x="342" y="0" name="b.uni0324_3"/>
  <anchor x="584" y="0" name="m.uni0328_4"/>
  <outline>
    <contour>
      <point x="330" y="-6" type="qcurve" smooth="yes"/>
      <point x="243" y="-6"/>
      <point x="112" y="64"/>
      <point x="40" y="187"/>
      <point x="40" y="266" type="qcurve" smooth="yes"/>
      <point x="40" y="345"/>
      <point x="110" y="468"/>
      <point x="233" y="538"/>
      <point x="311" y="538" type="qcurve" smooth="yes"/>
      <point x="389" y="538"/>
      <point x="509" y="469"/>
      <point x="577" y="345"/>
      <point x="577" y="262" type="qcurve" smooth="yes"/>
      <point x="577" y="255"/>
      <point x="576" y="236"/>
      <point x="575" y="228" type="qcurve"/>
      <point x="127" y="228" type="line"/>
      <point x="127" y="307" type="line"/>
      <point x="517" y="307" type="line"/>
      <point x="473" y="281" type="line"/>
      <point x="474" y="329"/>
      <point x="432" y="403"/>
      <point x="359" y="445"/>
      <point x="311" y="445" type="qcurve" smooth="yes"/>
      <point x="263" y="445"/>
      <point x="189" y="403"/>
      <point x="148" y="328"/>
      <point x="148" y="278" type="qcurve" smooth="yes"/>
      <point x="148" y="260" type="line" smooth="yes"/>
      <point x="148" y="210"/>
      <point x="194" y="133"/>
      <point x="278" y="90"/>
      <point x="333" y="90" type="qcurve" smooth="yes"/>
      <point x="379" y="90"/>
      <point x="454" y="120"/>
      <point x="482" y="151" type="qcurve"/>
      <point x="542" y="80" type="line"/>
      <point x="506" y="38"/>
      <point x="398" y="-6"/>
    </contour>
  </outline>
</glyph>
<glyph name="f" format="2">
  <advance width="361"/>
  <unicode hex="0066"/>
  <outline>
    <contour>
      <point x="102" y="0" type="line"/>
      <point x="102" y="570" type="line" smooth="yes"/>
      <point x="102" y="651"/>
      <point x="197" y="748"/>
      <point x="286" y="748" type="qcurve" smooth="yes"/>
      <point x="318" y="748"/>
      <point x="375" y="734"/>
      <point x="395" y="719" type="qcurve"/>
      <point x="363" y="635" type="line"/>
      <point x="349" y="646"/>
      <point x="312" y="658"/>
      <point x="292" y="658" type="qcurve" smooth="yes"/>
      <point x="251" y="658"/>
      <point x="209" y="613"/>
      <point x="209" y="569" type="qcurve" smooth="yes"/>
      <point x="209" y="503" type="line"/>
      <point x="212" y="453" type="line"/>
      <point x="212" y="0" type="line"/>
    </contour>
    <contour>
      <point x="13" y="442" type="line"/>
      <point x="13" y="532" type="line"/>
      <point x="360" y="532" type="line"/>
      <point x="360" y="442" type="line"/>
    </contour>
  </outline>
</glyph>
<glyph name="g" format="2">
  <advance width="692"/>
  <unicode hex="0067"/>
  <anchor x="372" y="562" name="t.uni0308"/>
  <outline>
    <contour>
      <point x="323" y="-200" type="qcurve" smooth="yes"/>
      <point x="250" y="-200"/>
      <point x="110" y="-161"/>
      <point x="65" y="-123" type="qcurve"/>
      <point x="118" y="-38" type="line"/>
      <point x="154" y="-68"/>
      <point x="262" y="-104"/>
      <point x="319" y="-104" type="qcurve" smooth="yes"/>
      <point x="410" y="-104"/>
      <point x="495" y="-20"/>
      <point x="495" y="65" type="qcurve" smooth="yes"/>
      <point x="495" y="168" type="line"/>
      <point x="505" y="281" type="line"/>
      <point x="500" y="395" type="line"/>
      <point x="500" y="532" type="line"/>
      <point x="605" y="532" type="line"/>
      <point x="605" y="77" type="line" smooth="yes"/>
      <point x="605" y="-66"/>
      <point x="461" y="-200"/>
    </contour>
    <contour>
      <point x="312" y="23" type="qcurve" smooth="yes"/>
      <point x="234" y="23"/>
      <point x="111" y="88"/>
      <point x="40" y="204"/>
      <point x="40" y="281" type="qcurve" smooth="yes"/>
      <point x="40" y="358"/>
      <point x="111" y="474"/>
      <point x="234" y="538"/>
      <point x="312" y="538" type="qcurve" smooth="yes"/>
      <point x="379" y="538"/>
      <point x="490" y="484"/>
      <point x="558" y="370"/>
      <point x="558" y="281" type="qcurve" smooth="yes"/>
      <point x="558" y="192"/>
      <point x="490" y="78"/>
      <point x="379" y="23"/>
    </contour>
    <contour>
      <point x="324" y="119" type="qcurve" smooth="yes"/>
      <point x="375" y="119"/>
      <point x="453" y="160"/>
      <point x="497" y="233"/>
      <point x="497" y="281" type="qcurve" smooth="yes"/>
      <point x="497" y="329"/>
      <point x="453" y="402"/>
      <point x="375" y="442"/>
      <point x="324" y="442" type="qcurve" smooth="yes"/>
      <point x="274" y="442"/>
      <point x="195" y="402"/>
      <point x="151" y="329"/>
      <point x="151" y="281" type="qcurve" smooth="yes"/>
      <point x="151" y="233"/>
      <point x="195" y="160"/>
      <point x="274" y="119"/>
    </contour>
  </outline>
</glyph>
<glyph name="m" format="2">
  <advance width="1055"/>
  <unicode hex="006D"/>
  <anchor x="511" y="0" name="b.uni0324_3"/>
  <outline>
    <contour>
      <point x="753" y="538" type="qcurve" smooth="yes"/>
      <point x="818" y="538"/>
      <point x="917" y="488"/>
      <point x="973" y="385"/>
      <point x="973" y="305" type="qcurve" smooth="yes"/>
      <point x="973" y="0" type="line"/>
      <point x="863" y="0" type="line"/>
      <point x="863" y="292" type="line" smooth="yes"/>
      <point x="863" y="366"/>
      <point x="796" y="440"/>
      <point x="734" y="440" type="qcurve" smooth="yes"/>
      <point x="690" y="440"/>
      <point x="622" y="402"/>
      <point x="585" y="328"/>
      <point x="585" y="272" type="qcurve" smooth="yes"/>
      <point x="585" y="0" type="line"/>
      <point x="475" y="0" type="line"/>
      <point x="475" y="292" type="line" smooth="yes"/>
      <point x="475" y="366"/>
      <point x="408" y="440"/>
      <point x="346" y="440" type="qcurve" smooth="yes"/>
      <point x="302" y="440"/>
      <point x="234" y="402"/>
      <point x="197" y="328"/>
      <point x="197" y="272" type="qcurve" smooth="yes"/>
      <point x="197" y="0" type="line"/>
      <point x="87" y="0" type="line"/>
      <point x="87" y="532" type="line"/>
      <point x="192" y="532" type="line"/>
      <point x="192" y="392" type="line"/>
      <point x="174" y="434" type="line"/>
      <point x="200" y="484"/>
      <point x="303" y="538"/>
      <point x="370" y="538" type="qcurve" smooth="yes"/>
      <point x="445" y="538"/>
      <point x="556" y="464"/>
      <point x="574" y="389" type="qcurve"/>
      <point x="528" y="407" type="line"/>
      <point x="553" y="466"/>
      <point x="674" y="538"/>
    </contour>
  </outline>
</glyph>
<glyph name="p" format="2">
  <advance width="684"/>
  <unicode hex="0070"/>
  <anchor x="360" y="562" name="t.uni0308"/>
  <anchor x="435" y="0" name="b.uni0324_3"/>
  <outline>
    <contour>
      <point x="373" y="-6" type="qcurve" smooth="yes"/>
      <point x="308" y="-6"/>
      <point x="199" y="53"/>
      <point x="134" y="174"/>
      <point x="134" y="266" type="qcurve" smooth="yes"/>
      <point x="134" y="359"/>
      <point x="197" y="479"/>
      <point x="306" y="538"/>
      <point x="373" y="538" type="qcurve" smooth="yes"/>
      <point x="452" y="538"/>
      <point x="574" y="470"/>
      <point x="644" y="348"/>
      <point x="644" y="266" type="qcurve" smooth="yes"/>
      <point x="644" y="184"/>
      <point x="574" y="62"/>
      <point x="452" y="-6"/>
    </contour>
    <contour>
      <point x="87" y="-194" type="line"/>
      <point x="87" y="532" type="line"/>
      <point x="192" y="532" type="line"/>
      <point x="192" y="398" type="line"/>
      <point x="187" y="265" type="line"/>
      <point x="197" y="132" type="line"/>
      <point x="197" y="-194" type="line"/>
    </contour>
    <contour>
      <point x="364" y="90" type="qcurve" smooth="yes"/>
      <point x="412" y="90"/>
      <point x="488" y="133"/>
      <point x="533" y="213"/>
      <point x="533" y="266" type="qcurve" smooth="yes"/>
      <point x="533" y="320"/>
      <point x="488" y="399"/>
      <point x="412" y="442"/>
      <point x="364" y="442" type="qcurve" smooth="yes"/>
      <point x="316" y="442"/>
      <point x="240" y="399"/>
      <point x="195" y="320"/>
      <point x="195" y="266" type="qcurve" smooth="yes"/>
      <point x="195" y="213"/>
      <point x="240" y="133"/>
      <point x="316" y="90"/>
    </contour>
  </outline>
</glyph>
<glyph name="q" format="2">
  <advance width="684"/>
  <unicode hex="0071"/>
  <anchor x="354" y="562" name="t.uni0308"/>
  <anchor x="281" y="0" name="b.uni0324_3"/>
  <outline>
    <contour>
      <point x="311" y="-6" type="qcurve" smooth="yes"/>
      <point x="233" y="-6"/>
      <point x="110" y="62"/>
      <point x="40" y="184"/>
      <point x="40" y="266" type="qcurve" smooth="yes"/>
      <point x="40" y="348"/>
      <point x="110" y="470"/>
      <point x="233" y="538"/>
      <point x="311" y="538" type="qcurve" smooth="yes"/>
      <point x="379" y="538"/>
      <point x="487" y="479"/>
      <point x="550" y="359"/>
      <point x="550" y="266" type="qcurve" smooth="yes"/>
      <point x="550" y="174"/>
      <point x="485" y="53"/>
      <point x="377" y="-6"/>
    </contour>
    <contour>
      <point x="320" y="90" type="qcurve" smooth="yes"/>
      <point x="368" y="90"/>
      <point x="444" y="133"/>
      <point x="489" y="213"/>
      <point x="489" y="266" type="qcurve" smooth="yes"/>
      <point x="489" y="320"/>
      <point x="444" y="399"/>
      <point x="368" y="442"/>
      <point x="320" y="442" type="qcurve" smooth="yes"/>
      <point x="272" y="442"/>
      <point x="196" y="399"/>
      <point x="151" y="320"/>
      <point x="151" y="266" type="qcurve" smooth="yes"/>
      <point x="151" y="213"/>
      <point x="196" y="133"/>
      <point x="272" y="90"/>
    </contour>
    <contour>
      <point x="487" y="-194" type="line"/>
      <point x="487" y="132" type="line"/>
      <point x="497" y="265" type="line"/>
      <point x="492" y="398" type="line"/>
      <point x="492" y="532" type="line"/>
      <point x="597" y="532" type="line"/>
      <point x="597" y="-194" type="line"/>
    </contour>
  </outline>
</glyph>
<glyph name="r" format="2">
  <advance width="415"/>
  <unicode hex="0072"/>
  <anchor x="253" y="562" name="t.uni0308"/>
  <anchor x="180" y="0" name="b.uni0324_3"/>
  <outline>
    <contour>
      <point x="87" y="0" type="line"/>
      <point x="87" y="532" type="line"/>
      <point x="192" y="532" type="line"/>
      <point x="192" y="388" type="line"/>
      <point x="181" y="430" type="line"/>
      <point x="204" y="483"/>
      <point x="307" y="538"/>
      <point x="383" y="538" type="qcurve"/>
      <point x="383" y="431" type="line"/>
      <point x="376" y="432"/>
      <point x="364" y="433"/>
      <point x="358" y="433" type="qcurve" smooth="yes"/>
      <point x="284" y="433"/>
      <point x="197" y="346"/>
      <point x="197" y="261" type="qcurve" smooth="yes"/>
      <point x="197" y="0" type="line"/>
    </contour>
  </outline>
</glyph>
<glyph name="u" format="2">
  <advance width="679"/>
  <unicode hex="0075"/>
  <anchor x="356" y="562" name="t.uni0308"/>
  <anchor x="533" y="562" name="t.uni031B_2"/>
  <anchor x="356" y="0" name="b.uni0324_3"/>
  <anchor x="691" y="0" name="m.uni0328_4"/>
  <outline>
    <contour>
      <point x="313" y="-6" type="qcurve" smooth="yes"/>
      <point x="244" y="-6"/>
      <point x="140" y="44"/>
      <point x="82" y="148"/>
      <point x="82" y="227" type="qcurve" smooth="yes"/>
      <point x="82" y="532" type="line"/>
      <point x="192" y="532" type="line"/>
      <point x="192" y="240" type="line" smooth="yes"/>
      <point x="192" y="166"/>
      <point x="262" y="92"/>
      <point x="326" y="92" type="qcurve" smooth="yes"/>
      <point x="373" y="92"/>
      <point x="443" y="130"/>
      <point x="482" y="205"/>
      <point x="482" y="260" type="qcurve" smooth="yes"/>
      <point x="482" y="532" type="line"/>
      <point x="592" y="532" type="line"/>
      <point x="592" y="0" type="line"/>
      <point x="487" y="0" type="line"/>
      <point x="487" y="142" type="line"/>
      <point x="505" y="98" type="line"/>
      <point x="478" y="48"/>
      <point x="375" y="-6"/>
    </contour>
  </outline>
</glyph>
<glyph name="v" format="2">
  <advance width="568"/>
  <unicode hex="0076"/>
  <anchor x="352" y="562" name="t.uni0308"/>
  <anchor x="352" y="0" name="b.uni0324_3"/>
  <outline>
    <contour>
      <point x="227" y="0" type="line"/>
      <point x="-3" y="532" type="line"/>
      <point x="111" y="532" type="line"/>
      <point x="313" y="57" type="line"/>
      <point x="257" y="57" type="line"/>
      <point x="464" y="532" type="line"/>
      <point x="571" y="532" type="line"/>
      <point x="340" y="0" type="line"/>
    </contour>
  </outline>
</glyph>
<glyph name="w" format="2">
  <advance width="910"/>
  <unicode hex="0077"/>
  <anchor x="522" y="560" name="t.uni0308"/>
  <anchor x="522" y="0" name="b.uni0324_3"/>
  <outline>
    <contour>
      <point x="202" y="0" type="line"/>
      <point x="5" y="532" type="line"/>
      <point x="109" y="532" type="line"/>
      <point x="281" y="57" type="line"/>
      <point x="232" y="57" type="line"/>
      <point x="411" y="532" type="line"/>
      <point x="504" y="532" type="line"/>
      <point x="679" y="57" type="line"/>
      <point x="630" y="57" type="line"/>
      <point x="807" y="532" type="line"/>
      <point x="905" y="532" type="line"/>
      <point x="707" y="0" type="line"/>
      <point x="602" y="0" type="line"/>
      <point x="440" y="427" type="line"/>
      <point x="472" y="427" type="line"/>
      <point x="307" y="0" type="line"/>
    </contour>
  </outline>
</glyph>
<glyph name="y" format="2">
  <advance width="568"/>
  <unicode hex="0079"/>
  <anchor x="345" y="562" name="t.uni0308"/>
  <anchor x="608" y="0" name="b.uni0324_3"/>
  <outline>
    <contour>
      <point x="120" y="-200" type="qcurve" smooth="yes"/>
      <point x="81" y="-200"/>
      <point x="6" y="-175"/>
      <point x="-20" y="-151" type="qcurve"/>
      <point x="26" y="-69" type="line"/>
      <point x="45" y="-87"/>
      <point x="94" y="-107"/>
      <point x="120" y="-107" type="qcurve" smooth="yes"/>
      <point x="154" y="-107"/>
      <point x="198" y="-72"/>
      <point x="217" y="-29" type="qcurve" smooth="yes"/>
      <point x="249" y="42" type="line"/>
      <point x="259" y="56" type="line"/>
      <point x="464" y="532" type="line"/>
      <point x="571" y="532" type="line"/>
      <point x="317" y="-48" type="line"/>
      <point x="293" y="-106"/>
      <point x="234" y="-173"/>
      <point x="163" y="-200"/>
    </contour>
    <contour>
      <point x="238" y="-18" type="line"/>
      <point x="-3" y="532" type="line"/>
      <point x="111" y="532" type="line"/>
      <point x="312" y="66" type="line"/>
    </contour>
  </outline>
</glyph>
<glyph name="braceleft" format="2">
  <advance width="360"/>
  <unicode hex="007B"/>
  <outline>
    <contour>
      <point x="295" y="-194" type="line" smooth="yes"/>
      <point x="216" y="-194"/>
      <point x="135" y="-114"/>
      <point x="135" y="-38" type="qcurve" smooth="yes"/>
      <point x="135" y="179" type="line" smooth="yes"/>
      <point x="135" y="205"/>
      <point x="111" y="228"/>
      <point x="90" y="228" type="qcurve" smooth="yes"/>
      <point x="56" y="228" type="line"/>
      <point x="56" y="320" type="line"/>
      <point x="90" y="320" type="line" smooth="yes"/>
      <point x="111" y="320"/>
      <point x="135" y="344"/>
      <point x="135" y="369" type="qcurve" smooth="yes"/>
      <point x="135" y="586" type="line" smooth="yes"/>
      <point x="135" y="663"/>
      <point x="216" y="742"/>
      <point x="295" y="742" type="qcurve" smooth="yes"/>
      <point x="342" y="742" type="line"/>
      <point x="342" y="652" type="line"/>
      <point x="319" y="652" type="line" smooth="yes"/>
      <point x="282" y="652"/>
      <point x="245" y="612"/>
      <point x="245" y="575" type="qcurve" smooth="yes"/>
      <point x="245" y="371" type="line" smooth="yes"/>
      <point x="245" y="334"/>
      <point x="226" y="292"/>
      <point x="187" y="272"/>
      <point x="156" y="267" type="qcurve"/>
      <point x="156" y="281" type="line"/>
      <point x="187" y="277"/>
      <point x="226" y="256"/>
      <point x="245" y="214"/>
      <point x="245" y="177" type="qcurve" smooth="yes"/>
      <point x="245" y="-27" type="line" smooth="yes"/>
      <point x="245" y="-64"/>
      <point x="282" y="-104"/>
      <point x="319" y="-104" type="qcurve" smooth="yes"/>
      <point x="342" y="-104" type="line"/>
      <point x="342" y="-194" type="line"/>
    </contour>
  </outline>
</glyph>
<glyph name="braceright" format="2">
  <advance width="360"/>
  <unicode hex="007D"/>
  <outline>
    <contour>
      <point x="65" y="-194" type="qcurve" smooth="yes"/>
      <point x="18" y="-194" type="line"/>
      <point x="18" y="-104" type="line"/>
      <point x="41" y="-104" type="line" smooth="yes"/>
      <point x="79" y="-104"/>
      <point x="116" y="-64"/>
      <point x="116" y="-27" type="qcurve" smooth="yes"/>
      <point x="116" y="177" type="line" smooth="yes"/>
      <point x="116" y="214"/>
      <point x="135" y="256"/>
      <point x="174" y="277"/>
      <point x="204" y="281" type="qcurve"/>
      <point x="204" y="267" type="line"/>
      <point x="174" y="272"/>
      <point x="135" y="292"/>
      <point x="116" y="334"/>
      <point x="116" y="371" type="qcurve" smooth="yes"/>
      <point x="116" y="575" type="line" smooth="yes"/>
      <point x="116" y="612"/>
      <point x="79" y="652"/>
      <point x="41" y="652" type="qcurve" smooth="yes"/>
      <point x="18" y="652" type="line"/>
      <point x="18" y="742" type="line"/>
      <point x="65" y="742" type="line" smooth="yes"/>
      <point x="145" y="742"/>
      <point x="226" y="663"/>
      <point x="226" y="586" type="qcurve" smooth="yes"/>
      <point x="226" y="369" type="line" smooth="yes"/>
      <point x="226" y="344"/>
      <point x="250" y="320"/>
      <point x="270" y="320" type="qcurve" smooth="yes"/>
      <point x="304" y="320" type="line"/>
      <point x="304" y="228" type="line"/>
      <point x="270" y="228" type="line" smooth="yes"/>
      <point x="250" y="228"/>
      <point x="226" y="205"/>
      <point x="226" y="179" type="qcurve" smooth="yes"/>
      <point x="226" y="-38" type="line" smooth="yes"/>
      <point x="226" y="-114"/>
      <point x="145" y="-194"/>
    </contour>
  </outline>
</glyph>
<glyph name="asciitilde" format="2">
  <advance width="586"/>
  <unicode hex="007E"/>
  <outline>
    <contour>
      <point x="394" y="261" type="qcurve" smooth="yes"/>
      <point x="358" y="261"/>
      <point x="303" y="290"/>
      <point x="258" y="327"/>
      <point x="218" y="356"/>
      <point x="196" y="356" type="qcurve" smooth="yes"/>
      <point x="165" y="356"/>
      <point x="129" y="309"/>
      <point x="127" y="269" type="qcurve"/>
      <point x="56" y="269" type="line"/>
      <point x="58" y="357"/>
      <point x="134" y="440"/>
      <point x="192" y="440" type="qcurve" smooth="yes"/>
      <point x="228" y="440"/>
      <point x="283" y="411"/>
      <point x="328" y="374"/>
      <point x="368" y="345"/>
      <point x="390" y="345" type="qcurve" smooth="yes"/>
      <point x="422" y="345"/>
      <point x="458" y="393"/>
      <point x="459" y="433" type="qcurve"/>
      <point x="530" y="433" type="line"/>
      <point x="528" y="345"/>
      <point x="453" y="261"/>
    </contour>
  </outline>
</glyph>
<glyph name="exclamdown" format="2">
  <advance width="273"/>
  <unicode hex="00A1"/>
  <outline>
    <contour>
      <point x="180" y="305" type="line"/>
      <point x="202" y="-154" type="line"/>
      <point x="72" y="-154" type="line"/>
      <point x="93" y="305" type="line"/>
    </contour>
    <contour>
      <point x="137" y="538" type="qcurve" smooth="yes"/>
      <point x="169" y="538"/>
      <point x="209" y="496"/>
      <point x="209" y="466" type="qcurve" smooth="yes"/>
      <point x="209" y="437"/>
      <point x="169" y="396"/>
      <point x="137" y="396" type="qcurve" smooth="yes"/>
      <point x="106" y="396"/>
      <point x="64" y="437"/>
      <point x="64" y="466" type="qcurve" smooth="yes"/>
      <point x="64" y="496"/>
      <point x="106" y="538"/>
    </contour>
  </outline>
</glyph>
<glyph name="sterling" format="2">
  <advance width="651"/>
  <unicode hex="00A3"/>
  <outline>
    <contour>
      <point x="137" y="15" type="line"/>
      <point x="137" y="442" type="line" smooth="yes"/>
      <point x="137" y="523"/>
      <point x="209" y="643"/>
      <point x="345" y="709"/>
      <point x="441" y="709" type="qcurve" smooth="yes"/>
      <point x="502" y="709"/>
      <point x="597" y="686"/>
      <point x="637" y="661" type="qcurve"/>
      <point x="600" y="566" type="line"/>
      <point x="566" y="589"/>
      <point x="480" y="607"/>
      <point x="430" y="607" type="qcurve" smooth="yes"/>
      <point x="342" y="607"/>
      <point x="251" y="523"/>
      <point x="251" y="443" type="qcurve" smooth="yes"/>
      <point x="251" y="15" type="line"/>
    </contour>
    <contour>
      <point x="30" y="0" type="line"/>
      <point x="30" y="99" type="line"/>
      <point x="621" y="99" type="line"/>
      <point x="621" y="0" type="line"/>
    </contour>
    <contour>
      <point x="30" y="313" type="line"/>
      <point x="30" y="387" type="line"/>
      <point x="511" y="387" type="line"/>
      <point x="511" y="313" type="line"/>
    </contour>
  </outline>
</glyph>
<glyph name="currency" format="2">
  <advance width="700"/>
  <unicode hex="00A4"/>
  <outline>
    <contour>
      <point x="144" y="457" type="line"/>
      <point x="30" y="571" type="line"/>
      <point x="92" y="639" type="line"/>
      <point x="207" y="525" type="line"/>
    </contour>
    <contour>
      <point x="92" y="-4" type="line"/>
      <point x="30" y="64" type="line"/>
      <point x="144" y="178" type="line"/>
      <point x="207" y="110" type="line"/>
    </contour>
    <contour>
      <point x="607" y="-4" type="line"/>
      <point x="492" y="110" type="line"/>
      <point x="555" y="178" type="line"/>
      <point x="670" y="64" type="line"/>
    </contour>
    <contour>
      <point x="555" y="457" type="line"/>
      <point x="492" y="525" type="line"/>
      <point x="607" y="639" type="line"/>
      <point x="670" y="571" type="line"/>
    </contour>
    <contour>
      <point x="350" y="57" type="qcurve" smooth="yes"/>
      <point x="295" y="57"/>
      <point x="197" y="98"/>
      <point x="123" y="170"/>
      <point x="81" y="265"/>
      <point x="81" y="319" type="qcurve" smooth="yes"/>
      <point x="81" y="374"/>
      <point x="123" y="469"/>
      <point x="197" y="542"/>
      <point x="295" y="583"/>
      <point x="350" y="583" type="qcurve" smooth="yes"/>
      <point x="406" y="583"/>
      <point x="504" y="542"/>
      <point x="578" y="469"/>
      <point x="620" y="374"/>
      <point x="620" y="319" type="qcurve" smooth="yes"/>
      <point x="620" y="265"/>
      <point x="578" y="170"/>
      <point x="504" y="98"/>
      <point x="406" y="57"/>
    </contour>
    <contour>
      <point x="350" y="147" type="qcurve" smooth="yes"/>
      <point x="400" y="147"/>
      <point x="482" y="194"/>
      <point x="532" y="272"/>
      <point x="532" y="319" type="qcurve" smooth="yes"/>
      <point x="532" y="367"/>
      <point x="482" y="446"/>
      <point x="400" y="493"/>
      <point x="350" y="493" type="qcurve" smooth="yes"/>
      <point x="301" y="493"/>
      <point x="219" y="446"/>
      <point x="170" y="367"/>
      <point x="170" y="319" type="qcurve" smooth="yes"/>
      <point x="170" y="272"/>
      <point x="219" y="194"/>
      <point x="301" y="147"/>
    </contour>
  </outline>
</glyph>
<glyph name="section" format="2">
  <advance width="505"/>
  <unicode hex="00A7"/>
  <outline>
    <contour>
      <point x="360" y="147" type="qcurve"/>
      <point x="288" y="203" type="line"/>
      <point x="326" y="210"/>
      <point x="376" y="256"/>
      <point x="376" y="291" type="qcurve" smooth="yes"/>
      <point x="376" y="319"/>
      <point x="341" y="352"/>
      <point x="284" y="371"/>
      <point x="216" y="387"/>
      <point x="148" y="407"/>
      <point x="91" y="440"/>
      <point x="56" y="495"/>
      <point x="56" y="539" type="qcurve" smooth="yes"/>
      <point x="56" y="589"/>
      <point x="112" y="664"/>
      <point x="218" y="706"/>
      <point x="291" y="706" type="qcurve" smooth="yes"/>
      <point x="322" y="706"/>
      <point x="393" y="695"/>
      <point x="458" y="673"/>
      <point x="479" y="657" type="qcurve"/>
      <point x="445" y="574" type="line"/>
      <point x="409" y="598"/>
      <point x="327" y="619"/>
      <point x="283" y="619" type="qcurve" smooth="yes"/>
      <point x="219" y="619"/>
      <point x="154" y="579"/>
      <point x="154" y="543" type="qcurve" smooth="yes"/>
      <point x="154" y="518"/>
      <point x="188" y="487"/>
      <point x="245" y="469"/>
      <point x="313" y="453"/>
      <point x="381" y="432"/>
      <point x="438" y="396"/>
      <point x="472" y="337"/>
      <point x="472" y="292" type="qcurve" smooth="yes"/>
      <point x="472" y="241"/>
      <point x="409" y="164"/>
    </contour>
    <contour>
      <point x="234" y="-106" type="qcurve" smooth="yes"/>
      <point x="195" y="-106"/>
      <point x="114" y="-90"/>
      <point x="46" y="-62"/>
      <point x="25" y="-44" type="qcurve"/>
      <point x="59" y="40" type="line"/>
      <point x="91" y="15"/>
      <point x="188" y="-19"/>
      <point x="238" y="-19" type="qcurve" smooth="yes"/>
      <point x="291" y="-19"/>
      <point x="353" y="21"/>
      <point x="353" y="57" type="qcurve" smooth="yes"/>
      <point x="353" y="84"/>
      <point x="318" y="115"/>
      <point x="262" y="134"/>
      <point x="194" y="149"/>
      <point x="125" y="169"/>
      <point x="69" y="203"/>
      <point x="34" y="260"/>
      <point x="34" y="304" type="qcurve" smooth="yes"/>
      <point x="34" y="360"/>
      <point x="97" y="436"/>
      <point x="146" y="453" type="qcurve"/>
      <point x="216" y="397" type="line"/>
      <point x="179" y="390"/>
      <point x="130" y="345"/>
      <point x="130" y="310" type="qcurve" smooth="yes"/>
      <point x="130" y="282"/>
      <point x="165" y="249"/>
      <point x="222" y="229"/>
      <point x="291" y="214"/>
      <point x="359" y="194"/>
      <point x="416" y="160"/>
      <point x="451" y="104"/>
      <point x="451" y="60" type="qcurve" smooth="yes"/>
      <point x="451" y="11"/>
      <point x="397" y="-64"/>
      <point x="299" y="-106"/>
    </contour>
  </outline>
</glyph>
<glyph name="copyright" format="2">
  <advance width="798"/>
  <unicode hex="00A9"/>
  <outline>
    <contour>
      <point x="398" y="-3" type="qcurve" smooth="yes"/>
      <point x="323" y="-3"/>
      <point x="195" y="51"/>
      <point x="99" y="148"/>
      <point x="46" y="276"/>
      <point x="46" y="350" type="qcurve" smooth="yes"/>
      <point x="46" y="424"/>
      <point x="100" y="552"/>
      <point x="196" y="649"/>
      <point x="325" y="703"/>
      <point x="400" y="703" type="qcurve" smooth="yes"/>
      <point x="475" y="703"/>
      <point x="604" y="650"/>
      <point x="699" y="554"/>
      <point x="752" y="427"/>
      <point x="752" y="352" type="qcurve" smooth="yes"/>
      <point x="752" y="277"/>
      <point x="698" y="148"/>
      <point x="601" y="51"/>
      <point x="473" y="-3"/>
    </contour>
    <contour>
      <point x="398" y="47" type="qcurve" smooth="yes"/>
      <point x="462" y="47"/>
      <point x="572" y="94"/>
      <point x="654" y="177"/>
      <point x="700" y="288"/>
      <point x="700" y="352" type="qcurve" smooth="yes"/>
      <point x="700" y="416"/>
      <point x="655" y="526"/>
      <point x="574" y="607"/>
      <point x="465" y="653"/>
      <point x="400" y="653" type="qcurve" smooth="yes"/>
      <point x="335" y="653"/>
      <point x="224" y="607"/>
      <point x="143" y="524"/>
      <point x="98" y="414"/>
      <point x="98" y="350" type="qcurve" smooth="yes"/>
      <point x="98" y="286"/>
      <point x="143" y="176"/>
      <point x="224" y="93"/>
      <point x="334" y="47"/>
    </contour>
    <contour>
      <point x="409" y="145" type="qcurve" smooth="yes"/>
      <point x="348" y="145"/>
      <point x="252" y="197"/>
      <point x="198" y="290"/>
      <point x="198" y="350" type="qcurve" smooth="yes"/>
      <point x="198" y="410"/>
      <point x="252" y="503"/>
      <point x="348" y="555"/>
      <point x="409" y="555" type="qcurve" smooth="yes"/>
      <point x="464" y="555"/>
      <point x="550" y="510"/>
      <point x="573" y="472" type="qcurve"/>
      <point x="509" y="426" type="line"/>
      <point x="491" y="453"/>
      <point x="439" y="478"/>
      <point x="408" y="478" type="qcurve" smooth="yes"/>
      <point x="373" y="478"/>
      <point x="317" y="446"/>
      <point x="284" y="389"/>
      <point x="284" y="350" type="qcurve" smooth="yes"/>
      <point x="284" y="311"/>
      <point x="317" y="254"/>
      <point x="373" y="222"/>
      <point x="408" y="222" type="qcurve" smooth="yes"/>
      <point x="439" y="222"/>
      <point x="491" y="247"/>
      <point x="509" y="274" type="qcurve"/>
      <point x="573" y="230" type="line"/>
      <point x="550" y="191"/>
      <point x="464" y="145"/>
    </contour>
  </outline>
</glyph>
<glyph name="ordfeminine" format="2">
  <advance width="406"/>
  <unicode hex="00AA"/>
  <outline>
    <contour>
      <point x="272" y="427" type="line"/>
      <point x="272" y="492" type="line"/>
      <point x="266" y="504" type="line"/>
      <point x="266" y="617" type="line" smooth="yes"/>
      <point x="266" y="654"/>
      <point x="224" y="688"/>
      <point x="182" y="688" type="qcurve" smooth="yes"/>
      <point x="152" y="688"/>
      <point x="94" y="670"/>
      <point x="74" y="654" type="qcurve"/>
      <point x="45" y="705" type="line"/>
      <point x="71" y="725"/>
      <point x="151" y="748"/>
      <point x="190" y="748" type="qcurve" smooth="yes"/>
      <point x="265" y="748"/>
      <point x="344" y="682"/>
      <point x="344" y="614" type="qcurve" smooth="yes"/>
      <point x="344" y="427" type="line"/>
    </contour>
    <contour>
      <point x="162" y="423" type="qcurve" smooth="yes"/>
      <point x="99" y="423"/>
      <point x="35" y="478"/>
      <point x="35" y="518" type="qcurve" smooth="yes"/>
      <point x="35" y="559"/>
      <point x="100" y="612"/>
      <point x="173" y="612" type="qcurve" smooth="yes"/>
      <point x="277" y="612" type="line"/>
      <point x="277" y="563" type="line"/>
      <point x="184" y="563" type="line" smooth="yes"/>
      <point x="144" y="563"/>
      <point x="109" y="541"/>
      <point x="109" y="521" type="qcurve" smooth="yes"/>
      <point x="109" y="499"/>
      <point x="146" y="477"/>
      <point x="178" y="477" type="qcurve" smooth="yes"/>
      <point x="211" y="477"/>
      <point x="255" y="500"/>
      <point x="266" y="521" type="qcurve"/>
      <point x="278" y="472" type="line"/>
      <point x="268" y="452"/>
      <point x="208" y="423"/>
    </contour>
  </outline>
</glyph>
<glyph name="logicalnot" format="2">
  <advance width="586"/>
  <unicode hex="00AC"/>
  <outline>
    <contour>
      <point x="520" y="396" type="line"/>
      <point x="520" y="128" type="line"/>
      <point x="424" y="128" type="line"/>
      <point x="424" y="306" type="line"/>
      <point x="66" y="306" type="line"/>
      <point x="66" y="396" type="line"/>
    </contour>
  </outline>
</glyph>
<glyph name="registered" format="2">
  <advance width="798"/>
  <unicode hex="00AE"/>
  <outline>
    <contour>
      <point x="398" y="-3" type="qcurve" smooth="yes"/>
      <point x="323" y="-3"/>
      <point x="195" y="51"/>
      <point x="99" y="148"/>
      <point x="46" y="276"/>
      <point x="46" y="350" type="qcurve" smooth="yes"/>
      <point x="46" y="424"/>
      <point x="100" y="552"/>
      <point x="196" y="649"/>
      <point x="325" y="703"/>
      <point x="400" y="703" type="qcurve" smooth="yes"/>
      <point x="475" y="703"/>
      <point x="604" y="650"/>
      <point x="699" y="554"/>
      <point x="752" y="427"/>
      <point x="752" y="352" type="qcurve" smooth="yes"/>
      <point x="752" y="277"/>
      <point x="698" y="148"/>
      <point x="601" y="51"/>
      <point x="473" y="-3"/>
    </contour>
    <contour>
      <point x="511" y="152" type="line"/>
      <point x="412" y="304" type="line"/>
      <point x="489" y="304" type="line"/>
      <point x="588" y="152" type="line"/>
    </contour>
    <contour>
      <point x="398" y="47" type="qcurve" smooth="yes"/>
      <point x="462" y="47"/>
      <point x="572" y="94"/>
      <point x="654" y="177"/>
      <point x="700" y="288"/>
      <point x="700" y="352" type="qcurve" smooth="yes"/>
      <point x="700" y="416"/>
      <point x="655" y="526"/>
      <point x="574" y="607"/>
      <point x="465" y="653"/>
      <point x="400" y="653" type="qcurve" smooth="yes"/>
      <point x="335" y="653"/>
      <point x="224" y="607"/>
      <point x="143" y="524"/>
      <point x="98" y="414"/>
      <point x="98" y="350" type="qcurve" smooth="yes"/>
      <point x="98" y="286"/>
      <point x="143" y="176"/>
      <point x="224" y="93"/>
      <point x="334" y="47"/>
    </contour>
    <contour>
      <point x="254" y="152" type="line"/>
      <point x="254" y="548" type="line"/>
      <point x="416" y="548" type="line" smooth="yes"/>
      <point x="493" y="548"/>
      <point x="580" y="474"/>
      <point x="580" y="412" type="qcurve" smooth="yes"/>
      <point x="580" y="347"/>
      <point x="493" y="275"/>
      <point x="416" y="275" type="qcurve" smooth="yes"/>
      <point x="331" y="275" type="line"/>
      <point x="331" y="152" type="line"/>
    </contour>
    <contour>
      <point x="330" y="338" type="line"/>
      <point x="411" y="338" type="line" smooth="yes"/>
      <point x="456" y="338"/>
      <point x="506" y="377"/>
      <point x="506" y="412" type="qcurve" smooth="yes"/>
      <point x="506" y="447"/>
      <point x="456" y="485"/>
      <point x="411" y="485" type="qcurve" smooth="yes"/>
      <point x="330" y="485" type="line"/>
    </contour>
  </outline>
</glyph>
<glyph name="degree" format="2">
  <advance width="419"/>
  <unicode hex="00B0"/>
  <outline>
    <contour>
      <point x="209" y="377" type="qcurve" smooth="yes"/>
      <point x="162" y="377"/>
      <point x="86" y="421"/>
      <point x="42" y="496"/>
      <point x="42" y="542" type="qcurve" smooth="yes"/>
      <point x="42" y="588"/>
      <point x="86" y="663"/>
      <point x="162" y="707"/>
      <point x="209" y="707" type="qcurve" smooth="yes"/>
      <point x="256" y="707"/>
      <point x="332" y="663"/>
      <point x="376" y="588"/>
      <point x="376" y="542" type="qcurve" smooth="yes"/>
      <point x="376" y="496"/>
      <point x="332" y="421"/>
      <point x="256" y="377"/>
    </contour>
    <contour>
      <point x="209" y="437" type="qcurve" smooth="yes"/>
      <point x="239" y="437"/>
      <point x="286" y="465"/>
      <point x="313" y="512"/>
      <point x="313" y="542" type="qcurve" smooth="yes"/>
      <point x="313" y="572"/>
      <point x="286" y="620"/>
      <point x="239" y="647"/>
      <point x="209" y="647" type="qcurve" smooth="yes"/>
      <point x="180" y="647"/>
      <point x="132" y="620"/>
      <point x="105" y="573"/>
      <point x="105" y="542" type="qcurve" smooth="yes"/>
      <point x="105" y="511"/>
      <point x="132" y="464"/>
      <point x="180" y="437"/>
    </contour>
  </outline>
</glyph>
<glyph name="plusminus" format="2">
  <advance width="586"/>
  <unicode hex="00B1"/>
  <outline>
    <contour>
      <point x="66" y="0" type="line"/>
      <point x="66" y="90" type="line"/>
      <point x="520" y="90" type="line"/>
      <point x="520" y="0" type="line"/>
    </contour>
    <contour>
      <point x="245" y="191" type="line"/>
      <point x="245" y="623" type="line"/>
      <point x="341" y="623" type="line"/>
      <point x="341" y="191" type="line"/>
    </contour>
    <contour>
      <point x="66" y="362" type="line"/>
      <point x="66" y="452" type="line"/>
      <point x="520" y="452" type="line"/>
      <point x="520" y="362" type="line"/>
    </contour>
  </outline>
</glyph>
<glyph name="paragraph" format="2">
  <advance width="657"/>
  <unicode hex="00B6"/>
  <outline>
    <contour>
      <point x="227" y="-100" type="line"/>
      <point x="227" y="377" type="line"/>
      <point x="166" y="378"/>
      <point x="72" y="423"/>
      <point x="18" y="505"/>
      <point x="18" y="560" type="qcurve" smooth="yes"/>
      <point x="18" y="616"/>
      <point x="74" y="698"/>
      <point x="176" y="742"/>
      <point x="244" y="742" type="qcurve" smooth="yes"/>
      <point x="557" y="742" type="line"/>
      <point x="557" y="-100" type="line"/>
      <point x="466" y="-100" type="line"/>
      <point x="466" y="657" type="line"/>
      <point x="318" y="657" type="line"/>
      <point x="318" y="-100" type="line"/>
    </contour>
  </outline>
</glyph>
<glyph name="periodcentered" format="2">
  <advance width="275"/>
  <unicode hex="00B7"/>
  <outline>
    <contour>
      <point x="138" y="200" type="qcurve" smooth="yes"/>
      <point x="107" y="200"/>
      <point x="63" y="243"/>
      <point x="63" y="277" type="qcurve" smooth="yes"/>
      <point x="63" y="311"/>
      <point x="107" y="353"/>
      <point x="138" y="353" type="qcurve" smooth="yes"/>
      <point x="170" y="353"/>
      <point x="212" y="311"/>
      <point x="212" y="277" type="qcurve" smooth="yes"/>
      <point x="212" y="243"/>
      <point x="170" y="200"/>
    </contour>
  </outline>
</glyph>
<glyph name="ordmasculine" format="2">
  <advance width="420"/>
  <unicode hex="00BA"/>
  <outline>
    <contour>
      <point x="211" y="423" type="qcurve" smooth="yes"/>
      <point x="158" y="423"/>
      <point x="77" y="465"/>
      <point x="30" y="539"/>
      <point x="30" y="586" type="qcurve" smooth="yes"/>
      <point x="30" y="633"/>
      <point x="77" y="706"/>
      <point x="158" y="748"/>
      <point x="210" y="748" type="qcurve" smooth="yes"/>
      <point x="263" y="748"/>
      <point x="344" y="706"/>
      <point x="390" y="633"/>
      <point x="390" y="586" type="qcurve" smooth="yes"/>
      <point x="390" y="539"/>
      <point x="344" y="465"/>
      <point x="263" y="423"/>
    </contour>
    <contour>
      <point x="210" y="488" type="qcurve" smooth="yes"/>
      <point x="257" y="488"/>
      <point x="314" y="543"/>
      <point x="314" y="586" type="qcurve" smooth="yes"/>
      <point x="314" y="630"/>
      <point x="257" y="683"/>
      <point x="210" y="683" type="qcurve" smooth="yes"/>
      <point x="164" y="683"/>
      <point x="106" y="630"/>
      <point x="106" y="586" type="qcurve" smooth="yes"/>
      <point x="106" y="543"/>
      <point x="164" y="488"/>
    </contour>
  </outline>
</glyph>
<glyph name="questiondown" format="2">
  <advance width="577"/>
  <unicode hex="00BF"/>
  <outline>
    <contour>
      <point x="306" y="-163" type="qcurve" smooth="yes"/>
      <point x="233" y="-163"/>
      <point x="124" y="-120"/>
      <point x="65" y="-41"/>
      <point x="65" y="13" type="qcurve" smooth="yes"/>
      <point x="65" y="53"/>
      <point x="90" y="111"/>
      <point x="130" y="155"/>
      <point x="173" y="193"/>
      <point x="213" y="230"/>
      <point x="238" y="275"/>
      <point x="238" y="305" type="qcurve"/>
      <point x="353" y="305" type="line"/>
      <point x="353" y="268"/>
      <point x="328" y="213"/>
      <point x="289" y="169"/>
      <point x="244" y="131"/>
      <point x="205" y="94"/>
      <point x="180" y="52"/>
      <point x="180" y="26" type="qcurve" smooth="yes"/>
      <point x="180" y="-12"/>
      <point x="252" y="-66"/>
      <point x="314" y="-66" type="qcurve" smooth="yes"/>
      <point x="373" y="-66"/>
      <point x="458" y="-25"/>
      <point x="486" y="12" type="qcurve"/>
      <point x="570" y="-47" type="line"/>
      <point x="528" y="-102"/>
      <point x="395" y="-163"/>
    </contour>
    <contour>
      <point x="295" y="396" type="qcurve" smooth="yes"/>
      <point x="264" y="396"/>
      <point x="223" y="437"/>
      <point x="223" y="466" type="qcurve" smooth="yes"/>
      <point x="223" y="496"/>
      <point x="264" y="538"/>
      <point x="295" y="538" type="qcurve" smooth="yes"/>
      <point x="327" y="538"/>
      <point x="367" y="496"/>
      <point x="367" y="466" type="qcurve" smooth="yes"/>
      <point x="367" y="437"/>
      <point x="327" y="396"/>
    </contour>
  </outline>
</glyph>
<glyph name="AE" format="2">
  <advance width="1055"/>
  <unicode hex="00C6"/>
  <anchor x="680" y="700" name="t.uni0308"/>
  <anchor x="680" y="0" name="b.uni0324_3"/>
  <outline>
    <contour>
      <point x="-3" y="0" type="line"/>
      <point x="409" y="700" type="line"/>
      <point x="523" y="700" type="line"/>
      <point x="523" y="601" type="line"/>
      <point x="423" y="601" type="line"/>
      <point x="493" y="652" type="line"/>
      <point x="115" y="0" type="line"/>
    </contour>
    <contour>
      <point x="182" y="168" type="line"/>
      <point x="187" y="260" type="line"/>
      <point x="523" y="260" type="line"/>
      <point x="523" y="168" type="line"/>
    </contour>
    <contour>
      <point x="590" y="404" type="line"/>
      <point x="944" y="404" type="line"/>
      <point x="944" y="307" type="line"/>
      <point x="589" y="307" type="line"/>
    </contour>
    <contour>
      <point x="599" y="99" type="line"/>
      <point x="1001" y="99" type="line"/>
      <point x="1001" y="0" type="line"/>
      <point x="485" y="0" type="line"/>
      <point x="485" y="700" type="line"/>
      <point x="987" y="700" type="line"/>
      <point x="987" y="601" type="line"/>
      <point x="599" y="601" type="line"/>
    </contour>
  </outline>
</glyph>
<glyph name="Thorn" format="2">
  <advance width="724"/>
  <unicode hex="00DE"/>
  <outline>
    <contour>
      <point x="188" y="122" type="line"/>
      <point x="188" y="221" type="line"/>
      <point x="376" y="221" type="line" smooth="yes"/>
      <point x="467" y="221"/>
      <point x="560" y="299"/>
      <point x="560" y="369" type="qcurve" smooth="yes"/>
      <point x="560" y="440"/>
      <point x="467" y="517"/>
      <point x="376" y="517" type="qcurve" smooth="yes"/>
      <point x="188" y="517" type="line"/>
      <point x="188" y="616" type="line"/>
      <point x="380" y="616" type="line" smooth="yes"/>
      <point x="472" y="616"/>
      <point x="604" y="556"/>
      <point x="675" y="446"/>
      <point x="675" y="370" type="qcurve" smooth="yes"/>
      <point x="675" y="293"/>
      <point x="604" y="182"/>
      <point x="472" y="122"/>
      <point x="380" y="122" type="qcurve" smooth="yes"/>
    </contour>
    <contour>
      <point x="100" y="0" type="line"/>
      <point x="100" y="700" type="line"/>
      <point x="214" y="700" type="line"/>
      <point x="214" y="0" type="line"/>
    </contour>
  </outline>
</glyph>
<glyph name="germandbls" format="2">
  <advance width="680"/>
  <unicode hex="00DF"/>
  <outline>
    <contour>
      <point x="396" y="-6" type="qcurve" smooth="yes"/>
      <point x="366" y="-6"/>
      <point x="303" y="2"/>
      <point x="279" y="10" type="qcurve"/>
      <point x="296" y="102" type="line"/>
      <point x="316" y="95"/>
      <point x="360" y="89"/>
      <point x="391" y="89" type="qcurve" smooth="yes"/>
      <point x="434" y="89"/>
      <point x="495" y="116"/>
      <point x="529" y="169"/>
      <point x="529" y="206" type="qcurve" smooth="yes"/>
      <point x="529" y="262"/>
      <point x="446" y="322"/>
      <point x="378" y="322" type="qcurve" smooth="yes"/>
      <point x="322" y="322" type="line"/>
      <point x="322" y="415" type="line"/>
      <point x="393" y="416"/>
      <point x="474" y="485"/>
      <point x="474" y="542" type="qcurve" smooth="yes"/>
      <point x="474" y="592"/>
      <point x="406" y="653"/>
      <point x="343" y="653" type="qcurve" smooth="yes"/>
      <point x="275" y="653"/>
      <point x="197" y="576"/>
      <point x="197" y="501" type="qcurve" smooth="yes"/>
      <point x="197" y="0" type="line"/>
      <point x="87" y="0" type="line"/>
      <point x="87" y="491" type="line" smooth="yes"/>
      <point x="87" y="577"/>
      <point x="154" y="691"/>
      <point x="270" y="748"/>
      <point x="343" y="748" type="qcurve" smooth="yes"/>
      <point x="417" y="748"/>
      <point x="523" y="695"/>
      <point x="580" y="604"/>
      <point x="580" y="547" type="qcurve" smooth="yes"/>
      <point x="580" y="501"/>
      <point x="545" y="430"/>
      <point x="489" y="381"/>
      <point x="423" y="355"/>
      <point x="391" y="355" type="qcurve"/>
      <point x="421" y="399" type="line"/>
      <point x="482" y="399"/>
      <point x="581" y="353"/>
      <point x="640" y="266"/>
      <point x="640" y="203" type="qcurve" smooth="yes"/>
      <point x="640" y="137"/>
      <point x="577" y="43"/>
      <point x="467" y="-6"/>
    </contour>
  </outline>
</glyph>
<glyph name="ae" format="2">
  <advance width="991"/>
  <unicode hex="00E6"/>
  <anchor x="488" y="562" name="t.uni0308"/>
  <anchor x="481" y="0" name="b.uni0324_3"/>
  <outline>
    <contour>
      <point x="258" y="-6" type="qcurve" smooth="yes"/>
      <point x="159" y="-6"/>
      <point x="47" y="84"/>
      <point x="47" y="156" type="qcurve" smooth="yes"/>
      <point x="47" y="197"/>
      <point x="89" y="266"/>
      <point x="185" y="309"/>
      <point x="265" y="309" type="qcurve" smooth="yes"/>
      <point x="426" y="309" type="line"/>
      <point x="426" y="230" type="line"/>
      <point x="270" y="230" type="line" smooth="yes"/>
      <point x="203" y="230"/>
      <point x="156" y="187"/>
      <point x="156" y="158" type="qcurve" smooth="yes"/>
      <point x="156" y="120"/>
      <point x="215" y="78"/>
      <point x="267" y="78" type="qcurve" smooth="yes"/>
      <point x="335" y="78"/>
      <point x="410" y="146"/>
      <point x="410" y="201" type="qcurve" smooth="yes"/>
      <point x="410" y="322" type="line" smooth="yes"/>
      <point x="410" y="379"/>
      <point x="341" y="443"/>
      <point x="273" y="443" type="qcurve" smooth="yes"/>
      <point x="227" y="443"/>
      <point x="138" y="414"/>
      <point x="107" y="389" type="qcurve"/>
      <point x="62" y="471" type="line"/>
      <point x="104" y="504"/>
      <point x="221" y="538"/>
      <point x="284" y="538" type="qcurve" smooth="yes"/>
      <point x="376" y="538"/>
      <point x="487" y="467"/>
      <point x="504" y="399" type="qcurve"/>
      <point x="450" y="404" type="line"/>
      <point x="482" y="466"/>
      <point x="604" y="538"/>
      <point x="683" y="538" type="qcurve" smooth="yes"/>
      <point x="741" y="538"/>
      <point x="839" y="498"/>
      <point x="911" y="426"/>
      <point x="951" y="327"/>
      <point x="951" y="268" type="qcurve" smooth="yes"/>
      <point x="951" y="257"/>
      <point x="950" y="238"/>
      <point x="948" y="230" type="qcurve"/>
      <point x="498" y="230" type="line"/>
      <point x="498" y="309" type="line"/>
      <point x="890" y="309" type="line"/>
      <point x="844" y="281" type="line"/>
      <point x="845" y="336"/>
      <point x="798" y="408"/>
      <point x="723" y="445"/>
      <point x="682" y="445" type="qcurve" smooth="yes"/>
      <point x="642" y="445"/>
      <point x="567" y="408"/>
      <point x="519" y="334"/>
      <point x="519" y="278" type="qcurve" smooth="yes"/>
      <point x="519" y="260" type="line" smooth="yes"/>
      <point x="519" y="210"/>
      <point x="565" y="133"/>
      <point x="648" y="90"/>
      <point x="704" y="90" type="qcurve" smooth="yes"/>
      <point x="750" y="90"/>
      <point x="823" y="120"/>
      <point x="853" y="151" type="qcurve"/>
      <point x="914" y="80" type="line"/>
      <point x="877" y="37"/>
      <point x="768" y="-6"/>
      <point x="700" y="-6" type="qcurve" smooth="yes"/>
      <point x="638" y="-6"/>
      <point x="530" y="31"/>
      <point x="449" y="110"/>
      <point x="426" y="172" type="qcurve"/>
      <point x="497" y="171" type="line"/>
      <point x="484" y="103"/>
      <point x="409" y="25"/>
      <point x="309" y="-6"/>
    </contour>
  </outline>
</glyph>
<glyph name="eth" format="2">
  <advance width="644"/>
  <unicode hex="00F0"/>
  <outline>
    <contour>
      <point x="296" y="-9" type="qcurve" smooth="yes"/>
      <point x="224" y="-9"/>
      <point x="108" y="46"/>
      <point x="40" y="147"/>
      <point x="40" y="216" type="qcurve" smooth="yes"/>
      <point x="40" y="285"/>
      <point x="108" y="386"/>
      <point x="225" y="441"/>
      <point x="297" y="441" type="qcurve" smooth="yes"/>
      <point x="354" y="441"/>
      <point x="446" y="402"/>
      <point x="511" y="328"/>
      <point x="525" y="275" type="qcurve"/>
      <point x="482" y="258" type="line"/>
      <point x="489" y="285"/>
      <point x="493" y="341"/>
      <point x="493" y="369" type="qcurve" smooth="yes"/>
      <point x="493" y="459"/>
      <point x="434" y="578"/>
      <point x="325" y="638"/>
      <point x="250" y="638" type="qcurve" smooth="yes"/>
      <point x="207" y="638"/>
      <point x="134" y="625"/>
      <point x="106" y="615" type="qcurve"/>
      <point x="88" y="708" type="line"/>
      <point x="121" y="718"/>
      <point x="203" y="730"/>
      <point x="250" y="730" type="qcurve" smooth="yes"/>
      <point x="357" y="730"/>
      <point x="516" y="643"/>
      <point x="604" y="471"/>
      <point x="604" y="344" type="qcurve" smooth="yes"/>
      <point x="604" y="235"/>
      <point x="531" y="77"/>
      <point x="394" y="-9"/>
    </contour>
    <contour>
      <point x="304" y="84" type="qcurve" smooth="yes"/>
      <point x="355" y="84"/>
      <point x="428" y="121"/>
      <point x="466" y="181"/>
      <point x="466" y="216" type="qcurve" smooth="yes"/>
      <point x="466" y="254"/>
      <point x="425" y="314"/>
      <point x="355" y="348"/>
      <point x="309" y="348" type="qcurve" smooth="yes"/>
      <point x="236" y="348"/>
      <point x="151" y="276"/>
      <point x="151" y="216" type="qcurve" smooth="yes"/>
      <point x="151" y="176"/>
      <point x="190" y="117"/>
      <point x="259" y="84"/>
    </contour>
    <contour>
      <point x="155" y="472" type="line"/>
      <point x="126" y="543" type="line"/>
      <point x="545" y="710" type="line"/>
      <point x="574" y="638" type="line"/>
    </contour>
  </outline>
</glyph>
<glyph name="divide" format="2">
  <advance width="586"/>
  <unicode hex="00F7"/>
  <outline>
    <contour>
      <point x="66" y="305" type="line"/>
      <point x="66" y="395" type="line"/>
      <point x="520" y="395" type="line"/>
      <point x="520" y="305" type="line"/>
    </contour>
    <contour>
      <point x="293" y="84" type="qcurve" smooth="yes"/>
      <point x="267" y="84"/>
      <point x="230" y="122"/>
      <point x="230" y="151" type="qcurve" smooth="yes"/>
      <point x="230" y="180"/>
      <point x="267" y="216"/>
      <point x="293" y="216" type="qcurve" smooth="yes"/>
      <point x="320" y="216"/>
      <point x="357" y="180"/>
      <point x="357" y="151" type="qcurve" smooth="yes"/>
      <point x="357" y="122"/>
      <point x="320" y="84"/>
    </contour>
    <contour>
      <point x="293" y="484" type="qcurve" smooth="yes"/>
      <point x="267" y="484"/>
      <point x="230" y="522"/>
      <point x="230" y="550" type="qcurve" smooth="yes"/>
      <point x="230" y="579"/>
      <point x="267" y="616"/>
      <point x="293" y="616" type="qcurve" smooth="yes"/>
      <point x="320" y="616"/>
      <point x="357" y="579"/>
      <point x="357" y="550" type="qcurve" smooth="yes"/>
      <point x="357" y="522"/>
      <point x="320" y="484"/>
    </contour>
  </outline>
</glyph>
<glyph name="eogonek" format="2">
  <advance width="617"/>
  <unicode hex="0119"/>
  <anchor x="355" y="562" name="t.uni0308"/>
  <anchor x="355" y="0" name="b.uni0324_3"/>
  <outline>
    <contour>
      <point x="439" y="-226" type="qcurve" smooth="yes"/>
      <point x="381" y="-226"/>
      <point x="314" y="-166"/>
      <point x="314" y="-117" type="qcurve" smooth="yes"/>
      <point x="314" y="-82"/>
      <point x="352" y="-5"/>
      <point x="393" y="25" type="qcurve"/>
      <point x="433" y="9" type="line"/>
      <point x="410" y="2"/>
      <point x="358" y="-6"/>
      <point x="330" y="-6" type="qcurve" smooth="yes"/>
      <point x="243" y="-6"/>
      <point x="112" y="64"/>
      <point x="40" y="187"/>
      <point x="40" y="266" type="qcurve" smooth="yes"/>
      <point x="40" y="345"/>
      <point x="110" y="468"/>
      <point x="233" y="538"/>
      <point x="311" y="538" type="qcurve" smooth="yes"/>
      <point x="389" y="538"/>
      <point x="509" y="469"/>
      <point x="577" y="345"/>
      <point x="577" y="262" type="qcurve" smooth="yes"/>
      <point x="577" y="255"/>
      <point x="576" y="236"/>
      <point x="575" y="228" type="qcurve"/>
      <point x="127" y="228" type="line"/>
      <point x="127" y="307" type="line"/>
      <point x="517" y="307" type="line"/>
      <point x="473" y="281" type="line"/>
      <point x="474" y="329"/>
      <point x="432" y="403"/>
      <point x="359" y="445"/>
      <point x="311" y="445" type="qcurve" smooth="yes"/>
      <point x="263" y="445"/>
      <point x="189" y="403"/>
      <point x="148" y="328"/>
      <point x="148" y="278" type="qcurve" smooth="yes"/>
      <point x="148" y="260" type="line" smooth="yes"/>
      <point x="148" y="210"/>
      <point x="194" y="133"/>
      <point x="278" y="90"/>
      <point x="333" y="90" type="qcurve" smooth="yes"/>
      <point x="379" y="90"/>
      <point x="454" y="120"/>
      <point x="482" y="151" type="qcurve"/>
      <point x="542" y="80" type="line"/>
      <point x="534" y="70"/>
      <point x="514" y="53"/>
      <point x="503" y="44" type="qcurve" smooth="yes"/>
      <point x="460" y="9"/>
      <point x="411" y="-46"/>
      <point x="391" y="-90"/>
      <point x="391" y="-110" type="qcurve" smooth="yes"/>
      <point x="391" y="-137"/>
      <point x="425" y="-163"/>
      <point x="451" y="-163" type="qcurve" smooth="yes"/>
      <point x="467" y="-163"/>
      <point x="500" y="-154"/>
      <point x="512" y="-147" type="qcurve"/>
      <point x="532" y="-203" type="line"/>
      <point x="513" y="-213"/>
      <point x="465" y="-226"/>
    </contour>
  </outline>
</glyph>
<glyph name="IJ" format="2">
  <advance width="721"/>
  <unicode hex="0132"/>
  <anchor x="153" y="700" name="t.uni0308"/>
  <outline>
    <contour>
      <point x="327" y="-9" type="qcurve" smooth="yes"/>
      <point x="254" y="-9"/>
      <point x="128" y="31"/>
      <point x="81" y="63" type="qcurve"/>
      <point x="125" y="155" type="line"/>
      <point x="169" y="125"/>
      <point x="274" y="93"/>
      <point x="329" y="93" type="qcurve" smooth="yes"/>
      <point x="418" y="93"/>
      <point x="513" y="196"/>
      <point x="513" y="303" type="qcurve" smooth="yes"/>
      <point x="513" y="700" type="line"/>
      <point x="627" y="700" type="line"/>
      <point x="627" y="309" type="line" smooth="yes"/>
      <point x="627" y="205"/>
      <point x="552" y="63"/>
      <point x="418" y="-9"/>
    </contour>
    <contour>
      <point x="94" y="312" type="line"/>
      <point x="94" y="700" type="line"/>
      <point x="208" y="700" type="line"/>
      <point x="208" y="312" type="line"/>
    </contour>
  </outline>
</glyph>
<glyph name="Eng" format="2">
  <advance width="811"/>
  <unicode hex="014A"/>
  <outline>
    <contour>
      <point x="100" y="0" type="line"/>
      <point x="100" y="700" type="line"/>
      <point x="194" y="700" type="line"/>
      <point x="645" y="144" type="line"/>
      <point x="617" y="0" type="line"/>
      <point x="166" y="556" type="line"/>
      <point x="214" y="556" type="line"/>
      <point x="214" y="0" type="line"/>
    </contour>
    <contour>
      <point x="486" y="-200" type="qcurve" smooth="yes"/>
      <point x="433" y="-200"/>
      <point x="339" y="-162"/>
      <point x="305" y="-125" type="qcurve"/>
      <point x="360" y="-42" type="line"/>
      <point x="384" y="-70"/>
      <point x="447" y="-102"/>
      <point x="486" y="-102" type="qcurve" smooth="yes"/>
      <point x="597" y="-102"/>
      <point x="597" y="34" type="qcurve" smooth="yes"/>
      <point x="597" y="700" type="line"/>
      <point x="711" y="700" type="line"/>
      <point x="711" y="50" type="line" smooth="yes"/>
      <point x="711" y="-78"/>
      <point x="597" y="-200"/>
    </contour>
  </outline>
</glyph>
<glyph name="eng" format="2">
  <advance width="683"/>
  <unicode hex="014B"/>
  <outline>
    <contour>
      <point x="378" y="538" type="qcurve" smooth="yes"/>
      <point x="443" y="538"/>
      <point x="543" y="488"/>
      <point x="601" y="385"/>
      <point x="601" y="305" type="qcurve" smooth="yes"/>
      <point x="601" y="-16" type="line" smooth="yes"/>
      <point x="601" y="-101"/>
      <point x="509" y="-200"/>
      <point x="423" y="-200" type="qcurve" smooth="yes"/>
      <point x="389" y="-200"/>
      <point x="327" y="-185"/>
      <point x="306" y="-169" type="qcurve"/>
      <point x="340" y="-85" type="line"/>
      <point x="369" y="-108"/>
      <point x="416" y="-108" type="qcurve" smooth="yes"/>
      <point x="452" y="-108"/>
      <point x="491" y="-63"/>
      <point x="491" y="-19" type="qcurve" smooth="yes"/>
      <point x="491" y="292" type="line" smooth="yes"/>
      <point x="491" y="366"/>
      <point x="420" y="440"/>
      <point x="355" y="440" type="qcurve" smooth="yes"/>
      <point x="308" y="440"/>
      <point x="236" y="402"/>
      <point x="197" y="328"/>
      <point x="197" y="272" type="qcurve" smooth="yes"/>
      <point x="197" y="0" type="line"/>
      <point x="87" y="0" type="line"/>
      <point x="87" y="532" type="line"/>
      <point x="192" y="532" type="line"/>
      <point x="192" y="390" type="line"/>
      <point x="174" y="434" type="line"/>
      <point x="201" y="484"/>
      <point x="308" y="538"/>
    </contour>
  </outline>
</glyph>
<glyph name="OE" format="2">
  <advance width="1128"/>
  <unicode hex="0152"/>
  <anchor x="676" y="700" name="t.uni0308"/>
  <anchor x="676" y="0" name="b.uni0324_3"/>
  <outline>
    <contour>
      <point x="426" y="0" type="line" smooth="yes"/>
      <point x="313" y="0"/>
      <point x="142" y="88"/>
      <point x="46" y="245"/>
      <point x="46" y="349" type="qcurve" smooth="yes"/>
      <point x="46" y="454"/>
      <point x="142" y="612"/>
      <point x="313" y="700"/>
      <point x="426" y="700" type="qcurve" smooth="yes"/>
      <point x="587" y="700" type="line"/>
      <point x="587" y="601" type="line"/>
      <point x="432" y="601" type="line" smooth="yes"/>
      <point x="350" y="601"/>
      <point x="228" y="538"/>
      <point x="161" y="425"/>
      <point x="161" y="350" type="qcurve" smooth="yes"/>
      <point x="161" y="274"/>
      <point x="228" y="162"/>
      <point x="350" y="99"/>
      <point x="432" y="99" type="qcurve" smooth="yes"/>
      <point x="587" y="99" type="line"/>
      <point x="587" y="0" type="line"/>
    </contour>
    <contour>
      <point x="663" y="404" type="line"/>
      <point x="1017" y="404" type="line"/>
      <point x="1017" y="307" type="line"/>
      <point x="663" y="307" type="line"/>
    </contour>
    <contour>
      <point x="672" y="99" type="line"/>
      <point x="1074" y="99" type="line"/>
      <point x="1074" y="0" type="line"/>
      <point x="558" y="0" type="line"/>
      <point x="558" y="700" type="line"/>
      <point x="1060" y="700" type="line"/>
      <point x="1060" y="601" type="line"/>
      <point x="672" y="601" type="line"/>
    </contour>
  </outline>
</glyph>
<glyph name="Uogonek" format="2">
  <advance width="790"/>
  <unicode hex="0172"/>
  <outline>
    <contour>
      <point x="584" y="700" type="line"/>
      <point x="696" y="700" type="line"/>
      <point x="696" y="304" type="line" smooth="yes"/>
      <point x="696" y="181"/>
      <point x="597" y="38"/>
      <point x="514" y="8" type="qcurve" smooth="yes"/>
      <point x="456" y="-13"/>
      <point x="395" y="-55"/>
      <point x="372" y="-95"/>
      <point x="372" y="-113" type="qcurve" smooth="yes"/>
      <point x="372" y="-137"/>
      <point x="406" y="-163"/>
      <point x="432" y="-163" type="qcurve" smooth="yes"/>
      <point x="448" y="-163"/>
      <point x="481" y="-154"/>
      <point x="493" y="-147" type="qcurve"/>
      <point x="513" y="-203" type="line"/>
      <point x="494" y="-213"/>
      <point x="446" y="-226"/>
      <point x="420" y="-226" type="qcurve" smooth="yes"/>
      <point x="361" y="-226"/>
      <point x="295" y="-168"/>
      <point x="295" y="-122" type="qcurve" smooth="yes"/>
      <point x="295" y="-94"/>
      <point x="323" y="-38"/>
      <point x="386" y="14"/>
      <point x="439" y="35" type="qcurve"/>
      <point x="438" y="-7" type="line"/>
      <point x="428" y="-8"/>
      <point x="406" y="-9"/>
      <point x="395" y="-9" type="qcurve" smooth="yes"/>
      <point x="254" y="-9"/>
      <point x="94" y="151"/>
      <point x="94" y="304" type="qcurve" smooth="yes"/>
      <point x="94" y="700" type="line"/>
      <point x="208" y="700" type="line"/>
      <point x="208" y="308" type="line" smooth="yes"/>
      <point x="208" y="196"/>
      <point x="306" y="93"/>
      <point x="396" y="93" type="qcurve" smooth="yes"/>
      <point x="486" y="93"/>
      <point x="584" y="196"/>
      <point x="584" y="308" type="qcurve" smooth="yes"/>
    </contour>
  </outline>
</glyph>
<glyph name="longs" format="2">
  <advance width="312"/>
  <unicode hex="017F"/>
  <outline>
    <contour>
      <point x="112" y="0" type="line"/>
      <point x="112" y="570" type="line" smooth="yes"/>
      <point x="112" y="651"/>
      <point x="207" y="748"/>
      <point x="296" y="748" type="qcurve" smooth="yes"/>
      <point x="328" y="748"/>
      <point x="385" y="734"/>
      <point x="405" y="719" type="qcurve"/>
      <point x="373" y="635" type="line"/>
      <point x="359" y="646"/>
      <point x="322" y="658"/>
      <point x="302" y="658" type="qcurve" smooth="yes"/>
      <point x="263" y="658"/>
      <point x="222" y="613"/>
      <point x="222" y="569" type="qcurve" smooth="yes"/>
      <point x="222" y="0" type="line"/>
    </contour>
    <contour>
      <point x="23" y="442" type="line"/>
      <point x="23" y="532" type="line"/>
      <point x="167" y="532" type="line"/>
      <point x="167" y="442" type="line"/>
    </contour>
  </outline>
</glyph>
<glyph name="florin" format="2">
  <advance width="456"/>
  <unicode hex="0192"/>
  <outline>
    <contour>
      <point x="22" y="-200" type="qcurve" smooth="yes"/>
      <point x="-12" y="-200"/>
      <point x="-73" y="-184"/>
      <point x="-93" y="-168" type="qcurve"/>
      <point x="-53" y="-85" type="line"/>
      <point x="-25" y="-108"/>
      <point x="17" y="-108" type="qcurve" smooth="yes"/>
      <point x="54" y="-108"/>
      <point x="101" y="-63"/>
      <point x="106" y="-19" type="qcurve" smooth="yes"/>
      <point x="180" y="570" type="line"/>
      <point x="189" y="651"/>
      <point x="293" y="748"/>
      <point x="378" y="748" type="qcurve" smooth="yes"/>
      <point x="410" y="748"/>
      <point x="471" y="733"/>
      <point x="490" y="716" type="qcurve"/>
      <point x="449" y="633" type="line"/>
      <point x="436" y="644"/>
      <point x="401" y="656"/>
      <point x="381" y="656" type="qcurve" smooth="yes"/>
      <point x="341" y="656"/>
      <point x="292" y="611"/>
      <point x="286" y="567" type="qcurve" smooth="yes"/>
      <point x="278" y="503" type="line"/>
      <point x="276" y="453" type="line"/>
      <point x="216" y="-22" type="line" smooth="yes"/>
      <point x="206" y="-103"/>
      <point x="105" y="-200"/>
    </contour>
    <contour>
      <point x="73" y="427" type="line"/>
      <point x="84" y="517" type="line"/>
      <point x="430" y="517" type="line"/>
      <point x="420" y="427" type="line"/>
    </contour>
  </outline>
</glyph>
<glyph name="Ohorn" format="2">
  <advance width="841"/>
  <unicode hex="01A0"/>
  <anchor x="427" y="700" name="t.uni0308"/>
  <anchor x="427" y="0" name="b.uni0324_3"/>
  <outline>
    <contour>
      <point x="421" y="-9" type="qcurve" smooth="yes"/>
      <point x="340" y="-9"/>
      <point x="203" y="45"/>
      <point x="102" y="142"/>
      <point x="46" y="273"/>
      <point x="46" y="350" type="qcurve" smooth="yes"/>
      <point x="46" y="428"/>
      <point x="102" y="559"/>
      <point x="204" y="656"/>
      <point x="343" y="709"/>
      <point x="425" y="709" type="qcurve" smooth="yes"/>
      <point x="484" y="709"/>
      <point x="573" y="695"/>
      <point x="614" y="695" type="qcurve" smooth="yes"/>
      <point x="658" y="695"/>
      <point x="706" y="731"/>
      <point x="706" y="766" type="qcurve" smooth="yes"/>
      <point x="706" y="784"/>
      <point x="694" y="815"/>
      <point x="686" y="828" type="qcurve"/>
      <point x="754" y="854" type="line"/>
      <point x="768" y="835"/>
      <point x="783" y="788"/>
      <point x="783" y="762" type="qcurve" smooth="yes"/>
      <point x="783" y="697"/>
      <point x="692" y="624"/>
      <point x="609" y="624" type="qcurve" smooth="yes"/>
      <point x="578" y="624"/>
      <point x="511" y="632"/>
      <point x="481" y="636" type="qcurve"/>
      <point x="626" y="653" type="line"/>
      <point x="676" y="625"/>
      <point x="752" y="534"/>
      <point x="795" y="417"/>
      <point x="795" y="350" type="qcurve" smooth="yes"/>
      <point x="795" y="272"/>
      <point x="739" y="141"/>
      <point x="638" y="44"/>
      <point x="502" y="-9"/>
    </contour>
    <contour>
      <point x="421" y="93" type="qcurve" smooth="yes"/>
      <point x="477" y="93"/>
      <point x="571" y="132"/>
      <point x="641" y="201"/>
      <point x="680" y="295"/>
      <point x="680" y="350" type="qcurve" smooth="yes"/>
      <point x="680" y="405"/>
      <point x="641" y="499"/>
      <point x="571" y="568"/>
      <point x="477" y="607"/>
      <point x="421" y="607" type="qcurve" smooth="yes"/>
      <point x="365" y="607"/>
      <point x="270" y="569"/>
      <point x="200" y="499"/>
      <point x="161" y="406"/>
      <point x="161" y="350" type="qcurve" smooth="yes"/>
      <point x="161" y="295"/>
      <point x="200" y="201"/>
      <point x="270" y="131"/>
      <point x="365" y="93"/>
    </contour>
  </outline>
</glyph>
<glyph name="ohorn" format="2">
  <advance width="640"/>
  <unicode hex="01A1"/>
  <anchor x="354" y="562" name="t.uni0308"/>
  <anchor x="354" y="0" name="b.uni0324_3"/>
  <outline>
    <contour>
      <point x="320" y="-6" type="qcurve" smooth="yes"/>
      <point x="239" y="-6"/>
      <point x="113" y="64"/>
      <point x="40" y="187"/>
      <point x="40" y="266" type="qcurve" smooth="yes"/>
      <point x="40" y="346"/>
      <point x="113" y="468"/>
      <point x="240" y="538"/>
      <point x="321" y="538" type="qcurve" smooth="yes"/>
      <point x="348" y="538"/>
      <point x="385" y="535"/>
      <point x="420" y="531"/>
      <point x="441" y="531" type="qcurve" smooth="yes"/>
      <point x="479" y="531"/>
      <point x="514" y="570"/>
      <point x="514" y="598" type="qcurve" smooth="yes"/>
      <point x="514" y="616"/>
      <point x="502" y="647"/>
      <point x="493" y="660" type="qcurve"/>
      <point x="561" y="686" type="line"/>
      <point x="574" y="667"/>
      <point x="591" y="620"/>
      <point x="591" y="594" type="qcurve" smooth="yes"/>
      <point x="591" y="553"/>
      <point x="553" y="492"/>
      <point x="482" y="459"/>
      <point x="432" y="459" type="qcurve" smooth="yes"/>
      <point x="415" y="459"/>
      <point x="380" y="463"/>
      <point x="361" y="466" type="qcurve"/>
      <point x="428" y="518" type="line"/>
      <point x="506" y="489"/>
      <point x="600" y="356"/>
      <point x="600" y="266" type="qcurve" smooth="yes"/>
      <point x="600" y="187"/>
      <point x="528" y="64"/>
      <point x="401" y="-6"/>
    </contour>
    <contour>
      <point x="320" y="90" type="qcurve" smooth="yes"/>
      <point x="368" y="90"/>
      <point x="444" y="133"/>
      <point x="489" y="213"/>
      <point x="489" y="266" type="qcurve" smooth="yes"/>
      <point x="489" y="320"/>
      <point x="445" y="399"/>
      <point x="369" y="442"/>
      <point x="320" y="442" type="qcurve" smooth="yes"/>
      <point x="272" y="442"/>
      <point x="196" y="399"/>
      <point x="151" y="320"/>
      <point x="151" y="266" type="qcurve" smooth="yes"/>
      <point x="151" y="213"/>
      <point x="196" y="133"/>
      <point x="272" y="90"/>
    </contour>
  </outline>
</glyph>
<glyph name="uni01E5" format="2">
  <advance width="701"/>
  <unicode hex="01E5"/>
  <outline>
    <contour>
      <point x="323" y="-200" type="qcurve" smooth="yes"/>
      <point x="250" y="-200"/>
      <point x="110" y="-161"/>
      <point x="65" y="-123" type="qcurve"/>
      <point x="118" y="-38" type="line"/>
      <point x="154" y="-68"/>
      <point x="262" y="-104"/>
      <point x="319" y="-104" type="qcurve" smooth="yes"/>
      <point x="410" y="-104"/>
      <point x="495" y="-20"/>
      <point x="495" y="65" type="qcurve" smooth="yes"/>
      <point x="495" y="168" type="line"/>
      <point x="505" y="281" type="line"/>
      <point x="500" y="395" type="line"/>
      <point x="500" y="532" type="line"/>
      <point x="605" y="532" type="line"/>
      <point x="605" y="77" type="line" smooth="yes"/>
      <point x="605" y="-66"/>
      <point x="461" y="-200"/>
    </contour>
    <contour>
      <point x="281" y="-56" type="line"/>
      <point x="281" y="18" type="line"/>
      <point x="669" y="19" type="line"/>
      <point x="669" y="-56" type="line"/>
    </contour>
    <contour>
      <point x="312" y="48" type="qcurve" smooth="yes"/>
      <point x="234" y="48"/>
      <point x="111" y="110"/>
      <point x="40" y="221"/>
      <point x="40" y="294" type="qcurve" smooth="yes"/>
      <point x="40" y="367"/>
      <point x="111" y="477"/>
      <point x="234" y="538"/>
      <point x="312" y="538" type="qcurve" smooth="yes"/>
      <point x="379" y="538"/>
      <point x="490" y="486"/>
      <point x="558" y="379"/>
      <point x="558" y="294" type="qcurve" smooth="yes"/>
      <point x="558" y="209"/>
      <point x="490" y="100"/>
      <point x="379" y="48"/>
    </contour>
    <contour>
      <point x="324" y="140" type="qcurve" smooth="yes"/>
      <point x="375" y="140"/>
      <point x="453" y="179"/>
      <point x="497" y="248"/>
      <point x="497" y="294" type="qcurve" smooth="yes"/>
      <point x="497" y="340"/>
      <point x="453" y="408"/>
      <point x="375" y="447"/>
      <point x="324" y="447" type="qcurve" smooth="yes"/>
      <point x="274" y="447"/>
      <point x="195" y="408"/>
      <point x="151" y="340"/>
      <point x="151" y="294" type="qcurve" smooth="yes"/>
      <point x="151" y="248"/>
      <point x="195" y="179"/>
      <point x="274" y="140"/>
    </contour>
  </outline>
</glyph>
<glyph name="uni01EA" format="2">
  <advance width="841"/>
  <unicode hex="01EA"/>
  <anchor x="427" y="700" name="t.uni0308"/>
  <outline>
    <contour>
      <point x="432" y="-226" type="qcurve" smooth="yes"/>
      <point x="373" y="-226"/>
      <point x="307" y="-168"/>
      <point x="307" y="-122" type="qcurve" smooth="yes"/>
      <point x="307" y="-94"/>
      <point x="334" y="-37"/>
      <point x="398" y="15"/>
      <point x="451" y="35" type="qcurve"/>
      <point x="458" y="-7" type="line"/>
      <point x="447" y="-8"/>
      <point x="429" y="-9"/>
      <point x="421" y="-9" type="qcurve" smooth="yes"/>
      <point x="340" y="-9"/>
      <point x="204" y="44"/>
      <point x="102" y="141"/>
      <point x="46" y="272"/>
      <point x="46" y="350" type="qcurve" smooth="yes"/>
      <point x="46" y="428"/>
      <point x="102" y="559"/>
      <point x="204" y="656"/>
      <point x="340" y="709"/>
      <point x="421" y="709" type="qcurve" smooth="yes"/>
      <point x="502" y="709"/>
      <point x="638" y="656"/>
      <point x="739" y="559"/>
      <point x="795" y="428"/>
      <point x="795" y="350" type="qcurve" smooth="yes"/>
      <point x="795" y="261"/>
      <point x="724" y="120"/>
      <point x="603" y="26"/>
      <point x="528" y="6" type="qcurve" smooth="yes"/>
      <point x="483" y="-6"/>
      <point x="418" y="-43"/>
      <point x="384" y="-88"/>
      <point x="384" y="-113" type="qcurve" smooth="yes"/>
      <point x="384" y="-137"/>
      <point x="418" y="-163"/>
      <point x="444" y="-163" type="qcurve" smooth="yes"/>
      <point x="460" y="-163"/>
      <point x="493" y="-154"/>
      <point x="505" y="-147" type="qcurve"/>
      <point x="525" y="-203" type="line"/>
      <point x="506" y="-213"/>
      <point x="458" y="-226"/>
    </contour>
    <contour>
      <point x="421" y="93" type="qcurve" smooth="yes"/>
      <point x="477" y="93"/>
      <point x="571" y="131"/>
      <point x="641" y="201"/>
      <point x="680" y="295"/>
      <point x="680" y="350" type="qcurve" smooth="yes"/>
      <point x="680" y="406"/>
      <point x="641" y="499"/>
      <point x="571" y="569"/>
      <point x="477" y="607"/>
      <point x="421" y="607" type="qcurve" smooth="yes"/>
      <point x="365" y="607"/>
      <point x="270" y="569"/>
      <point x="200" y="499"/>
      <point x="161" y="406"/>
      <point x="161" y="350" type="qcurve" smooth="yes"/>
      <point x="161" y="295"/>
      <point x="200" y="201"/>
      <point x="270" y="131"/>
      <point x="365" y="93"/>
    </contour>
  </outline>
</glyph>
<glyph name="uni01EB" format="2">
  <advance width="640"/>
  <unicode hex="01EB"/>
  <anchor x="350" y="562" name="t.uni0308"/>
  <anchor x="350" y="281" name="t.uni0307_1"/>
  <anchor x="417" y="561" name="t.uni031B_2"/>
  <anchor x="350" y="0" name="b.uni0324_3"/>
  <outline>
    <contour>
      <point x="349" y="-226" type="qcurve" smooth="yes"/>
      <point x="290" y="-226"/>
      <point x="224" y="-168"/>
      <point x="224" y="-124" type="qcurve" smooth="yes"/>
      <point x="224" y="-95"/>
      <point x="251" y="-37"/>
      <point x="313" y="15"/>
      <point x="364" y="35" type="qcurve"/>
      <point x="373" y="-2" type="line"/>
      <point x="357" y="-4"/>
      <point x="332" y="-6"/>
      <point x="320" y="-6" type="qcurve" smooth="yes"/>
      <point x="239" y="-6"/>
      <point x="113" y="64"/>
      <point x="40" y="187"/>
      <point x="40" y="266" type="qcurve" smooth="yes"/>
      <point x="40" y="346"/>
      <point x="113" y="468"/>
      <point x="239" y="538"/>
      <point x="320" y="538" type="qcurve" smooth="yes"/>
      <point x="401" y="538"/>
      <point x="528" y="468"/>
      <point x="600" y="346"/>
      <point x="600" y="266" type="qcurve" smooth="yes"/>
      <point x="600" y="178"/>
      <point x="511" y="47"/>
      <point x="436" y="15" type="qcurve" smooth="yes"/>
      <point x="382" y="-8"/>
      <point x="324" y="-52"/>
      <point x="301" y="-93"/>
      <point x="301" y="-112" type="qcurve" smooth="yes"/>
      <point x="301" y="-137"/>
      <point x="335" y="-163"/>
      <point x="361" y="-163" type="qcurve" smooth="yes"/>
      <point x="377" y="-163"/>
      <point x="410" y="-154"/>
      <point x="422" y="-147" type="qcurve"/>
      <point x="442" y="-203" type="line"/>
      <point x="423" y="-213"/>
      <point x="375" y="-226"/>
    </contour>
    <contour>
      <point x="320" y="90" type="qcurve" smooth="yes"/>
      <point x="369" y="90"/>
      <point x="445" y="133"/>
      <point x="489" y="213"/>
      <point x="489" y="266" type="qcurve" smooth="yes"/>
      <point x="489" y="320"/>
      <point x="445" y="399"/>
      <point x="369" y="442"/>
      <point x="320" y="442" type="qcurve" smooth="yes"/>
      <point x="272" y="442"/>
      <point x="196" y="399"/>
      <point x="151" y="320"/>
      <point x="151" y="266" type="qcurve" smooth="yes"/>
      <point x="151" y="213"/>
      <point x="196" y="133"/>
      <point x="272" y="90"/>
    </contour>
  </outline>
</glyph>
<glyph name="uni0237" format="2">
  <advance width="289"/>
  <unicode hex="0237"/>
  <anchor x="188" y="562" name="t.uni0308"/>
  <outline>
    <contour>
      <point x="24" y="-200" type="qcurve" smooth="yes"/>
      <point x="-10" y="-200"/>
      <point x="-72" y="-185"/>
      <point x="-93" y="-169" type="qcurve"/>
      <point x="-59" y="-85" type="line"/>
      <point x="-30" y="-108"/>
      <point x="17" y="-108" type="qcurve" smooth="yes"/>
      <point x="53" y="-108"/>
      <point x="92" y="-63"/>
      <point x="92" y="-19" type="qcurve" smooth="yes"/>
      <point x="92" y="532" type="line"/>
      <point x="202" y="532" type="line"/>
      <point x="202" y="-16" type="line" smooth="yes"/>
      <point x="202" y="-101"/>
      <point x="110" y="-200"/>
    </contour>
  </outline>
</glyph>
<glyph name="uni0259" format="2">
  <advance width="617"/>
  <unicode hex="0259"/>
  <anchor x="341" y="562" name="t.uni0308"/>
  <anchor x="341" y="0" name="b.uni0324_3"/>
  <anchor x="99" y="562" name="m.uni0328_4"/>
  <outline>
    <contour>
      <point x="287" y="538" type="qcurve" smooth="yes"/>
      <point x="375" y="538"/>
      <point x="505" y="468"/>
      <point x="577" y="346"/>
      <point x="577" y="266" type="qcurve" smooth="yes"/>
      <point x="577" y="187"/>
      <point x="507" y="64"/>
      <point x="384" y="-6"/>
      <point x="306" y="-6" type="qcurve" smooth="yes"/>
      <point x="228" y="-6"/>
      <point x="108" y="63"/>
      <point x="40" y="188"/>
      <point x="40" y="270" type="qcurve" smooth="yes"/>
      <point x="40" y="277"/>
      <point x="41" y="296"/>
      <point x="42" y="304" type="qcurve"/>
      <point x="490" y="304" type="line"/>
      <point x="490" y="225" type="line"/>
      <point x="100" y="225" type="line"/>
      <point x="144" y="251" type="line"/>
      <point x="144" y="203"/>
      <point x="185" y="129"/>
      <point x="258" y="87"/>
      <point x="306" y="87" type="qcurve" smooth="yes"/>
      <point x="354" y="87"/>
      <point x="428" y="129"/>
      <point x="469" y="205"/>
      <point x="469" y="254" type="qcurve" smooth="yes"/>
      <point x="469" y="272" type="line" smooth="yes"/>
      <point x="469" y="323"/>
      <point x="423" y="399"/>
      <point x="340" y="442"/>
      <point x="284" y="442" type="qcurve" smooth="yes"/>
      <point x="238" y="442"/>
      <point x="164" y="412"/>
      <point x="135" y="381" type="qcurve"/>
      <point x="75" y="452" type="line"/>
      <point x="111" y="494"/>
      <point x="220" y="538"/>
    </contour>
  </outline>
</glyph>
<glyph name="uni02BE" format="2">
  <advance width="600"/>
  <unicode hex="02BE"/>
  <outline>
    <contour>
      <point x="299" y="594" type="qcurve"/>
      <point x="299" y="642" type="line"/>
      <point x="328" y="642"/>
      <point x="364" y="678"/>
      <point x="364" y="705" type="qcurve" smooth="yes"/>
      <point x="364" y="733"/>
      <point x="327" y="769"/>
      <point x="299" y="769" type="qcurve"/>
      <point x="299" y="818" type="line"/>
      <point x="333" y="818"/>
      <point x="385" y="787"/>
      <point x="415" y="736"/>
      <point x="415" y="705" type="qcurve" smooth="yes"/>
      <point x="415" y="674"/>
      <point x="385" y="624"/>
      <point x="333" y="594"/>
    </contour>
  </outline>
</glyph>
<glyph name="uni02BF" format="2">
  <advance width="600"/>
  <unicode hex="02BF"/>
  <outline>
    <contour>
      <point x="299" y="594" type="line"/>
      <point x="266" y="594"/>
      <point x="213" y="624"/>
      <point x="183" y="674"/>
      <point x="183" y="705" type="qcurve" smooth="yes"/>
      <point x="183" y="736"/>
      <point x="213" y="787"/>
      <point x="266" y="818"/>
      <point x="299" y="818" type="qcurve"/>
      <point x="299" y="769" type="line"/>
      <point x="272" y="769"/>
      <point x="235" y="733"/>
      <point x="235" y="705" type="qcurve" smooth="yes"/>
      <point x="235" y="678"/>
      <point x="271" y="642"/>
      <point x="299" y="642" type="qcurve"/>
    </contour>
  </outline>
</glyph>
<glyph name="uni02C8" format="2">
  <advance width="175"/>
  <unicode hex="02C8"/>
  <outline>
    <contour>
      <point x="50" y="508" type="line"/>
      <point x="50" y="700" type="line"/>
      <point x="125" y="700" type="line"/>
      <point x="125" y="508" type="line"/>
    </contour>
  </outline>
</glyph>
<glyph name="uni02CA" format="2">
  <advance width="600"/>
  <unicode hex="02CA"/>
  <outline>
    <contour>
      <point x="219" y="607" type="line"/>
      <point x="355" y="741" type="line"/>
      <point x="492" y="741" type="line"/>
      <point x="321" y="607" type="line"/>
    </contour>
  </outline>
</glyph>
<glyph name="uni02CB" format="2">
  <advance width="600"/>
  <unicode hex="02CB"/>
  <outline>
    <contour>
      <point x="279" y="607" type="line"/>
      <point x="108" y="741" type="line"/>
      <point x="245" y="741" type="line"/>
      <point x="381" y="607" type="line"/>
    </contour>
  </outline>
</glyph>
<glyph name="uni02CC" format="2">
  <advance width="176"/>
  <unicode hex="02CC"/>
  <outline>
    <contour>
      <point x="50" y="-222" type="line"/>
      <point x="50" y="-30" type="line"/>
      <point x="126" y="-30" type="line"/>
      <point x="126" y="-222" type="line"/>
    </contour>
  </outline>
</glyph>
<glyph name="gravecomb" format="2">
  <unicode hex="0300"/>
  <anchor x="300" y="562" name="_t.uni0308"/>
  <anchor x="300" y="562" name="_t.uni0308_2"/>
  <anchor x="300" y="562" name="_m.uni0308"/>
  <anchor x="300" y="809" name="m.uni0308"/>
  <outline>
    <contour>
      <point x="279" y="607" type="line"/>
      <point x="108" y="741" type="line"/>
      <point x="245" y="741" type="line"/>
      <point x="381" y="607" type="line"/>
    </contour>
  </outline>
</glyph>
<glyph name="acutecomb" format="2">
  <unicode hex="0301"/>
  <anchor x="300" y="562" name="_t.uni0308"/>
  <anchor x="300" y="562" name="_t.uni0308_2"/>
  <anchor x="300" y="562" name="_m.uni0308"/>
  <anchor x="300" y="809" name="m.uni0308"/>
  <outline>
    <contour>
      <point x="229" y="607" type="line"/>
      <point x="272" y="741" type="line"/>
      <point x="394" y="741" type="line"/>
      <point x="316" y="607" type="line"/>
    </contour>
  </outline>
</glyph>
<glyph name="uni0302" format="2">
  <unicode hex="0302"/>
  <anchor x="300" y="562" name="_t.uni0308"/>
  <anchor x="300" y="562" name="_t.uni0308_2"/>
  <anchor x="300" y="562" name="_m.uni0308"/>
  <anchor x="300" y="799" name="m.uni0308"/>
  <outline>
    <contour>
      <point x="114" y="607" type="line"/>
      <point x="249" y="741" type="line"/>
      <point x="351" y="741" type="line"/>
      <point x="486" y="607" type="line"/>
      <point x="389" y="607" type="line"/>
      <point x="253" y="720" type="line"/>
      <point x="347" y="720" type="line"/>
      <point x="211" y="607" type="line"/>
    </contour>
  </outline>
</glyph>
<glyph name="tildecomb" format="2">
  <unicode hex="0303"/>
  <anchor x="300" y="562" name="_t.uni0308"/>
  <anchor x="300" y="562" name="_t.uni0308_2"/>
  <anchor x="300" y="562" name="_m.uni0308"/>
  <anchor x="300" y="799" name="m.uni0308"/>
  <outline>
    <contour>
      <point x="371" y="608" type="qcurve" smooth="yes"/>
      <point x="347" y="608"/>
      <point x="309" y="628"/>
      <point x="278" y="655"/>
      <point x="251" y="675"/>
      <point x="237" y="675" type="qcurve" smooth="yes"/>
      <point x="215" y="675"/>
      <point x="189" y="643"/>
      <point x="187" y="614" type="qcurve"/>
      <point x="126" y="614" type="line"/>
      <point x="128" y="673"/>
      <point x="183" y="742"/>
      <point x="229" y="742" type="qcurve" smooth="yes"/>
      <point x="253" y="742"/>
      <point x="292" y="722"/>
      <point x="323" y="695"/>
      <point x="350" y="675"/>
      <point x="363" y="675" type="qcurve" smooth="yes"/>
      <point x="385" y="675"/>
      <point x="412" y="706"/>
      <point x="413" y="734" type="qcurve"/>
      <point x="474" y="734" type="line"/>
      <point x="473" y="678"/>
      <point x="417" y="608"/>
    </contour>
  </outline>
</glyph>
<glyph name="uni0304" format="2">
  <unicode hex="0304"/>
  <anchor x="300" y="562" name="_t.uni0308"/>
  <anchor x="300" y="562" name="_t.uni0308_2"/>
  <anchor x="300" y="562" name="_m.uni0308"/>
  <anchor x="300" y="779" name="m.uni0308"/>
  <outline>
    <contour>
      <point x="132" y="640" type="line"/>
      <point x="132" y="708" type="line"/>
      <point x="468" y="708" type="line"/>
      <point x="468" y="640" type="line"/>
    </contour>
  </outline>
</glyph>
<glyph name="uni0306" format="2">
  <unicode hex="0306"/>
  <anchor x="300" y="562" name="_t.uni0308"/>
  <anchor x="300" y="562" name="_t.uni0308_2"/>
  <anchor x="300" y="562" name="_m.uni0308"/>
  <anchor x="300" y="799" name="m.uni0308"/>
  <outline>
    <contour>
      <point x="300" y="601" type="qcurve" smooth="yes"/>
      <point x="230" y="601"/>
      <point x="135" y="676"/>
      <point x="132" y="741" type="qcurve"/>
      <point x="206" y="741" type="line"/>
      <point x="208" y="705"/>
      <point x="262" y="663"/>
      <point x="300" y="663" type="qcurve" smooth="yes"/>
      <point x="338" y="663"/>
      <point x="393" y="705"/>
      <point x="394" y="741" type="qcurve"/>
      <point x="468" y="741" type="line"/>
      <point x="465" y="676"/>
      <point x="370" y="601"/>
    </contour>
  </outline>
</glyph>
<glyph name="uni0307" format="2">
  <unicode hex="0307"/>
  <anchor x="300" y="562" name="_t.uni0308"/>
  <anchor x="300" y="729" name="_t.uni0307_1"/>
  <anchor x="300" y="562" name="_t.uni0308_2"/>
  <anchor x="300" y="562" name="_m.uni0308"/>
  <anchor x="300" y="883" name="m.uni0308"/>
  <outline>
    <contour>
      <point x="300" y="622" type="qcurve" smooth="yes"/>
      <point x="272" y="622"/>
      <point x="235" y="659"/>
      <point x="235" y="687" type="qcurve" smooth="yes"/>
      <point x="235" y="715"/>
      <point x="272" y="752"/>
      <point x="300" y="752" type="qcurve" smooth="yes"/>
      <point x="328" y="752"/>
      <point x="365" y="715"/>
      <point x="365" y="687" type="qcurve" smooth="yes"/>
      <point x="365" y="659"/>
      <point x="328" y="622"/>
    </contour>
  </outline>
</glyph>
<glyph name="uni0308" format="2">
  <unicode hex="0308"/>
  <anchor x="300" y="562" name="_t.uni0308"/>
  <anchor x="300" y="562" name="_t.uni0308_2"/>
  <anchor x="300" y="562" name="_m.uni0308"/>
  <anchor x="300" y="793" name="m.uni0308"/>
  <outline>
    <contour>
      <point x="395" y="621" type="qcurve" smooth="yes"/>
      <point x="372" y="621"/>
      <point x="339" y="652"/>
      <point x="339" y="677" type="qcurve" smooth="yes"/>
      <point x="339" y="702"/>
      <point x="372" y="733"/>
      <point x="395" y="733" type="qcurve" smooth="yes"/>
      <point x="418" y="733"/>
      <point x="451" y="702"/>
      <point x="451" y="677" type="qcurve" smooth="yes"/>
      <point x="451" y="652"/>
      <point x="418" y="621"/>
    </contour>
    <contour>
      <point x="205" y="621" type="qcurve" smooth="yes"/>
      <point x="182" y="621"/>
      <point x="149" y="652"/>
      <point x="149" y="677" type="qcurve" smooth="yes"/>
      <point x="149" y="702"/>
      <point x="182" y="733"/>
      <point x="205" y="733" type="qcurve" smooth="yes"/>
      <point x="228" y="733"/>
      <point x="261" y="702"/>
      <point x="261" y="677" type="qcurve" smooth="yes"/>
      <point x="261" y="652"/>
      <point x="228" y="621"/>
    </contour>
  </outline>
</glyph>
<glyph name="hookabovecomb" format="2">
  <unicode hex="0309"/>
  <anchor x="300" y="562" name="_t.uni0308"/>
  <anchor x="300" y="562" name="_t.uni0308_2"/>
  <anchor x="300" y="562" name="_m.uni0308"/>
  <anchor x="300" y="879" name="m.uni0308"/>
  <outline>
    <contour>
      <point x="322" y="597" type="qcurve"/>
      <point x="285" y="640" type="line"/>
      <point x="314" y="654"/>
      <point x="340" y="686"/>
      <point x="340" y="706" type="qcurve" smooth="yes"/>
      <point x="340" y="726"/>
      <point x="312" y="751"/>
      <point x="289" y="751" type="qcurve" smooth="yes"/>
      <point x="258" y="751"/>
      <point x="229" y="732" type="qcurve"/>
      <point x="205" y="782" type="line"/>
      <point x="225" y="797"/>
      <point x="275" y="812"/>
      <point x="300" y="812" type="qcurve" smooth="yes"/>
      <point x="347" y="812"/>
      <point x="406" y="759"/>
      <point x="406" y="715" type="qcurve" smooth="yes"/>
      <point x="406" y="676"/>
      <point x="365" y="617"/>
    </contour>
  </outline>
</glyph>
<glyph name="uni030A" format="2">
  <unicode hex="030A"/>
  <anchor x="300" y="562" name="_t.uni0308"/>
  <anchor x="300" y="562" name="_t.uni0308_2"/>
  <anchor x="300" y="562" name="_m.uni0308"/>
  <anchor x="300" y="883" name="m.uni0308"/>
  <outline>
    <contour>
      <point x="299" y="594" type="qcurve" smooth="yes"/>
      <point x="267" y="594"/>
      <point x="216" y="624"/>
      <point x="186" y="674"/>
      <point x="186" y="705" type="qcurve" smooth="yes"/>
      <point x="186" y="736"/>
      <point x="216" y="787"/>
      <point x="267" y="818"/>
      <point x="299" y="818" type="qcurve" smooth="yes"/>
      <point x="332" y="818"/>
      <point x="383" y="787"/>
      <point x="413" y="736"/>
      <point x="413" y="705" type="qcurve" smooth="yes"/>
      <point x="413" y="674"/>
      <point x="383" y="624"/>
      <point x="332" y="594"/>
    </contour>
    <contour>
      <point x="299" y="640" type="qcurve" smooth="yes"/>
      <point x="328" y="640"/>
      <point x="364" y="677"/>
      <point x="364" y="705" type="qcurve" smooth="yes"/>
      <point x="364" y="733"/>
      <point x="327" y="771"/>
      <point x="299" y="771" type="qcurve" smooth="yes"/>
      <point x="272" y="771"/>
      <point x="235" y="734"/>
      <point x="235" y="705" type="qcurve" smooth="yes"/>
      <point x="235" y="677"/>
      <point x="271" y="640"/>
    </contour>
  </outline>
</glyph>
<glyph name="uni030B" format="2">
  <unicode hex="030B"/>
  <anchor x="300" y="562" name="_t.uni0308"/>
  <anchor x="300" y="562" name="_t.uni0308_2"/>
  <anchor x="300" y="562" name="_m.uni0308"/>
  <anchor x="300" y="809" name="m.uni0308"/>
  <outline>
    <contour>
      <point x="345" y="607" type="line"/>
      <point x="430" y="741" type="line"/>
      <point x="544" y="741" type="line"/>
      <point x="436" y="607" type="line"/>
    </contour>
    <contour>
      <point x="164" y="607" type="line"/>
      <point x="250" y="741" type="line"/>
      <point x="364" y="741" type="line"/>
      <point x="255" y="607" type="line"/>
    </contour>
  </outline>
</glyph>
<glyph name="uni030F" format="2">
  <unicode hex="030F"/>
  <anchor x="300" y="562" name="_t.uni0308"/>
  <anchor x="300" y="562" name="_t.uni0308_2"/>
  <anchor x="300" y="562" name="_m.uni0308"/>
  <anchor x="300" y="809" name="m.uni0308"/>
  <outline>
    <contour>
      <point x="345" y="607" type="line"/>
      <point x="236" y="741" type="line"/>
      <point x="350" y="741" type="line"/>
      <point x="436" y="607" type="line"/>
    </contour>
    <contour>
      <point x="164" y="607" type="line"/>
      <point x="56" y="741" type="line"/>
      <point x="170" y="741" type="line"/>
      <point x="255" y="607" type="line"/>
    </contour>
  </outline>
</glyph>
<glyph name="uni0311" format="2">
  <unicode hex="0311"/>
  <anchor x="300" y="562" name="_t.uni0308"/>
  <anchor x="300" y="562" name="_t.uni0308_2"/>
  <anchor x="300" y="562" name="_m.uni0308"/>
  <anchor x="300" y="799" name="m.uni0308"/>
  <outline>
    <contour>
      <point x="132" y="607" type="line"/>
      <point x="135" y="672"/>
      <point x="230" y="747"/>
      <point x="300" y="747" type="qcurve" smooth="yes"/>
      <point x="370" y="747"/>
      <point x="465" y="672"/>
      <point x="468" y="607" type="qcurve"/>
      <point x="394" y="607" type="line"/>
      <point x="393" y="643"/>
      <point x="338" y="685"/>
      <point x="300" y="685" type="qcurve" smooth="yes"/>
      <point x="262" y="685"/>
      <point x="208" y="643"/>
      <point x="206" y="607" type="qcurve"/>
    </contour>
  </outline>
</glyph>
<glyph name="uni0312" format="2">
  <unicode hex="0312"/>
  <anchor x="300" y="562" name="_t.uni0308"/>
  <anchor x="300" y="562" name="_t.uni0308_2"/>
  <anchor x="300" y="562" name="_m.uni0308"/>
  <anchor x="300" y="853" name="m.uni0308"/>
  <outline>
    <contour>
      <point x="300" y="601" type="qcurve" smooth="yes"/>
      <point x="270" y="601"/>
      <point x="239" y="629"/>
      <point x="239" y="650" type="qcurve" smooth="yes"/>
      <point x="239" y="661"/>
      <point x="246" y="686"/>
      <point x="255" y="704" type="qcurve"/>
      <point x="294" y="797" type="line"/>
      <point x="356" y="797" type="line"/>
      <point x="314" y="658" type="line"/>
      <point x="300" y="699" type="line"/>
      <point x="329" y="699"/>
      <point x="361" y="673"/>
      <point x="361" y="650" type="qcurve" smooth="yes"/>
      <point x="361" y="628"/>
      <point x="330" y="601"/>
    </contour>
  </outline>
</glyph>
<glyph name="uni031B" format="2">
  <unicode hex="031B"/>
  <anchor x="300" y="562" name="_t.uni031B_2"/>
  <outline>
    <contour>
      <point x="281" y="450" type="line"/>
      <point x="281" y="532" type="line"/>
      <point x="300" y="532" type="line" smooth="yes"/>
      <point x="332" y="532"/>
      <point x="363" y="569"/>
      <point x="363" y="597" type="qcurve" smooth="yes"/>
      <point x="363" y="615"/>
      <point x="352" y="647"/>
      <point x="343" y="659" type="qcurve"/>
      <point x="412" y="685" type="line"/>
      <point x="426" y="667"/>
      <point x="441" y="620"/>
      <point x="441" y="593" type="qcurve" smooth="yes"/>
      <point x="441" y="528"/>
      <point x="366" y="450"/>
      <point x="300" y="450" type="qcurve" smooth="yes"/>
    </contour>
  </outline>
</glyph>
<glyph name="dotbelowcomb" format="2">
  <unicode hex="0323"/>
  <anchor x="300" y="-229" name="t.uni0324"/>
  <outline>
    <contour>
      <point x="300" y="-200" type="qcurve" smooth="yes"/>
      <point x="277" y="-200"/>
      <point x="244" y="-170"/>
      <point x="244" y="-145" type="qcurve" smooth="yes"/>
      <point x="244" y="-120"/>
      <point x="277" y="-88"/>
      <point x="300" y="-88" type="qcurve" smooth="yes"/>
      <point x="323" y="-88"/>
      <point x="356" y="-120"/>
      <point x="356" y="-145" type="qcurve" smooth="yes"/>
      <point x="356" y="-170"/>
      <point x="323" y="-200"/>
    </contour>
  </outline>
</glyph>
<glyph name="uni0324" format="2">
  <unicode hex="0324"/>
  <anchor x="300" y="-206" name="t.uni0324"/>
  <outline>
    <contour>
      <point x="389" y="-196" type="qcurve" smooth="yes"/>
      <point x="367" y="-196"/>
      <point x="335" y="-166"/>
      <point x="335" y="-142" type="qcurve" smooth="yes"/>
      <point x="335" y="-119"/>
      <point x="367" y="-88"/>
      <point x="389" y="-88" type="qcurve" smooth="yes"/>
      <point x="411" y="-88"/>
      <point x="443" y="-119"/>
      <point x="443" y="-142" type="qcurve" smooth="yes"/>
      <point x="443" y="-166"/>
      <point x="411" y="-196"/>
    </contour>
    <contour>
      <point x="211" y="-196" type="qcurve" smooth="yes"/>
      <point x="189" y="-196"/>
      <point x="158" y="-166"/>
      <point x="158" y="-142" type="qcurve" smooth="yes"/>
      <point x="158" y="-119"/>
      <point x="189" y="-88"/>
      <point x="211" y="-88" type="qcurve" smooth="yes"/>
      <point x="234" y="-88"/>
      <point x="266" y="-119"/>
      <point x="266" y="-142" type="qcurve" smooth="yes"/>
      <point x="266" y="-166"/>
      <point x="234" y="-196"/>
    </contour>
  </outline>
</glyph>
<glyph name="uni0326" format="2">
  <unicode hex="0326"/>
  <anchor x="300" y="-229" name="t.uni0324"/>
  <outline>
    <contour>
      <point x="254" y="-264" type="line"/>
      <point x="289" y="-146" type="line"/>
      <point x="300" y="-187" type="line"/>
      <point x="274" y="-187"/>
      <point x="244" y="-160"/>
      <point x="244" y="-138" type="qcurve" smooth="yes"/>
      <point x="244" y="-116"/>
      <point x="275" y="-88"/>
      <point x="300" y="-88" type="qcurve" smooth="yes"/>
      <point x="326" y="-88"/>
      <point x="356" y="-117"/>
      <point x="356" y="-138" type="qcurve" smooth="yes"/>
      <point x="356" y="-149"/>
      <point x="350" y="-176"/>
      <point x="341" y="-193" type="qcurve"/>
      <point x="310" y="-264" type="line"/>
    </contour>
  </outline>
</glyph>
<glyph name="uni0327" format="2">
  <unicode hex="0327"/>
  <outline>
    <contour>
      <point x="273" y="-226" type="qcurve" smooth="yes"/>
      <point x="246" y="-226"/>
      <point x="201" y="-215"/>
      <point x="182" y="-205" type="qcurve"/>
      <point x="204" y="-150" type="line"/>
      <point x="221" y="-158"/>
      <point x="254" y="-166"/>
      <point x="273" y="-166" type="qcurve" smooth="yes"/>
      <point x="302" y="-166"/>
      <point x="327" y="-146"/>
      <point x="327" y="-129" type="qcurve" smooth="yes"/>
      <point x="327" y="-113"/>
      <point x="301" y="-94"/>
      <point x="272" y="-94" type="qcurve" smooth="yes"/>
      <point x="243" y="-94" type="line"/>
      <point x="269" y="7" type="line"/>
      <point x="330" y="7" type="line"/>
      <point x="316" y="-49" type="line"/>
      <point x="360" y="-53"/>
      <point x="404" y="-100"/>
      <point x="404" y="-133" type="qcurve" smooth="yes"/>
      <point x="404" y="-176"/>
      <point x="332" y="-226"/>
    </contour>
  </outline>
</glyph>
<glyph name="uni0328" format="2">
  <unicode hex="0328"/>
  <anchor x="300" y="0" name="_m.uni0328_4"/>
  <outline>
    <contour>
      <point x="231" y="-226" type="qcurve" smooth="yes"/>
      <point x="172" y="-226"/>
      <point x="106" y="-168"/>
      <point x="106" y="-122" type="qcurve" smooth="yes"/>
      <point x="106" y="-94"/>
      <point x="134" y="-38"/>
      <point x="198" y="14"/>
      <point x="250" y="35" type="qcurve"/>
      <point x="301" y="0" type="line"/>
      <point x="259" y="-19"/>
      <point x="207" y="-56"/>
      <point x="183" y="-93"/>
      <point x="183" y="-113" type="qcurve" smooth="yes"/>
      <point x="183" y="-137"/>
      <point x="217" y="-163"/>
      <point x="243" y="-163" type="qcurve" smooth="yes"/>
      <point x="259" y="-163"/>
      <point x="292" y="-154"/>
      <point x="304" y="-147" type="qcurve"/>
      <point x="324" y="-203" type="line"/>
      <point x="305" y="-213"/>
      <point x="257" y="-226"/>
    </contour>
  </outline>
</glyph>
<glyph name="uni032E" format="2">
  <unicode hex="032E"/>
  <anchor x="300" y="-232" name="t.uni0324"/>
  <outline>
    <contour>
      <point x="300" y="-211" type="qcurve" smooth="yes"/>
      <point x="230" y="-211"/>
      <point x="135" y="-139"/>
      <point x="132" y="-79" type="qcurve"/>
      <point x="203" y="-79" type="line"/>
      <point x="203" y="-113"/>
      <point x="259" y="-152"/>
      <point x="300" y="-152" type="qcurve" smooth="yes"/>
      <point x="341" y="-152"/>
      <point x="397" y="-113"/>
      <point x="397" y="-79" type="qcurve"/>
      <point x="468" y="-79" type="line"/>
      <point x="465" y="-139"/>
      <point x="370" y="-211"/>
    </contour>
  </outline>
</glyph>
<glyph name="uni0331" format="2">
  <unicode hex="0331"/>
  <anchor x="300" y="-204" name="t.uni0324"/>
  <outline>
    <contour>
      <point x="132" y="-176" type="line"/>
      <point x="132" y="-108" type="line"/>
      <point x="468" y="-108" type="line"/>
      <point x="468" y="-176" type="line"/>
    </contour>
  </outline>
</glyph>
<glyph name="uni0335" format="2">
  <unicode hex="0335"/>
  <anchor x="300" y="429" name="_t.uni0307_1"/>
  <outline>
    <contour>
      <point x="100" y="399" type="line"/>
      <point x="100" y="476" type="line"/>
      <point x="500" y="476" type="line"/>
      <point x="500" y="399" type="line"/>
    </contour>
  </outline>
</glyph>
<glyph name="uni0336" format="2">
  <unicode hex="0336"/>
  <anchor x="544" y="429" name="_t.uni0307_1"/>
  <outline>
    <contour>
      <point x="37" y="392" type="line"/>
      <point x="37" y="482" type="line"/>
      <point x="850" y="482" type="line"/>
      <point x="850" y="392" type="line"/>
    </contour>
  </outline>
</glyph>
<glyph name="uni0337" format="2">
  <unicode hex="0337"/>
  <anchor x="364" y="412" name="_t.uni0307_1"/>
  <outline>
    <contour>
      <point x="102" y="249" type="line"/>
      <point x="53" y="314" type="line"/>
      <point x="332" y="527" type="line"/>
      <point x="381" y="461" type="line"/>
    </contour>
  </outline>
</glyph>
<glyph name="uni0338" format="2">
  <unicode hex="0338"/>
  <anchor x="337" y="282" name="_t.uni0307_1"/>
  <outline>
    <contour>
      <point x="60" y="-70" type="line"/>
      <point x="500" y="601" type="line"/>
      <point x="566" y="601" type="line"/>
      <point x="126" y="-70" type="line"/>
    </contour>
  </outline>
</glyph>
<glyph name="iotadieresistonos" format="2">
  <advance width="150"/>
  <unicode hex="0390"/>
  <anchor x="113" y="562" name="t.uni0308"/>
  <anchor x="113" y="0" name="b.uni0324_3"/>
  <anchor x="271" y="0" name="m.uni0328_4"/>
  <outline>
    <contour>
      <point x="20" y="0" type="line"/>
      <point x="20" y="532" type="line"/>
      <point x="130" y="532" type="line"/>
      <point x="130" y="0" type="line"/>
    </contour>
    <contour>
      <point x="34" y="741" type="line"/>
      <point x="77" y="875" type="line"/>
      <point x="199" y="875" type="line"/>
      <point x="121" y="741" type="line"/>
    </contour>
    <contour>
      <point x="168" y="589" type="qcurve" smooth="yes"/>
      <point x="145" y="589"/>
      <point x="112" y="620"/>
      <point x="112" y="645" type="qcurve" smooth="yes"/>
      <point x="112" y="670"/>
      <point x="145" y="701"/>
      <point x="168" y="701" type="qcurve" smooth="yes"/>
      <point x="191" y="701"/>
      <point x="224" y="670"/>
      <point x="224" y="645" type="qcurve" smooth="yes"/>
      <point x="224" y="620"/>
      <point x="191" y="589"/>
    </contour>
    <contour>
      <point x="-22" y="589" type="qcurve" smooth="yes"/>
      <point x="-45" y="589"/>
      <point x="-78" y="620"/>
      <point x="-78" y="645" type="qcurve" smooth="yes"/>
      <point x="-78" y="670"/>
      <point x="-45" y="701"/>
      <point x="-22" y="701" type="qcurve" smooth="yes"/>
      <point x="1" y="701"/>
      <point x="34" y="670"/>
      <point x="34" y="645" type="qcurve" smooth="yes"/>
      <point x="34" y="620"/>
      <point x="1" y="589"/>
    </contour>
  </outline>
</glyph>
<glyph name="Sigma" format="2">
  <advance width="691"/>
  <unicode hex="03A3"/>
  <anchor x="475" y="700" name="t.uni0308"/>
  <anchor x="475" y="0" name="b.uni0324_3"/>
  <outline>
    <contour>
      <point x="643" y="0" type="line"/>
      <point x="42" y="0" type="line"/>
      <point x="42" y="94" type="line"/>
      <point x="348" y="377" type="line"/>
      <point x="348" y="327" type="line"/>
      <point x="42" y="606" type="line"/>
      <point x="42" y="700" type="line"/>
      <point x="643" y="701" type="line"/>
      <point x="643" y="591" type="line"/>
      <point x="216" y="590" type="line"/>
      <point x="216" y="615" type="line"/>
      <point x="447" y="376" type="line"/>
      <point x="447" y="324" type="line"/>
      <point x="216" y="82" type="line"/>
      <point x="216" y="110" type="line"/>
      <point x="643" y="110" type="line"/>
    </contour>
  </outline>
</glyph>
<glyph name="Iotadieresis" format="2">
  <advance width="314"/>
  <unicode hex="03AA"/>
  <anchor x="189" y="700" name="t.uni0308"/>
  <anchor x="189" y="0" name="b.uni0324_3"/>
  <anchor x="354" y="0" name="m.uni0328_4"/>
  <outline>
    <contour>
      <point x="100" y="0" type="line"/>
      <point x="100" y="700" type="line"/>
      <point x="214" y="700" type="line"/>
      <point x="214" y="0" type="line"/>
    </contour>
    <contour>
      <point x="244" y="761" type="qcurve" smooth="yes"/>
      <point x="221" y="761"/>
      <point x="188" y="792"/>
      <point x="188" y="817" type="qcurve" smooth="yes"/>
      <point x="188" y="842"/>
      <point x="221" y="873"/>
      <point x="244" y="873" type="qcurve" smooth="yes"/>
      <point x="267" y="873"/>
      <point x="300" y="842"/>
      <point x="300" y="817" type="qcurve" smooth="yes"/>
      <point x="300" y="792"/>
      <point x="267" y="761"/>
    </contour>
    <contour>
      <point x="54" y="761" type="qcurve" smooth="yes"/>
      <point x="31" y="761"/>
      <point x="-2" y="792"/>
      <point x="-2" y="817" type="qcurve" smooth="yes"/>
      <point x="-2" y="842"/>
      <point x="31" y="873"/>
      <point x="54" y="873" type="qcurve" smooth="yes"/>
      <point x="77" y="873"/>
      <point x="110" y="842"/>
      <point x="110" y="817" type="qcurve" smooth="yes"/>
      <point x="110" y="792"/>
      <point x="77" y="761"/>
    </contour>
  </outline>
</glyph>
<glyph name="alphatonos" format="2">
  <advance width="597"/>
  <unicode hex="03AC"/>
  <anchor x="343" y="562" name="t.uni0308"/>
  <anchor x="343" y="0" name="b.uni0324_3"/>
  <anchor x="647" y="0" name="m.uni0328_4"/>
  <outline>
    <contour>
      <point x="276" y="-6" type="qcurve" smooth="yes"/>
      <point x="198" y="-6"/>
      <point x="75" y="62"/>
      <point x="5" y="184"/>
      <point x="5" y="266" type="qcurve" smooth="yes"/>
      <point x="5" y="348"/>
      <point x="75" y="470"/>
      <point x="198" y="538"/>
      <point x="276" y="538" type="qcurve" smooth="yes"/>
      <point x="342" y="538"/>
      <point x="450" y="479"/>
      <point x="515" y="359"/>
      <point x="515" y="266" type="qcurve" smooth="yes"/>
      <point x="515" y="174"/>
      <point x="452" y="53"/>
      <point x="344" y="-6"/>
    </contour>
    <contour>
      <point x="285" y="90" type="qcurve" smooth="yes"/>
      <point x="333" y="90"/>
      <point x="409" y="133"/>
      <point x="454" y="213"/>
      <point x="454" y="266" type="qcurve" smooth="yes"/>
      <point x="454" y="320"/>
      <point x="409" y="399"/>
      <point x="333" y="442"/>
      <point x="285" y="442" type="qcurve" smooth="yes"/>
      <point x="237" y="442"/>
      <point x="161" y="399"/>
      <point x="116" y="320"/>
      <point x="116" y="266" type="qcurve" smooth="yes"/>
      <point x="116" y="213"/>
      <point x="161" y="133"/>
      <point x="237" y="90"/>
    </contour>
    <contour>
      <point x="457" y="0" type="line"/>
      <point x="457" y="134" type="line"/>
      <point x="462" y="267" type="line"/>
      <point x="452" y="400" type="line"/>
      <point x="452" y="532" type="line"/>
      <point x="562" y="532" type="line"/>
      <point x="562" y="0" type="line"/>
    </contour>
    <contour>
      <point x="290" y="607" type="line"/>
      <point x="333" y="741" type="line"/>
      <point x="455" y="741" type="line"/>
      <point x="377" y="607" type="line"/>
    </contour>
  </outline>
</glyph>
<glyph name="epsilontonos" format="2">
  <advance width="534"/>
  <unicode hex="03AD"/>
  <anchor x="326" y="593" name="t.uni0308"/>
  <anchor x="326" y="0" name="b.uni0324_3"/>
  <anchor x="581" y="0" name="m.uni0328_4"/>
  <outline>
    <contour>
      <point x="514" y="53" type="line"/>
      <point x="474" y="25"/>
      <point x="351" y="-9"/>
      <point x="281" y="-9" type="qcurve" smooth="yes"/>
      <point x="151" y="-9"/>
      <point x="20" y="88"/>
      <point x="20" y="161" type="qcurve" smooth="yes"/>
      <point x="20" y="187"/>
      <point x="63" y="252"/>
      <point x="137" y="282"/>
      <point x="184" y="282" type="qcurve"/>
      <point x="188" y="260" type="line"/>
      <point x="145" y="260"/>
      <point x="80" y="287"/>
      <point x="44" y="338"/>
      <point x="44" y="377" type="qcurve" smooth="yes"/>
      <point x="44" y="423"/>
      <point x="99" y="494"/>
      <point x="209" y="541"/>
      <point x="293" y="541" type="qcurve" smooth="yes"/>
      <point x="349" y="541"/>
      <point x="454" y="518"/>
      <point x="492" y="498" type="qcurve"/>
      <point x="460" y="415" type="line"/>
      <point x="423" y="435"/>
      <point x="340" y="454"/>
      <point x="298" y="454" type="qcurve" smooth="yes"/>
      <point x="225" y="454"/>
      <point x="156" y="407"/>
      <point x="156" y="379" type="qcurve" smooth="yes"/>
      <point x="156" y="346"/>
      <point x="205" y="310"/>
      <point x="253" y="310" type="qcurve" smooth="yes"/>
      <point x="412" y="310" type="line"/>
      <point x="412" y="227" type="line"/>
      <point x="246" y="227" type="line" smooth="yes"/>
      <point x="193" y="227"/>
      <point x="132" y="190"/>
      <point x="132" y="167" type="qcurve" smooth="yes"/>
      <point x="132" y="130"/>
      <point x="205" y="83"/>
      <point x="286" y="83" type="qcurve" smooth="yes"/>
      <point x="322" y="83"/>
      <point x="393" y="96"/>
      <point x="455" y="122"/>
      <point x="478" y="139" type="qcurve"/>
    </contour>
    <contour>
      <point x="238" y="607" type="line"/>
      <point x="281" y="741" type="line"/>
      <point x="403" y="741" type="line"/>
      <point x="325" y="607" type="line"/>
    </contour>
  </outline>
</glyph>
<glyph name="etatonos" format="2">
  <advance width="554"/>
  <unicode hex="03AE"/>
  <anchor x="297" y="562" name="t.uni0308"/>
  <anchor x="297" y="0" name="b.uni0324_3"/>
  <outline>
    <contour>
      <point x="311" y="538" type="qcurve" smooth="yes"/>
      <point x="376" y="538"/>
      <point x="476" y="488"/>
      <point x="534" y="385"/>
      <point x="534" y="305" type="qcurve" smooth="yes"/>
      <point x="534" y="-193" type="line"/>
      <point x="424" y="-193" type="line"/>
      <point x="424" y="292" type="line" smooth="yes"/>
      <point x="424" y="366"/>
      <point x="353" y="440"/>
      <point x="288" y="440" type="qcurve" smooth="yes"/>
      <point x="241" y="440"/>
      <point x="169" y="402"/>
      <point x="130" y="328"/>
      <point x="130" y="272" type="qcurve" smooth="yes"/>
      <point x="130" y="0" type="line"/>
      <point x="20" y="0" type="line"/>
      <point x="20" y="532" type="line"/>
      <point x="125" y="532" type="line"/>
      <point x="125" y="390" type="line"/>
      <point x="107" y="434" type="line"/>
      <point x="134" y="484"/>
      <point x="241" y="538"/>
    </contour>
    <contour>
      <point x="237" y="607" type="line"/>
      <point x="280" y="741" type="line"/>
      <point x="402" y="741" type="line"/>
      <point x="324" y="607" type="line"/>
    </contour>
  </outline>
</glyph>
<glyph name="iotatonos" format="2">
  <advance width="150"/>
  <unicode hex="03AF"/>
  <anchor x="113" y="562" name="t.uni0308"/>
  <anchor x="113" y="0" name="b.uni0324_3"/>
  <anchor x="271" y="0" name="m.uni0328_4"/>
  <outline>
    <contour>
      <point x="20" y="0" type="line"/>
      <point x="20" y="532" type="line"/>
      <point x="130" y="532" type="line"/>
      <point x="130" y="0" type="line"/>
    </contour>
    <contour>
      <point x="34" y="607" type="line"/>
      <point x="77" y="741" type="line"/>
      <point x="199" y="741" type="line"/>
      <point x="121" y="607" type="line"/>
    </contour>
  </outline>
</glyph>
<glyph name="upsilondieresistonos" format="2">
  <advance width="529"/>
  <unicode hex="03B0"/>
  <anchor x="279" y="731" name="t.uni0308"/>
  <anchor x="474" y="593" name="t.uni031B_2"/>
  <anchor x="279" y="0" name="b.uni0324_3"/>
  <anchor x="496" y="0" name="m.uni0328_4"/>
  <outline>
    <contour>
      <point x="265" y="-9" type="qcurve" smooth="yes"/>
      <point x="185" y="-9"/>
      <point x="71" y="51"/>
      <point x="10" y="165"/>
      <point x="10" y="244" type="qcurve" smooth="yes"/>
      <point x="10" y="531" type="line"/>
      <point x="121" y="531" type="line"/>
      <point x="121" y="247" type="line" smooth="yes"/>
      <point x="121" y="169"/>
      <point x="196" y="87"/>
      <point x="266" y="87" type="qcurve" smooth="yes"/>
      <point x="336" y="87"/>
      <point x="410" y="168"/>
      <point x="410" y="247" type="qcurve" smooth="yes"/>
      <point x="410" y="531" type="line"/>
      <point x="519" y="531" type="line"/>
      <point x="519" y="244" type="line" smooth="yes"/>
      <point x="519" y="165"/>
      <point x="459" y="51"/>
      <point x="345" y="-9"/>
    </contour>
    <contour>
      <point x="236" y="780" type="line"/>
      <point x="279" y="914" type="line"/>
      <point x="401" y="914" type="line"/>
      <point x="323" y="780" type="line"/>
    </contour>
    <contour>
      <point x="372" y="617" type="qcurve" smooth="yes"/>
      <point x="349" y="617"/>
      <point x="316" y="648"/>
      <point x="316" y="673" type="qcurve" smooth="yes"/>
      <point x="316" y="698"/>
      <point x="349" y="729"/>
      <point x="372" y="729" type="qcurve" smooth="yes"/>
      <point x="395" y="729"/>
      <point x="428" y="698"/>
      <point x="428" y="673" type="qcurve" smooth="yes"/>
      <point x="428" y="648"/>
      <point x="395" y="617"/>
    </contour>
    <contour>
      <point x="182" y="617" type="qcurve" smooth="yes"/>
      <point x="159" y="617"/>
      <point x="126" y="648"/>
      <point x="126" y="673" type="qcurve" smooth="yes"/>
      <point x="126" y="698"/>
      <point x="159" y="729"/>
      <point x="182" y="729" type="qcurve" smooth="yes"/>
      <point x="205" y="729"/>
      <point x="238" y="698"/>
      <point x="238" y="673" type="qcurve" smooth="yes"/>
      <point x="238" y="648"/>
      <point x="205" y="617"/>
    </contour>
  </outline>
</glyph>
<glyph name="beta" format="2">
  <advance width="767"/>
  <unicode hex="03B2"/>
  <outline>
    <contour>
      <point x="466" y="-9" type="qcurve" smooth="yes"/>
      <point x="429" y="-9"/>
      <point x="358" y="3"/>
      <point x="327" y="16" type="qcurve"/>
      <point x="345" y="111" type="line"/>
      <point x="369" y="100"/>
      <point x="427" y="88"/>
      <point x="459" y="88" type="qcurve" smooth="yes"/>
      <point x="526" y="88"/>
      <point x="603" y="148"/>
      <point x="603" y="207" type="qcurve" smooth="yes"/>
      <point x="603" y="266"/>
      <point x="525" y="326"/>
      <point x="458" y="326" type="qcurve" smooth="yes"/>
      <point x="437" y="326"/>
      <point x="394" y="320"/>
      <point x="377" y="315" type="qcurve"/>
      <point x="356" y="369" type="line"/>
      <point x="588" y="633" type="line"/>
      <point x="603" y="555" type="line"/>
      <point x="564" y="584"/>
      <point x="471" y="612"/>
      <point x="419" y="612" type="qcurve" smooth="yes"/>
      <point x="315" y="612"/>
      <point x="208" y="501"/>
      <point x="208" y="398" type="qcurve" smooth="yes"/>
      <point x="208" y="0" type="line"/>
      <point x="94" y="0" type="line"/>
      <point x="94" y="401" type="line" smooth="yes"/>
      <point x="94" y="496"/>
      <point x="169" y="634"/>
      <point x="312" y="709"/>
      <point x="412" y="709" type="qcurve" smooth="yes"/>
      <point x="456" y="709"/>
      <point x="543" y="694"/>
      <point x="622" y="664"/>
      <point x="652" y="641" type="qcurve"/>
      <point x="652" y="567" type="line"/>
      <point x="449" y="339" type="line"/>
      <point x="400" y="406" type="line"/>
      <point x="417" y="411"/>
      <point x="456" y="415"/>
      <point x="477" y="415" type="qcurve" smooth="yes"/>
      <point x="545" y="415"/>
      <point x="655" y="366"/>
      <point x="719" y="271"/>
      <point x="719" y="202" type="qcurve" smooth="yes"/>
      <point x="719" y="134"/>
      <point x="655" y="40"/>
      <point x="541" y="-9"/>
    </contour>
  </outline>
</glyph>
<glyph name="delta" format="2">
  <advance width="670"/>
  <unicode hex="03B4"/>
  <anchor x="380" y="562" name="t.uni0308"/>
  <anchor x="380" y="281" name="t.uni0307_1"/>
  <anchor x="448" y="561" name="t.uni031B_2"/>
  <anchor x="380" y="0" name="b.uni0324_3"/>
  <anchor x="520" y="0" name="m.uni0328_4"/>
  <outline>
    <contour>
      <point x="352" y="-6" type="qcurve" smooth="yes"/>
      <point x="271" y="-6"/>
      <point x="145" y="64"/>
      <point x="72" y="187"/>
      <point x="72" y="266" type="qcurve" smooth="yes"/>
      <point x="72" y="346"/>
      <point x="108.5" y="407" type="qcurve" smooth="yes"/>
      <point x="140.709" y="460.828"/>
      <point x="193.553" y="494.411" type="qcurve"/>
      <point x="174.189" y="508.485"/>
      <point x="161" y="529" type="qcurve" smooth="yes"/>
      <point x="143" y="557"/>
      <point x="143" y="603" type="qcurve" smooth="yes"/>
      <point x="143" y="653"/>
      <point x="200" y="727"/>
      <point x="302" y="767"/>
      <point x="371" y="767" type="qcurve" smooth="yes"/>
      <point x="424" y="767"/>
      <point x="533" y="742"/>
      <point x="568" y="720" type="qcurve"/>
      <point x="522" y="633" type="line"/>
      <point x="485" y="656"/>
      <point x="408" y="673"/>
      <point x="370" y="673" type="qcurve" smooth="yes"/>
      <point x="311" y="673"/>
      <point x="252" y="637"/>
      <point x="252" y="608" type="qcurve" smooth="yes"/>
      <point x="252" y="583"/>
      <point x="288" y="557"/>
      <point x="344" y="542"/>
      <point x="383.569" y="536.611" type="qcurve"/>
      <point x="445.646" y="531.029"/>
      <point x="496.5" y="503" type="qcurve" smooth="yes"/>
      <point x="560" y="468"/>
      <point x="632" y="346"/>
      <point x="632" y="266" type="qcurve" smooth="yes"/>
      <point x="632" y="187"/>
      <point x="560" y="64"/>
      <point x="433" y="-6"/>
    </contour>
    <contour>
      <point x="352" y="90" type="qcurve" smooth="yes"/>
      <point x="401" y="90"/>
      <point x="477" y="133"/>
      <point x="521" y="213"/>
      <point x="521" y="266" type="qcurve" smooth="yes"/>
      <point x="521" y="320"/>
      <point x="477" y="399"/>
      <point x="401" y="442"/>
      <point x="353" y="442" type="qcurve" smooth="yes"/>
      <point x="304" y="442"/>
      <point x="228" y="399"/>
      <point x="183" y="320"/>
      <point x="183" y="266" type="qcurve" smooth="yes"/>
      <point x="183" y="213"/>
      <point x="228" y="133"/>
      <point x="304" y="90"/>
    </contour>
  </outline>
</glyph>
<glyph name="zeta" format="2">
  <advance width="493"/>
  <unicode hex="03B6"/>
  <anchor x="206" y="593" name="t.uni0308"/>
  <anchor x="206" y="0" name="b.uni0324_3"/>
  <anchor x="461" y="0" name="m.uni0328_4"/>
  <outline>
    <contour>
      <point x="463" y="628" type="line"/>
      <point x="46" y="132"/>
      <point x="235" y="109" type="qcurve" smooth="yes"/>
      <point x="480" y="79"/>
      <point x="356" y="-177" type="qcurve"/>
      <point x="268" y="-177" type="line"/>
      <point x="378" y="1"/>
      <point x="205" y="1" type="qcurve" smooth="yes"/>
      <point x="63" y="1"/>
      <point x="23" y="261"/>
      <point x="318" y="628" type="qcurve"/>
      <point x="40" y="628" type="line"/>
      <point x="40" y="719" type="line"/>
      <point x="463" y="719" type="line"/>
      <point x="463" y="628" type="line"/>
    </contour>
  </outline>
  <guideline angle="90" x="40" y="0"/>
</glyph>
<glyph name="theta" format="2">
  <advance width="789"/>
  <unicode hex="03B8"/>
  <anchor x="401" y="700" name="t.uni0308"/>
  <anchor x="401" y="350" name="t.uni0307_1"/>
  <anchor x="530" y="700" name="t.uni031B_2"/>
  <anchor x="401" y="0" name="b.uni0324_3"/>
  <anchor x="555" y="0" name="m.uni0328_4"/>
  <outline>
    <contour>
      <point x="395" y="-9" type="qcurve" smooth="yes"/>
      <point x="314" y="-9"/>
      <point x="197" y="45"/>
      <point x="96" y="142"/>
      <point x="40" y="263"/>
      <point x="40" y="340" type="qcurve" smooth="yes"/>
      <point x="40" y="417"/>
      <point x="96" y="538"/>
      <point x="197" y="635"/>
      <point x="314" y="689"/>
      <point x="395" y="689" type="qcurve" smooth="yes"/>
      <point x="476" y="689"/>
      <point x="592" y="636"/>
      <point x="693" y="539"/>
      <point x="749" y="418"/>
      <point x="749" y="340" type="qcurve" smooth="yes"/>
      <point x="749" y="262"/>
      <point x="693" y="141"/>
      <point x="592" y="44"/>
      <point x="476" y="-9"/>
    </contour>
    <contour>
      <point x="395" y="93" type="qcurve" smooth="yes"/>
      <point x="451" y="93"/>
      <point x="525" y="131"/>
      <point x="595" y="201"/>
      <point x="634" y="285"/>
      <point x="634" y="340" type="qcurve" smooth="yes"/>
      <point x="634" y="396"/>
      <point x="595" y="479"/>
      <point x="525" y="549"/>
      <point x="451" y="587"/>
      <point x="395" y="587" type="qcurve" smooth="yes"/>
      <point x="339" y="587"/>
      <point x="264" y="549"/>
      <point x="194" y="479"/>
      <point x="155" y="396"/>
      <point x="155" y="340" type="qcurve" smooth="yes"/>
      <point x="155" y="285"/>
      <point x="194" y="201"/>
      <point x="264" y="131"/>
      <point x="339" y="93"/>
    </contour>
    <contour>
      <point x="133" y="397" type="line"/>
      <point x="653" y="397" type="line"/>
      <point x="653" y="292" type="line"/>
      <point x="133" y="292" type="line"/>
    </contour>
  </outline>
</glyph>
<glyph name="xi" format="2">
  <advance width="488"/>
  <unicode hex="03BE"/>
  <anchor x="303" y="593" name="t.uni0308"/>
  <anchor x="303" y="0" name="b.uni0324_3"/>
  <anchor x="558" y="0" name="m.uni0328_4"/>
  <outline>
    <contour>
      <point x="291" y="402" type="qcurve"/>
      <point x="291" y="402"/>
      <point x="414" y="402" type="qcurve"/>
      <point x="414" y="283" type="line"/>
      <point x="291" y="283" type="line" smooth="yes"/>
      <point x="142" y="283"/>
      <point x="147" y="181" type="qcurve" smooth="yes"/>
      <point x="151" y="104"/>
      <point x="263" y="95" type="qcurve" smooth="yes"/>
      <point x="530" y="73"/>
      <point x="407" y="-169" type="qcurve"/>
      <point x="312" y="-169" type="line"/>
      <point x="437" y="-7"/>
      <point x="263" y="-2" type="qcurve" smooth="yes"/>
      <point x="34" y="5"/>
      <point x="33" y="342"/>
      <point x="192" y="342" type="qcurve"/>
      <point x="192" y="342" type="line"/>
      <point x="51" y="342"/>
      <point x="51" y="580"/>
      <point x="178" y="580" type="qcurve"/>
      <point x="20" y="580" type="line"/>
      <point x="20" y="688" type="line"/>
      <point x="403" y="688" type="line"/>
      <point x="403" y="580" type="line"/>
      <point x="192" y="580"/>
      <point x="178" y="496" type="qcurve" smooth="yes"/>
      <point x="162" y="402"/>
    </contour>
  </outline>
</glyph>
<glyph name="pi" format="2">
  <advance width="694"/>
  <unicode hex="03C0"/>
  <outline>
    <contour>
      <point x="90" y="532" type="line"/>
      <point x="92" y="532" type="line"/>
      <point x="604" y="532" type="line"/>
      <point x="604" y="441" type="line"/>
      <point x="105" y="442" type="line"/>
      <point x="90" y="442" type="line"/>
    </contour>
    <contour>
      <point x="90" y="0" type="line"/>
      <point x="90" y="464" type="line"/>
      <point x="200" y="464" type="line"/>
      <point x="200" y="0" type="line"/>
    </contour>
    <contour>
      <point x="494" y="0" type="line"/>
      <point x="494" y="464" type="line"/>
      <point x="604" y="464" type="line"/>
      <point x="604" y="0" type="line"/>
    </contour>
  </outline>
</glyph>
<glyph name="rho" format="2">
  <advance width="687"/>
  <unicode hex="03C1"/>
  <outline>
    <contour>
      <point x="87" y="-173" type="line"/>
      <point x="87" y="249" type="line" smooth="yes"/>
      <point x="87" y="386"/>
      <point x="239" y="533"/>
      <point x="363" y="533" type="qcurve" smooth="yes"/>
      <point x="452" y="533"/>
      <point x="576" y="469"/>
      <point x="647" y="348"/>
      <point x="647" y="264" type="qcurve" smooth="yes"/>
      <point x="647" y="143"/>
      <point x="500" y="5"/>
      <point x="387" y="5" type="qcurve" smooth="yes"/>
      <point x="332" y="5"/>
      <point x="171" y="63"/>
      <point x="132" y="128" type="qcurve"/>
      <point x="195" y="210" type="line"/>
      <point x="211" y="158"/>
      <point x="312" y="97"/>
      <point x="367" y="97" type="qcurve" smooth="yes"/>
      <point x="445" y="97"/>
      <point x="532" y="184"/>
      <point x="532" y="262" type="qcurve" smooth="yes"/>
      <point x="532" y="342"/>
      <point x="445" y="431"/>
      <point x="366" y="431" type="qcurve" smooth="yes"/>
      <point x="288" y="431"/>
      <point x="200" y="336"/>
      <point x="200" y="250" type="qcurve" smooth="yes"/>
      <point x="200" y="-173" type="line"/>
    </contour>
  </outline>
</glyph>
<glyph name="sigmafinal" format="2">
  <advance width="508"/>
  <unicode hex="03C2"/>
  <anchor x="295" y="562" name="t.uni0308"/>
  <anchor x="295" y="0" name="b.uni0324_3"/>
  <outline>
    <contour>
      <point x="245" y="-6" type="qcurve" smooth="yes"/>
      <point x="178" y="-6"/>
      <point x="57" y="29"/>
      <point x="22" y="54" type="qcurve"/>
      <point x="68" y="141" type="line"/>
      <point x="103" y="118"/>
      <point x="203" y="88"/>
      <point x="253" y="88" type="qcurve" smooth="yes"/>
      <point x="315" y="88"/>
      <point x="371" y="122"/>
      <point x="371" y="152" type="qcurve" smooth="yes"/>
      <point x="371" y="175"/>
      <point x="335" y="200"/>
      <point x="276" y="213"/>
      <point x="205" y="223"/>
      <point x="134" y="240"/>
      <point x="75" y="272"/>
      <point x="39" y="328"/>
      <point x="39" y="374" type="qcurve" smooth="yes"/>
      <point x="39" y="424"/>
      <point x="96" y="498"/>
      <point x="198" y="538"/>
      <point x="267" y="538" type="qcurve" smooth="yes"/>
      <point x="320" y="538"/>
      <point x="429" y="513"/>
      <point x="464" y="491" type="qcurve"/>
      <point x="418" y="404" type="line"/>
      <point x="381" y="427"/>
      <point x="304" y="444"/>
      <point x="266" y="444" type="qcurve" smooth="yes"/>
      <point x="207" y="444"/>
      <point x="148" y="408"/>
      <point x="148" y="379" type="qcurve" smooth="yes"/>
      <point x="148" y="354"/>
      <point x="184" y="328"/>
      <point x="243" y="313"/>
      <point x="314" y="303"/>
      <point x="385" y="286"/>
      <point x="444" y="255"/>
      <point x="480" y="200"/>
      <point x="480" y="155" type="qcurve" smooth="yes"/>
      <point x="480" y="105"/>
      <point x="422" y="33"/>
      <point x="317" y="-6"/>
    </contour>
  </outline>
</glyph>
<glyph name="tau" format="2">
  <advance width="449"/>
  <unicode hex="03C4"/>
  <anchor x="222" y="626" name="t.uni0308"/>
  <anchor x="233" y="239" name="t.uni0307_1"/>
  <anchor x="403" y="679" name="t.uni031B_2"/>
  <anchor x="298" y="-0" name="b.uni0324_3"/>
  <outline>
    <contour>
      <point x="288" y="-6" type="qcurve" smooth="yes"/>
      <point x="204" y="-6"/>
      <point x="112" y="82"/>
      <point x="112" y="167" type="qcurve" smooth="yes"/>
      <point x="112" y="525" type="line"/>
      <point x="225" y="525" type="line"/>
      <point x="225" y="170" type="line" smooth="yes"/>
      <point x="225" y="130"/>
      <point x="263" y="86"/>
      <point x="301" y="86" type="qcurve" smooth="yes"/>
      <point x="344" y="86"/>
      <point x="373" y="109" type="qcurve"/>
      <point x="406" y="30" type="line"/>
      <point x="384" y="12"/>
      <point x="321" y="-6"/>
    </contour>
    <contour>
      <point x="23" y="442" type="line"/>
      <point x="23" y="533" type="line"/>
      <point x="378" y="533" type="line"/>
      <point x="378" y="442" type="line"/>
    </contour>
  </outline>
</glyph>
<glyph name="phi" format="2">
  <advance width="704"/>
  <unicode hex="03C6"/>
  <outline>
    <contour>
      <point x="287" y="-110" type="line"/>
      <point x="290" y="511" type="line"/>
      <point x="414" y="511" type="line"/>
      <point x="418" y="-110" type="line"/>
    </contour>
    <contour>
      <point x="352" y="-9" type="qcurve" smooth="yes"/>
      <point x="263" y="-9"/>
      <point x="121" y="68"/>
      <point x="40" y="186"/>
      <point x="40" y="270" type="qcurve" smooth="yes"/>
      <point x="40" y="340"/>
      <point x="121" y="472"/>
      <point x="263" y="549"/>
      <point x="352" y="549" type="qcurve" smooth="yes"/>
      <point x="442" y="549"/>
      <point x="583" y="472"/>
      <point x="664" y="340"/>
      <point x="664" y="270" type="qcurve" smooth="yes"/>
      <point x="664" y="186"/>
      <point x="583" y="68"/>
      <point x="442" y="-9"/>
    </contour>
    <contour>
      <point x="352" y="87" type="qcurve" smooth="yes"/>
      <point x="410" y="87"/>
      <point x="500" y="138"/>
      <point x="552" y="213"/>
      <point x="552" y="270" type="qcurve" smooth="yes"/>
      <point x="552" y="313"/>
      <point x="500" y="402"/>
      <point x="410" y="453"/>
      <point x="352" y="453" type="qcurve" smooth="yes"/>
      <point x="295" y="453"/>
      <point x="204" y="402"/>
      <point x="152" y="313"/>
      <point x="152" y="271" type="qcurve" smooth="yes"/>
      <point x="152" y="213"/>
      <point x="204" y="138"/>
      <point x="295" y="87"/>
    </contour>
  </outline>
  <guideline angle="0" x="0" y="403"/>
  <guideline angle="0" x="0" y="473"/>
</glyph>
<glyph name="psi" format="2">
  <advance width="779"/>
  <unicode hex="03C8"/>
  <outline>
    <contour>
      <point x="451" y="588" type="line"/>
      <point x="454" y="-110" type="line"/>
      <point x="323" y="-110" type="line"/>
      <point x="325" y="588" type="line"/>
    </contour>
    <contour>
      <point x="722" y="529" type="line"/>
      <point x="739" y="454"/>
      <point x="739" y="314" type="qcurve" smooth="yes"/>
      <point x="739" y="230"/>
      <point x="653" y="68"/>
      <point x="478" y="-9"/>
      <point x="388" y="-9" type="qcurve" smooth="yes"/>
      <point x="299" y="-9"/>
      <point x="126" y="68"/>
      <point x="40" y="230"/>
      <point x="40" y="314" type="qcurve" smooth="yes"/>
      <point x="40" y="454"/>
      <point x="57" y="529" type="qcurve"/>
      <point x="178" y="529" type="line"/>
      <point x="152" y="452"/>
      <point x="152" y="315" type="qcurve" smooth="yes"/>
      <point x="152" y="257"/>
      <point x="209" y="156"/>
      <point x="331" y="99"/>
      <point x="388" y="99" type="qcurve" smooth="yes"/>
      <point x="446" y="99"/>
      <point x="570" y="156"/>
      <point x="627" y="257"/>
      <point x="627" y="314" type="qcurve" smooth="yes"/>
      <point x="627" y="452"/>
      <point x="601" y="529" type="qcurve"/>
    </contour>
  </outline>
  <guideline angle="0" x="0" y="358"/>
</glyph>
<glyph name="omega" format="2">
  <advance width="795"/>
  <unicode hex="03C9"/>
  <anchor x="464" y="593" name="t.uni0308"/>
  <anchor x="464" y="-0" name="b.uni0324_3"/>
  <anchor x="719" y="-0" name="m.uni0328_4"/>
  <outline>
    <contour>
      <point x="625" y="518" type="line"/>
      <point x="694" y="485"/>
      <point x="761" y="353"/>
      <point x="761" y="276" type="qcurve" smooth="yes"/>
      <point x="761" y="171"/>
      <point x="664" y="6"/>
      <point x="556" y="-1" type="qcurve" smooth="yes"/>
      <point x="515" y="-4"/>
      <point x="433" y="31"/>
      <point x="385" y="111"/>
      <point x="384" y="153" type="qcurve"/>
      <point x="415" y="153" type="line"/>
      <point x="413" y="111"/>
      <point x="374" y="46"/>
      <point x="303" y="13"/>
      <point x="258" y="9" type="qcurve" smooth="yes"/>
      <point x="228" y="6"/>
      <point x="135" y="36"/>
      <point x="31" y="172"/>
      <point x="43" y="308" type="qcurve" smooth="yes"/>
      <point x="50" y="382"/>
      <point x="131" y="500"/>
      <point x="180" y="519" type="qcurve"/>
      <point x="224" y="426" type="line"/>
      <point x="158" y="346"/>
      <point x="151" y="211"/>
      <point x="201" y="130"/>
      <point x="256" y="135" type="qcurve" smooth="yes"/>
      <point x="299" y="139"/>
      <point x="343" y="198"/>
      <point x="343" y="230" type="qcurve" smooth="yes"/>
      <point x="342" y="371" type="line"/>
      <point x="458" y="371" type="line"/>
      <point x="458" y="230" type="line" smooth="yes"/>
      <point x="458" y="199"/>
      <point x="495" y="139"/>
      <point x="540" y="136" type="qcurve" smooth="yes"/>
      <point x="592" y="133"/>
      <point x="646" y="211"/>
      <point x="635" y="389"/>
      <point x="573" y="426" type="qcurve"/>
    </contour>
  </outline>
  <guideline angle="0" x="0" y="425"/>
  <guideline angle="0" x="0" y="518"/>
  <guideline angle="0" x="0" y="371"/>
  <guideline angle="0" x="0" y="230"/>
  <guideline angle="0" x="0" y="200"/>
  <guideline angle="0" x="0" y="139"/>
  <guideline angle="0" x="0" y="211"/>
  <guideline angle="0" x="0" y="346"/>
  <guideline angle="0" x="0" y="171"/>
</glyph>
<glyph name="iotadieresis" format="2">
  <advance width="476"/>
  <unicode hex="03CA"/>
  <anchor x="271" y="-0" name="b.uni0324_3"/>
  <anchor x="429" y="-0" name="m.uni0328_4"/>
  <anchor x="271" y="793" name="m.uni0308"/>
  <outline>
    <contour>
      <point x="333" y="621" type="qcurve" smooth="yes"/>
      <point x="310" y="621"/>
      <point x="277" y="652"/>
      <point x="277" y="677" type="qcurve" smooth="yes"/>
      <point x="277" y="702"/>
      <point x="310" y="733"/>
      <point x="333" y="733" type="qcurve" smooth="yes"/>
      <point x="356" y="733"/>
      <point x="389" y="702"/>
      <point x="389" y="677" type="qcurve" smooth="yes"/>
      <point x="389" y="652"/>
      <point x="356" y="621"/>
    </contour>
    <contour>
      <point x="143" y="621" type="qcurve" smooth="yes"/>
      <point x="120" y="621"/>
      <point x="87" y="652"/>
      <point x="87" y="677" type="qcurve" smooth="yes"/>
      <point x="87" y="702"/>
      <point x="120" y="733"/>
      <point x="143" y="733" type="qcurve" smooth="yes"/>
      <point x="166" y="733"/>
      <point x="199" y="702"/>
      <point x="199" y="677" type="qcurve" smooth="yes"/>
      <point x="199" y="652"/>
      <point x="166" y="621"/>
    </contour>
    <contour>
      <point x="178" y="0" type="line"/>
      <point x="178" y="532" type="line"/>
      <point x="288" y="532" type="line"/>
      <point x="288" y="0" type="line"/>
    </contour>
  </outline>
</glyph>
<glyph name="upsilondieresis" format="2">
  <advance width="529"/>
  <unicode hex="03CB"/>
  <anchor x="474" y="593" name="t.uni031B_2"/>
  <anchor x="279" y="0" name="b.uni0324_3"/>
  <anchor x="496" y="0" name="m.uni0328_4"/>
  <anchor x="279" y="824" name="m.uni0308"/>
  <outline>
    <contour>
      <point x="265" y="-9" type="qcurve" smooth="yes"/>
      <point x="185" y="-9"/>
      <point x="71" y="51"/>
      <point x="10" y="165"/>
      <point x="10" y="244" type="qcurve" smooth="yes"/>
      <point x="10" y="531" type="line"/>
      <point x="121" y="531" type="line"/>
      <point x="121" y="247" type="line" smooth="yes"/>
      <point x="121" y="169"/>
      <point x="196" y="87"/>
      <point x="266" y="87" type="qcurve" smooth="yes"/>
      <point x="336" y="87"/>
      <point x="410" y="168"/>
      <point x="410" y="247" type="qcurve" smooth="yes"/>
      <point x="410" y="531" type="line"/>
      <point x="519" y="531" type="line"/>
      <point x="519" y="244" type="line" smooth="yes"/>
      <point x="519" y="165"/>
      <point x="459" y="51"/>
      <point x="345" y="-9"/>
    </contour>
    <contour>
      <point x="365" y="621" type="qcurve" smooth="yes"/>
      <point x="342" y="621"/>
      <point x="309" y="652"/>
      <point x="309" y="677" type="qcurve" smooth="yes"/>
      <point x="309" y="702"/>
      <point x="342" y="733"/>
      <point x="365" y="733" type="qcurve" smooth="yes"/>
      <point x="388" y="733"/>
      <point x="421" y="702"/>
      <point x="421" y="677" type="qcurve" smooth="yes"/>
      <point x="421" y="652"/>
      <point x="388" y="621"/>
    </contour>
    <contour>
      <point x="175" y="621" type="qcurve" smooth="yes"/>
      <point x="152" y="621"/>
      <point x="119" y="652"/>
      <point x="119" y="677" type="qcurve" smooth="yes"/>
      <point x="119" y="702"/>
      <point x="152" y="733"/>
      <point x="175" y="733" type="qcurve" smooth="yes"/>
      <point x="198" y="733"/>
      <point x="231" y="702"/>
      <point x="231" y="677" type="qcurve" smooth="yes"/>
      <point x="231" y="652"/>
      <point x="198" y="621"/>
    </contour>
  </outline>
</glyph>
<glyph name="omicrontonos" format="2">
  <advance width="600"/>
  <unicode hex="03CC"/>
  <anchor x="351" y="562" name="t.uni0308"/>
  <anchor x="351" y="281" name="t.uni0307_1"/>
  <anchor x="419" y="561" name="t.uni031B_2"/>
  <anchor x="351" y="0" name="b.uni0324_3"/>
  <anchor x="491" y="0" name="m.uni0328_4"/>
  <outline>
    <contour>
      <point x="300" y="-6" type="qcurve" smooth="yes"/>
      <point x="219" y="-6"/>
      <point x="93" y="64"/>
      <point x="20" y="187"/>
      <point x="20" y="266" type="qcurve" smooth="yes"/>
      <point x="20" y="346"/>
      <point x="93" y="468"/>
      <point x="219" y="538"/>
      <point x="300" y="538" type="qcurve" smooth="yes"/>
      <point x="381" y="538"/>
      <point x="508" y="468"/>
      <point x="580" y="346"/>
      <point x="580" y="266" type="qcurve" smooth="yes"/>
      <point x="580" y="187"/>
      <point x="508" y="64"/>
      <point x="381" y="-6"/>
    </contour>
    <contour>
      <point x="300" y="90" type="qcurve" smooth="yes"/>
      <point x="349" y="90"/>
      <point x="425" y="133"/>
      <point x="469" y="213"/>
      <point x="469" y="266" type="qcurve" smooth="yes"/>
      <point x="469" y="320"/>
      <point x="425" y="399"/>
      <point x="349" y="442"/>
      <point x="301" y="442" type="qcurve" smooth="yes"/>
      <point x="252" y="442"/>
      <point x="176" y="399"/>
      <point x="131" y="320"/>
      <point x="131" y="266" type="qcurve" smooth="yes"/>
      <point x="131" y="213"/>
      <point x="176" y="133"/>
      <point x="252" y="90"/>
    </contour>
    <contour>
      <point x="253" y="607" type="line"/>
      <point x="296" y="741" type="line"/>
      <point x="418" y="741" type="line"/>
      <point x="340" y="607" type="line"/>
    </contour>
  </outline>
</glyph>
<glyph name="upsilontonos" format="2">
  <advance width="529"/>
  <unicode hex="03CD"/>
  <anchor x="279" y="593" name="t.uni0308"/>
  <anchor x="474" y="593" name="t.uni031B_2"/>
  <anchor x="279" y="0" name="b.uni0324_3"/>
  <anchor x="496" y="0" name="m.uni0328_4"/>
  <outline>
    <contour>
      <point x="265" y="-9" type="qcurve" smooth="yes"/>
      <point x="185" y="-9"/>
      <point x="71" y="51"/>
      <point x="10" y="165"/>
      <point x="10" y="244" type="qcurve" smooth="yes"/>
      <point x="10" y="531" type="line"/>
      <point x="121" y="531" type="line"/>
      <point x="121" y="247" type="line" smooth="yes"/>
      <point x="121" y="169"/>
      <point x="196" y="87"/>
      <point x="266" y="87" type="qcurve" smooth="yes"/>
      <point x="336" y="87"/>
      <point x="410" y="168"/>
      <point x="410" y="247" type="qcurve" smooth="yes"/>
      <point x="410" y="531" type="line"/>
      <point x="519" y="531" type="line"/>
      <point x="519" y="244" type="line" smooth="yes"/>
      <point x="519" y="165"/>
      <point x="459" y="51"/>
      <point x="345" y="-9"/>
    </contour>
    <contour>
      <point x="222" y="607" type="line"/>
      <point x="265" y="741" type="line"/>
      <point x="387" y="741" type="line"/>
      <point x="309" y="607" type="line"/>
    </contour>
  </outline>
</glyph>
<glyph name="omegatonos" format="2">
  <advance width="802"/>
  <unicode hex="03CE"/>
  <anchor x="464" y="593" name="t.uni0308"/>
  <anchor x="464" y="0" name="b.uni0324_3"/>
  <anchor x="719" y="0" name="m.uni0328_4"/>
  <outline>
    <contour>
      <point x="645" y="518" type="line"/>
      <point x="714" y="485"/>
      <point x="779" y="353"/>
      <point x="781" y="276" type="qcurve" smooth="yes"/>
      <point x="785" y="119"/>
      <point x="636" y="4"/>
      <point x="566" y="-1" type="qcurve" smooth="yes"/>
      <point x="525" y="-4"/>
      <point x="430" y="31"/>
      <point x="386" y="100"/>
      <point x="381" y="147" type="qcurve"/>
      <point x="412" y="153" type="line"/>
      <point x="414" y="111"/>
      <point x="371" y="46"/>
      <point x="293" y="12"/>
      <point x="248" y="9" type="qcurve" smooth="yes"/>
      <point x="208" y="6"/>
      <point x="115" y="36"/>
      <point x="11" y="172"/>
      <point x="23" y="308" type="qcurve" smooth="yes"/>
      <point x="30" y="382"/>
      <point x="111" y="500"/>
      <point x="160" y="519" type="qcurve"/>
      <point x="204" y="426" type="line"/>
      <point x="126" y="351"/>
      <point x="121" y="220"/>
      <point x="181" y="117"/>
      <point x="246" y="123" type="qcurve" smooth="yes"/>
      <point x="304" y="128"/>
      <point x="343" y="198"/>
      <point x="343" y="230" type="qcurve" smooth="yes"/>
      <point x="342" y="376" type="line"/>
      <point x="458" y="376" type="line"/>
      <point x="458" y="210" type="line" smooth="yes"/>
      <point x="458" y="164"/>
      <point x="513" y="119"/>
      <point x="558" y="124" type="qcurve" smooth="yes"/>
      <point x="595" y="128"/>
      <point x="670" y="183"/>
      <point x="674" y="308"/>
      <point x="644" y="396"/>
      <point x="593" y="426" type="qcurve"/>
    </contour>
    <contour>
      <point x="358" y="607" type="line"/>
      <point x="401" y="741" type="line"/>
      <point x="523" y="741" type="line"/>
      <point x="445" y="607" type="line"/>
    </contour>
  </outline>
  <guideline angle="0" x="0" y="425"/>
</glyph>
<glyph name="uni0402" format="2">
  <advance width="837"/>
  <unicode hex="0402"/>
  <outline>
    <contour>
      <point x="251" y="0" type="line"/>
      <point x="251" y="630" type="line"/>
      <point x="278" y="601" type="line"/>
      <point x="15" y="601" type="line"/>
      <point x="15" y="700" type="line"/>
      <point x="624" y="700" type="line"/>
      <point x="624" y="601" type="line"/>
      <point x="337" y="601" type="line"/>
      <point x="364" y="630" type="line"/>
      <point x="364" y="0" type="line"/>
    </contour>
    <contour>
      <point x="482" y="3" type="qcurve"/>
      <point x="495" y="98" type="line"/>
      <point x="528" y="90"/>
      <point x="595" y="92"/>
      <point x="653" y="118"/>
      <point x="688" y="168"/>
      <point x="688" y="208" type="qcurve" smooth="yes"/>
      <point x="688" y="258"/>
      <point x="631" y="317"/>
      <point x="535" y="336"/>
      <point x="413" y="315"/>
      <point x="347" y="285" type="qcurve"/>
      <point x="346" y="388" type="line"/>
      <point x="442" y="422"/>
      <point x="608" y="432"/>
      <point x="733" y="387"/>
      <point x="802" y="287"/>
      <point x="802" y="210" type="qcurve" smooth="yes"/>
      <point x="802" y="141"/>
      <point x="748" y="50"/>
      <point x="656" y="1"/>
      <point x="542" y="-9"/>
    </contour>
  </outline>
</glyph>
<glyph name="uni0404" format="2">
  <advance width="709"/>
  <unicode hex="0404"/>
  <anchor x="376" y="0" name="b.uni0324_3"/>
  <outline>
    <contour>
      <point x="495" y="391" type="line"/>
      <point x="495" y="298" type="line"/>
      <point x="127" y="298" type="line"/>
      <point x="127" y="391" type="line"/>
    </contour>
    <contour>
      <point x="405" y="-9" type="qcurve" smooth="yes"/>
      <point x="329" y="-9"/>
      <point x="199" y="44"/>
      <point x="103" y="141"/>
      <point x="50" y="272"/>
      <point x="50" y="350" type="qcurve" smooth="yes"/>
      <point x="50" y="428"/>
      <point x="103" y="559"/>
      <point x="199" y="656"/>
      <point x="329" y="709"/>
      <point x="405" y="709" type="qcurve" smooth="yes"/>
      <point x="491" y="709"/>
      <point x="634" y="651"/>
      <point x="682" y="595" type="qcurve"/>
      <point x="610" y="523" type="line"/>
      <point x="570" y="566"/>
      <point x="470" y="606"/>
      <point x="411" y="606" type="qcurve" smooth="yes"/>
      <point x="358" y="606"/>
      <point x="268" y="568"/>
      <point x="202" y="500"/>
      <point x="166" y="406"/>
      <point x="166" y="350" type="qcurve" smooth="yes"/>
      <point x="166" y="294"/>
      <point x="202" y="200"/>
      <point x="268" y="132"/>
      <point x="358" y="94"/>
      <point x="411" y="94" type="qcurve" smooth="yes"/>
      <point x="470" y="94"/>
      <point x="570" y="134"/>
      <point x="610" y="177" type="qcurve"/>
      <point x="682" y="105" type="line"/>
      <point x="634" y="49"/>
      <point x="491" y="-9"/>
    </contour>
  </outline>
</glyph>
<glyph name="uni0407" format="2">
  <advance width="314"/>
  <unicode hex="0407"/>
  <anchor x="189" y="943" name="t.uni0308"/>
  <anchor x="189" y="0" name="b.uni0324_3"/>
  <anchor x="354" y="0" name="m.uni0328_4"/>
  <outline>
    <contour>
      <point x="100" y="0" type="line"/>
      <point x="100" y="700" type="line"/>
      <point x="214" y="700" type="line"/>
      <point x="214" y="0" type="line"/>
    </contour>
    <contour>
      <point x="252" y="771" type="qcurve" smooth="yes"/>
      <point x="229" y="771"/>
      <point x="196" y="802"/>
      <point x="196" y="827" type="qcurve" smooth="yes"/>
      <point x="196" y="852"/>
      <point x="229" y="883"/>
      <point x="252" y="883" type="qcurve" smooth="yes"/>
      <point x="275" y="883"/>
      <point x="308" y="852"/>
      <point x="308" y="827" type="qcurve" smooth="yes"/>
      <point x="308" y="802"/>
      <point x="275" y="771"/>
    </contour>
    <contour>
      <point x="62" y="771" type="qcurve" smooth="yes"/>
      <point x="39" y="771"/>
      <point x="6" y="802"/>
      <point x="6" y="827" type="qcurve" smooth="yes"/>
      <point x="6" y="852"/>
      <point x="39" y="883"/>
      <point x="62" y="883" type="qcurve" smooth="yes"/>
      <point x="85" y="883"/>
      <point x="118" y="852"/>
      <point x="118" y="827" type="qcurve" smooth="yes"/>
      <point x="118" y="802"/>
      <point x="85" y="771"/>
    </contour>
  </outline>
</glyph>
<glyph name="uni040A" format="2">
  <advance width="1178"/>
  <unicode hex="040A"/>
  <outline>
    <contour>
      <point x="104" y="0" type="line"/>
      <point x="104" y="700" type="line"/>
      <point x="217" y="700" type="line"/>
      <point x="217" y="425" type="line"/>
      <point x="587" y="425" type="line"/>
      <point x="587" y="700" type="line"/>
      <point x="700" y="700" type="line"/>
      <point x="700" y="0" type="line"/>
      <point x="587" y="0" type="line"/>
      <point x="587" y="326" type="line"/>
      <point x="217" y="326" type="line"/>
      <point x="217" y="0" type="line"/>
    </contour>
    <contour>
      <point x="700" y="61" type="line"/>
      <point x="673" y="90" type="line"/>
      <point x="873" y="90" type="line" smooth="yes"/>
      <point x="947" y="90"/>
      <point x="1028" y="156"/>
      <point x="1028" y="216" type="qcurve" smooth="yes"/>
      <point x="1028" y="275"/>
      <point x="947" y="338"/>
      <point x="873" y="338" type="qcurve" smooth="yes"/>
      <point x="673" y="338" type="line"/>
      <point x="700" y="368" type="line"/>
    </contour>
    <contour>
      <point x="587" y="0" type="line"/>
      <point x="587" y="700" type="line"/>
      <point x="700" y="700" type="line"/>
      <point x="700" y="395" type="line"/>
      <point x="673" y="429" type="line"/>
      <point x="899" y="429" type="line" smooth="yes"/>
      <point x="1015" y="429"/>
      <point x="1144" y="320"/>
      <point x="1144" y="221" type="qcurve" smooth="yes"/>
      <point x="1144" y="116"/>
      <point x="1006" y="0"/>
      <point x="884" y="0" type="qcurve" smooth="yes"/>
    </contour>
  </outline>
</glyph>
<glyph name="uni040B" format="2">
  <advance width="845"/>
  <unicode hex="040B"/>
  <outline>
    <contour>
      <point x="249" y="0" type="line"/>
      <point x="249" y="630" type="line"/>
      <point x="277" y="601" type="line"/>
      <point x="14" y="601" type="line"/>
      <point x="14" y="700" type="line"/>
      <point x="618" y="700" type="line"/>
      <point x="618" y="601" type="line"/>
      <point x="335" y="601" type="line"/>
      <point x="362" y="630" type="line"/>
      <point x="362" y="0" type="line"/>
    </contour>
    <contour>
      <point x="344" y="379" type="line"/>
      <point x="402" y="402"/>
      <point x="506" y="423"/>
      <point x="554" y="423" type="qcurve" smooth="yes"/>
      <point x="666" y="423"/>
      <point x="800" y="306"/>
      <point x="800" y="185" type="qcurve" smooth="yes"/>
      <point x="800" y="0" type="line"/>
      <point x="687" y="0" type="line"/>
      <point x="687" y="170" type="line" smooth="yes"/>
      <point x="687" y="245"/>
      <point x="602" y="321"/>
      <point x="529" y="321" type="qcurve" smooth="yes"/>
      <point x="450" y="321"/>
      <point x="346" y="273" type="qcurve"/>
    </contour>
  </outline>
</glyph>
<glyph name="uni0411" format="2">
  <advance width="733"/>
  <unicode hex="0411"/>
  <outline>
    <contour>
      <point x="104" y="0" type="line"/>
      <point x="104" y="700" type="line"/>
      <point x="640" y="700" type="line"/>
      <point x="640" y="603" type="line"/>
      <point x="217" y="603" type="line"/>
      <point x="217" y="418" type="line"/>
      <point x="430" y="418" type="line" smooth="yes"/>
      <point x="555" y="418"/>
      <point x="686" y="314"/>
      <point x="686" y="215" type="qcurve" smooth="yes"/>
      <point x="686" y="112"/>
      <point x="543" y="0"/>
      <point x="411" y="0" type="qcurve" smooth="yes"/>
    </contour>
    <contour>
      <point x="217" y="90" type="line"/>
      <point x="406" y="90" type="line" smooth="yes"/>
      <point x="487" y="90"/>
      <point x="571" y="152"/>
      <point x="571" y="211" type="qcurve" smooth="yes"/>
      <point x="571" y="328"/>
      <point x="406" y="328" type="qcurve" smooth="yes"/>
      <point x="217" y="328" type="line"/>
    </contour>
  </outline>
</glyph>
<glyph name="uni0412" format="2">
  <advance width="746"/>
  <unicode hex="0412"/>
  <anchor x="388" y="700" name="t.uni0308"/>
  <anchor x="388" y="0" name="b.uni0324_3"/>
  <outline>
    <contour>
      <point x="104" y="0" type="line"/>
      <point x="104" y="700" type="line"/>
      <point x="411" y="700" type="line" smooth="yes"/>
      <point x="527" y="700"/>
      <point x="658" y="608"/>
      <point x="658" y="520" type="qcurve" smooth="yes"/>
      <point x="658" y="434"/>
      <point x="533" y="342"/>
      <point x="431" y="342" type="qcurve"/>
      <point x="449" y="375" type="line"/>
      <point x="566" y="375"/>
      <point x="692" y="282"/>
      <point x="692" y="193" type="qcurve" smooth="yes"/>
      <point x="692" y="102"/>
      <point x="560" y="0"/>
      <point x="430" y="0" type="qcurve" smooth="yes"/>
    </contour>
    <contour>
      <point x="217" y="90" type="line"/>
      <point x="427" y="90" type="line" smooth="yes"/>
      <point x="501" y="90"/>
      <point x="577" y="145"/>
      <point x="577" y="202" type="qcurve" smooth="yes"/>
      <point x="577" y="258"/>
      <point x="501" y="311"/>
      <point x="427" y="311" type="qcurve" smooth="yes"/>
      <point x="217" y="311" type="line"/>
    </contour>
    <contour>
      <point x="217" y="397" type="line"/>
      <point x="402" y="397" type="line" smooth="yes"/>
      <point x="470" y="397"/>
      <point x="542" y="451"/>
      <point x="542" y="503" type="qcurve" smooth="yes"/>
      <point x="542" y="556"/>
      <point x="470" y="610"/>
      <point x="402" y="610" type="qcurve" smooth="yes"/>
      <point x="217" y="610" type="line"/>
    </contour>
  </outline>
</glyph>
<glyph name="uni0414" format="2">
  <advance width="809"/>
  <unicode hex="0414"/>
  <outline>
    <contour>
      <point x="569" y="54" type="line"/>
      <point x="569" y="601" type="line"/>
      <point x="278" y="601" type="line"/>
      <point x="273" y="466" type="line" smooth="yes"/>
      <point x="270" y="394"/>
      <point x="258" y="264"/>
      <point x="234" y="159"/>
      <point x="193" y="90"/>
      <point x="162" y="80" type="qcurve"/>
      <point x="38" y="99" type="line"/>
      <point x="77" y="97"/>
      <point x="127" y="154"/>
      <point x="155" y="257"/>
      <point x="169" y="396"/>
      <point x="172" y="477" type="qcurve" smooth="yes"/>
      <point x="180" y="700" type="line"/>
      <point x="682" y="700" type="line"/>
      <point x="682" y="54" type="line"/>
    </contour>
    <contour>
      <point x="14" y="-151" type="line"/>
      <point x="15" y="99" type="line"/>
      <point x="784" y="99" type="line"/>
      <point x="784" y="-151" type="line"/>
      <point x="678" y="-151" type="line"/>
      <point x="678" y="0" type="line"/>
      <point x="121" y="0" type="line"/>
      <point x="120" y="-151" type="line"/>
    </contour>
  </outline>
</glyph>
